OxygenSans-Heavy.ufo
<glyph name="exclam" format="1">
  <advance width="604.499994159"/>
  <unicode hex="0021"/>
  <outline>
    <contour>
      <point x="261.899997592" y="414.399999142" type="line"/>
      <point x="367.699995875" y="414.399999142" type="line"/>
      <point x="423.599995613" y="1144.40000415" type="line"/>
      <point x="423.599995613" y="1339.30000103" type="line"/>
      <point x="199.299997926" y="1339.30000103" type="line"/>
      <point x="199.299997926" y="1144.40000415" type="line"/>
    </contour>
    <contour>
      <point x="308.199996948" y="-7.70000016689" type="curve" smooth="yes"/>
      <point x="390.899996877" y="-7.70000016689"/>
      <point x="449.799995899" y="58.9999995232"/>
      <point x="449.799995899" y="133.999998808" type="curve" smooth="yes"/>
      <point x="449.799995899" y="209.899998069"/>
      <point x="390.899996877" y="276.499997735"/>
      <point x="308.199996948" y="276.499997735" type="curve" smooth="yes"/>
      <point x="224.899997115" y="276.499997735"/>
      <point x="165.799998045" y="209.899998069"/>
      <point x="165.799998045" y="133.999998808" type="curve" smooth="yes"/>
      <point x="165.799998045" y="58.9999995232"/>
      <point x="224.899997115" y="-7.70000016689"/>
    </contour>
  </outline>
</glyph>
<glyph name="quotedbl" format="1">
  <advance width="740.899994969"/>
  <unicode hex="0022"/>
  <outline>
    <contour>
      <point x="137.099999785" y="850.900003314" type="line"/>
      <point x="285.799996853" y="850.900003314" type="line"/>
      <point x="313.699996829" y="1341.60000134" type="line"/>
      <point x="107.200000286" y="1341.60000134" type="line"/>
    </contour>
    <contour>
      <point x="499.799996138" y="850.500003219" type="line"/>
      <point x="648.699993253" y="850.500003219" type="line"/>
      <point x="676.299993157" y="1341.60000134" type="line"/>
      <point x="469.899996638" y="1341.60000134" type="line"/>
    </contour>
  </outline>
</glyph>
<glyph name="numbersign" format="1">
  <advance width="1201.29999745"/>
  <unicode hex="0023"/>
  <outline>
    <contour>
      <point x="247.599999666" y="-14.3000003099" type="line"/>
      <point x="422.499996781" y="-14.3000003099" type="line"/>
      <point x="492.899996877" y="369.700000167" type="line"/>
      <point x="650.799999714" y="369.700000167" type="line"/>
      <point x="580.599999428" y="-14.3000003099" type="line"/>
      <point x="762.099997163" y="-14.3000003099" type="line"/>
      <point x="834.499997497" y="369.700000167" type="line"/>
      <point x="1018.39999533" y="369.700000167" type="line"/>
      <point x="1027.39999533" y="537.199997663" type="line"/>
      <point x="861.199996948" y="537.199997663" type="line"/>
      <point x="912.299997449" y="815.300001502" type="line"/>
      <point x="1086.6999954" y="815.300001502" type="line"/>
      <point x="1098.6999954" y="984.999998808" type="line"/>
      <point x="943.999996901" y="984.999998808" type="line"/>
      <point x="1008.99999666" y="1334.99999976" type="line"/>
      <point x="833.399999619" y="1334.99999976" type="line"/>
      <point x="768.599999666" y="984.999998808" type="line"/>
      <point x="609.199996948" y="984.999998808" type="line"/>
      <point x="676.299997211" y="1334.99999976" type="line"/>
      <point x="494.39999938" y="1334.99999976" type="line"/>
      <point x="423.299999118" y="984.999998808" type="line"/>
      <point x="218.500000596" y="984.999998808" type="line"/>
      <point x="211.300000548" y="814.300001502" type="line"/>
      <point x="392.899999499" y="814.300001502" type="line"/>
      <point x="346.199999094" y="537.199997663" type="line"/>
      <point x="149.500000596" y="537.199997663" type="line"/>
      <point x="140.500000596" y="369.700000167" type="line"/>
      <point x="314.599999666" y="369.700000167" type="line"/>
    </contour>
    <contour>
      <point x="523.099996448" y="537.199997663" type="line"/>
      <point x="577.099997401" y="815.300001502" type="line"/>
      <point x="736.700000167" y="815.300001502" type="line"/>
      <point x="684.499999166" y="537.199997663" type="line"/>
    </contour>
  </outline>
</glyph>
<glyph name="dollar" format="1">
  <advance width="1169.39999962"/>
  <unicode hex="0024"/>
  <outline>
    <contour>
      <point x="544.200000048" y="-17.979099995" type="line"/>
      <point x="372.294198163" y="-13.8673199684"/>
      <point x="233.376298898" y="31.0079114324"/>
      <point x="129.800000429" y="90.800000906" type="curve"/>
      <point x="208.999999523" y="293.199997663" type="line"/>
      <point x="287.399999857" y="241.299997211"/>
      <point x="444.399998426" y="196.19999671"/>
      <point x="581.799999714" y="196.19999671" type="curve" smooth="yes"/>
      <point x="729.800001383" y="196.19999671"/>
      <point x="804.100002646" y="250.399997234"/>
      <point x="805.000002861" y="380.399998903" type="curve" smooth="yes"/>
      <point x="805.700003028" y="467.300000787"/>
      <point x="750.700003028" y="519.500000834"/>
      <point x="643.200000525" y="556.200001955" type="curve" smooth="yes"/>
      <point x="414.000000715" y="632.400002241" type="line" smooth="yes"/>
      <point x="250.700000405" y="687.000002623"/>
      <point x="145.600000143" y="802.900001645"/>
      <point x="146.500000358" y="991.800001383" type="curve" smooth="yes"/>
      <point x="147.76980066" y="1223.91600165"/>
      <point x="314.732101128" y="1348.18700028"/>
      <point x="544.200000048" y="1367.33000008" type="curve"/>
      <point x="544.200000048" y="1537.40000176" type="line"/>
      <point x="658.599998951" y="1537.40000176" type="line"/>
      <point x="658.766998991" y="1369.27400007" type="line"/>
      <point x="799.302099118" y="1361.61800015"/>
      <point x="929.320099123" y="1322.01299953"/>
      <point x="1032.29999793" y="1262.19999981" type="curve"/>
      <point x="953.299998641" y="1060.70000327" type="line"/>
      <point x="867.800000191" y="1098.60000277"/>
      <point x="741.900000453" y="1154.20000339"/>
      <point x="618.099999309" y="1154.20000339" type="curve" smooth="yes"/>
      <point x="482.999998808" y="1154.20000339"/>
      <point x="399.999996662" y="1111.50000322"/>
      <point x="399.199996471" y="996.800001383" type="curve" smooth="yes"/>
      <point x="398.599996328" y="924.999999762"/>
      <point x="437.099996686" y="878.099999785"/>
      <point x="507.899999022" y="853.699998736" type="curve" smooth="yes"/>
      <point x="721.799998999" y="780.299998403" type="line" smooth="yes"/>
      <point x="951.299997687" y="701.899998546"/>
      <point x="1061.99999905" y="596.499999642"/>
      <point x="1060.69999874" y="377.199999094" type="curve" smooth="yes"/>
      <point x="1059.31249841" y="141.440418674"/>
      <point x="896.166498371" y="11.3382516038"/>
      <point x="658.633898959" y="-13.3457800824" type="curve"/>
      <point x="658.799998999" y="-169.800002337" type="line"/>
      <point x="544.200000048" y="-169.800002337" type="line"/>
    </contour>
  </outline>
</glyph>
<glyph name="percent" format="1">
  <advance width="1733.49999893"/>
  <unicode hex="0025"/>
  <outline>
    <contour>
      <point x="1344.29999888" y="-12.8999999762" type="curve" smooth="yes"/>
      <point x="1127.09999907" y="-12.8999999762"/>
      <point x="1012.4999994" y="140.100000024"/>
      <point x="1012.4999994" y="337.100000024" type="curve" smooth="yes"/>
      <point x="1012.4999994" y="535.100000024"/>
      <point x="1130.09999907" y="687.100000024"/>
      <point x="1344.29999888" y="687.100000024" type="curve" smooth="yes"/>
      <point x="1562.49999869" y="687.100000024"/>
      <point x="1677.09999835" y="538.100000024"/>
      <point x="1677.09999835" y="337.100000024" type="curve" smooth="yes"/>
      <point x="1677.09999835" y="140.100000024"/>
      <point x="1559.49999869" y="-12.8999999762"/>
    </contour>
    <contour>
      <point x="1344.49999893" y="107.699998736" type="curve" smooth="yes"/>
      <point x="1473.39999962" y="107.699998736"/>
      <point x="1528.5999999" y="209.899999261"/>
      <point x="1528.5999999" y="339.0" type="curve" smooth="yes"/>
      <point x="1528.5999999" y="472.300000787"/>
      <point x="1472.39999962" y="567.400001287"/>
      <point x="1344.49999893" y="567.400001287" type="curve" smooth="yes"/>
      <point x="1215.49999821" y="567.400001287"/>
      <point x="1158.29999793" y="467.200000763"/>
      <point x="1158.29999793" y="339.0" type="curve" smooth="yes"/>
      <point x="1158.29999793" y="206.699999213"/>
      <point x="1215.59999824" y="107.699998736"/>
    </contour>
    <contour>
      <point x="388.400000095" y="785.399998665" type="curve" smooth="yes"/>
      <point x="517.300000787" y="785.399998665"/>
      <point x="572.500001073" y="887.599999189"/>
      <point x="572.500001073" y="1016.69999993" type="curve" smooth="yes"/>
      <point x="572.500001073" y="1150.00000072"/>
      <point x="516.300000787" y="1245.10000122"/>
      <point x="388.400000095" y="1245.10000122" type="curve" smooth="yes"/>
      <point x="259.39999938" y="1245.10000122"/>
      <point x="202.199999094" y="1144.90000069"/>
      <point x="202.199999094" y="1016.69999993" type="curve" smooth="yes"/>
      <point x="202.199999094" y="884.399999142"/>
      <point x="259.499999404" y="785.399998665"/>
    </contour>
    <contour>
      <point x="388.200000048" y="664.799999952" type="curve" smooth="yes"/>
      <point x="171.000000238" y="664.799999952"/>
      <point x="56.4000005722" y="817.799999952"/>
      <point x="56.4000005722" y="1014.79999995" type="curve" smooth="yes"/>
      <point x="56.4000005722" y="1212.79999995"/>
      <point x="174.000000238" y="1364.79999995"/>
      <point x="388.200000048" y="1364.79999995" type="curve" smooth="yes"/>
      <point x="606.399999857" y="1364.79999995"/>
      <point x="720.999999523" y="1215.79999995"/>
      <point x="720.999999523" y="1014.79999995" type="curve" smooth="yes"/>
      <point x="720.999999523" y="817.799999952"/>
      <point x="603.399999857" y="664.799999952"/>
    </contour>
    <contour>
      <point x="368.900001168" y="0.0" type="line"/>
      <point x="1154.00000095" y="1352.20000005" type="line"/>
      <point x="1347.89999831" y="1352.20000005" type="line"/>
      <point x="570.899998546" y="0.0" type="line"/>
    </contour>
  </outline>
</glyph>
<glyph name="ampersand" format="1">
  <advance width="1335.70000112"/>
  <unicode hex="0026"/>
  <outline>
    <contour>
      <point x="587.700000167" y="-2.70000040531" type="curve" smooth="yes"/>
      <point x="336.19999814" y="-2.70000040531"/>
      <point x="116.100000262" y="113.300000548"/>
      <point x="116.100000262" y="383.999998808" type="curve" smooth="yes"/>
      <point x="116.100000262" y="580.199998856"/>
      <point x="254.69999969" y="684.699999213"/>
      <point x="412.800000906" y="769.999999523" type="curve"/>
      <point x="340.199999809" y="853.000000477"/>
      <point x="270.400000572" y="938.500000596"/>
      <point x="270.400000572" y="1055.00000072" type="curve" smooth="yes"/>
      <point x="270.400000572" y="1261.19999957"/>
      <point x="430.899999499" y="1360.30000031"/>
      <point x="615.800000429" y="1360.30000031" type="curve" smooth="yes"/>
      <point x="786.900001168" y="1360.30000031"/>
      <point x="971.69999969" y="1273.79999971"/>
      <point x="971.69999969" y="1069.90000045" type="curve" smooth="yes"/>
      <point x="971.69999969" y="901.600000858"/>
      <point x="831.599999189" y="796.700000405"/>
      <point x="687.599997759" y="725.100000024" type="curve"/>
      <point x="994.000001192" y="387.299996257" type="line"/>
      <point x="1039.90000141" y="440.299996257"/>
      <point x="1091.50000203" y="522.399997473"/>
      <point x="1125.400002" y="588.099997878" type="curve"/>
      <point x="1285.5999999" y="484.499999166" type="line"/>
      <point x="1246.30000007" y="405.399999142"/>
      <point x="1186.4999994" y="313.799998045"/>
      <point x="1126.89999926" y="247.899998069" type="curve"/>
      <point x="1311.59999824" y="53.6999992132" type="line"/>
      <point x="1115.00000095" y="1.69999945164" type="line"/>
      <point x="991.900001168" y="131.299999356" type="line"/>
      <point x="876.400001049" y="45.7999992371"/>
      <point x="740.000001669" y="-2.70000040531"/>
    </contour>
    <contour>
      <point x="593.30000031" y="167.399997473" type="curve" smooth="yes"/>
      <point x="694.400001764" y="167.399997473"/>
      <point x="791.200002193" y="199.299997449"/>
      <point x="866.000002861" y="257.599997997" type="curve"/>
      <point x="821.900004029" y="306.19999671"/>
      <point x="563.099998593" y="588.700002551"/>
      <point x="520.799999714" y="635.500001311" type="curve"/>
      <point x="414.19999814" y="577.200000763"/>
      <point x="329.899997592" y="515.499999404"/>
      <point x="329.899997592" y="393.79999876" type="curve" smooth="yes"/>
      <point x="329.899997592" y="240.49999845"/>
      <point x="441.299997926" y="167.399997473"/>
    </contour>
    <contour>
      <point x="576.899999022" y="855.999998331" type="curve"/>
      <point x="670.400000572" y="906.199998856"/>
      <point x="764.300002456" y="967.799999952"/>
      <point x="764.300002456" y="1069.60000062" type="curve" smooth="yes"/>
      <point x="764.300002456" y="1157.3000015"/>
      <point x="705.30000174" y="1198.30000222"/>
      <point x="622.100000262" y="1198.30000222" type="curve" smooth="yes"/>
      <point x="534.199999094" y="1198.30000222"/>
      <point x="473.699997783" y="1155.30000126"/>
      <point x="473.699997783" y="1063.60000062" type="curve" smooth="yes"/>
      <point x="473.699997783" y="984.500000119"/>
      <point x="515.899998069" y="919.599998951"/>
    </contour>
  </outline>
</glyph>
<glyph name="quotesingle" format="1">
  <advance width="487.69999373"/>
  <unicode hex="0027"/>
  <outline>
    <contour>
      <point x="174.399997711" y="842.000002146" type="line"/>
      <point x="318.899995685" y="842.000002146" type="line"/>
      <point x="342.699995399" y="1342.80000043" type="line"/>
      <point x="144.599998236" y="1342.80000043" type="line"/>
    </contour>
  </outline>
</glyph>
<glyph name="parenleft" format="1">
  <advance width="708.899997115"/>
  <unicode hex="0028"/>
  <outline>
    <contour>
      <point x="420.199998617" y="-150.700002551" type="curve"/>
      <point x="639.799995661" y="-150.700002551" type="line"/>
      <point x="496.899994493" y="88.5999987125"/>
      <point x="393.399996042" y="342.500000358"/>
      <point x="393.399996042" y="638.800000429" type="curve" smooth="yes"/>
      <point x="393.399996042" y="950.199999332"/>
      <point x="527.899993539" y="1264.69999731"/>
      <point x="640.799995661" y="1430.70000088" type="curve"/>
      <point x="419.099998593" y="1430.70000088" type="line"/>
      <point x="276.19999814" y="1236.69999969"/>
      <point x="164.999999046" y="953.099999785"/>
      <point x="164.999999046" y="636.500000358" type="curve" smooth="yes"/>
      <point x="164.999999046" y="318.399999857"/>
      <point x="267.099998593" y="65.0999974012"/>
    </contour>
  </outline>
</glyph>
<glyph name="parenright" format="1">
  <advance width="720.699997306"/>
  <unicode hex="0029"/>
  <outline>
    <contour>
      <point x="92.2000010014" y="-150.700002551" type="curve"/>
      <point x="313.599997997" y="-150.700002551" type="line"/>
      <point x="455.899998307" y="40.799998045"/>
      <point x="567.899997592" y="330.999999523"/>
      <point x="567.899997592" y="651.799999952" type="curve" smooth="yes"/>
      <point x="567.899997592" y="965.699999452"/>
      <point x="466.599998236" y="1212.40000033"/>
      <point x="312.899998069" y="1430.70000088" type="curve"/>
      <point x="93.0000009537" y="1430.70000088" type="line"/>
      <point x="236.500002265" y="1189.99999928"/>
      <point x="339.500000596" y="943.899999499"/>
      <point x="339.500000596" y="650.500000119" type="curve" smooth="yes"/>
      <point x="339.500000596" y="336.200000525"/>
      <point x="204.50000298" y="13.9000006914"/>
    </contour>
  </outline>
</glyph>
<glyph name="asterisk" format="1">
  <advance width="1096.00000072"/>
  <unicode hex="002A"/>
  <outline>
    <contour>
      <point x="665.399991751" y="465.200002193" type="line"/>
      <point x="832.099984765" y="572.900001168" type="line"/>
      <point x="832.099984765" y="572.900001168"/>
      <point x="698.09999454" y="803.500003695"/>
      <point x="663.899995446" y="846.700002551" type="curve"/>
      <point x="905.39997983" y="916.000002861" type="line"/>
      <point x="853.599982023" y="1119.40000057" type="line"/>
      <point x="616.299997449" y="993.200000048" type="line"/>
      <point x="638.899995923" y="1341.40000129" type="line"/>
      <point x="453.000004292" y="1341.40000129" type="line"/>
      <point x="477.300002694" y="993.200000048" type="line"/>
      <point x="242.800018072" y="1119.40000057" type="line"/>
      <point x="188.500020385" y="916.000002861" type="line"/>
      <point x="428.400004625" y="846.700002551" type="line"/>
      <point x="432.100005507" y="841.500001311"/>
      <point x="247.900012374" y="589.60000515"/>
      <point x="261.000015497" y="572.900001168" type="curve"/>
      <point x="253.00001359" y="567.899999976"/>
      <point x="440.000010252" y="472.100003362"/>
      <point x="432.000008345" y="467.10000217" type="curve"/>
      <point x="544.899999976" y="757.600003958" type="line"/>
    </contour>
  </outline>
</glyph>
<glyph name="plus" format="1">
  <advance width="1037.40000057"/>
  <unicode hex="002B"/>
  <outline>
    <contour>
      <point x="435.200001478" y="134.500001073" type="line"/>
      <point x="617.499998927" y="134.500001073" type="line"/>
      <point x="617.499998927" y="507.000001192" type="line"/>
      <point x="976.999998569" y="507.000001192" type="line"/>
      <point x="976.999998569" y="685.099998355" type="line"/>
      <point x="618.399998903" y="685.099998355" type="line"/>
      <point x="618.399998903" y="1057.69999826" type="line"/>
      <point x="436.100001454" y="1057.69999826" type="line"/>
      <point x="436.100001454" y="685.099998355" type="line"/>
      <point x="74.8000016212" y="685.099998355" type="line"/>
      <point x="74.8000016212" y="507.000001192" type="line"/>
      <point x="435.200001478" y="507.000001192" type="line"/>
    </contour>
  </outline>
</glyph>
<glyph name="comma" format="1">
  <advance width="518.299997687"/>
  <unicode hex="002C"/>
  <outline>
    <contour>
      <point x="133.500000119" y="-236.300000787" type="curve"/>
      <point x="296.299996734" y="-236.300000787" type="line"/>
      <point x="304.599998713" y="-213.899995446"/>
      <point x="431.599994898" y="165.999994278"/>
      <point x="437.199996233" y="187.199999332" type="curve"/>
      <point x="441.399996042" y="239.699998736" type="line"/>
      <point x="214.399998426" y="239.699998736" type="line"/>
      <point x="213.099998116" y="218.299993634"/>
      <point x="136.200000763" y="-213.799995422"/>
    </contour>
  </outline>
</glyph>
<glyph name="hyphen" format="1">
  <advance width="606.800003052"/>
  <unicode hex="002D"/>
  <outline>
    <contour>
      <point x="65.1000019312" y="413.600001812" type="line"/>
      <point x="553.900000215" y="413.600001812" type="line"/>
      <point x="553.900000215" y="602.699999213" type="line"/>
      <point x="65.1000019312" y="602.699999213" type="line"/>
    </contour>
  </outline>
</glyph>
<glyph name="period" format="1">
  <advance width="537.399997234"/>
  <unicode hex="002E"/>
  <outline>
    <contour>
      <point x="274.49999845" y="0.699999451637" type="curve" smooth="yes"/>
      <point x="357.099998355" y="0.699999451637"/>
      <point x="416.099997401" y="66.4999991655"/>
      <point x="416.099997401" y="141.49999845" type="curve" smooth="yes"/>
      <point x="416.099997401" y="217.399997711"/>
      <point x="357.099998355" y="284.099997401"/>
      <point x="274.49999845" y="284.099997401" type="curve" smooth="yes"/>
      <point x="190.999998569" y="284.099997401"/>
      <point x="131.199999571" y="217.399997711"/>
      <point x="131.199999571" y="141.49999845" type="curve" smooth="yes"/>
      <point x="131.199999571" y="65.6999992132"/>
      <point x="191.999998569" y="0.699999451637"/>
    </contour>
  </outline>
</glyph>
<glyph name="slash" format="1">
  <advance width="886.20000124"/>
  <unicode hex="002F"/>
  <outline>
    <contour>
      <point x="60.400001049" y="-172.100001216" type="line"/>
      <point x="257.299997687" y="-172.100001216" type="line"/>
      <point x="824.000000238" y="1358.99999881" type="line"/>
      <point x="624.200003624" y="1358.99999881" type="line"/>
    </contour>
  </outline>
</glyph>
<glyph name="zero" format="1">
  <advance width="1244.4999975"/>
  <unicode hex="0030"/>
  <outline>
    <contour>
      <point x="622.399998903" y="174.599997044" type="curve" smooth="yes"/>
      <point x="436.699998736" y="174.599997044"/>
      <point x="377.099996448" y="406.599995136"/>
      <point x="377.099996448" y="676.599999905" type="curve"/>
      <point x="378.699996352" y="939.600004196"/>
      <point x="438.399998665" y="1165.00000286"/>
      <point x="622.399998903" y="1165.00000286" type="curve" smooth="yes"/>
      <point x="808.09999907" y="1165.00000286"/>
      <point x="865.700001121" y="941.700005174"/>
      <point x="865.700001121" y="674.100000024" type="curve" smooth="yes"/>
      <point x="865.700001121" y="404.899995208"/>
      <point x="808.09999907" y="174.599997044"/>
    </contour>
    <contour>
      <point x="622.399998903" y="-19.3000003099" type="curve" smooth="yes"/>
      <point x="984.79999733" y="-19.3000003099"/>
      <point x="1112.4999975" y="306.69999826"/>
      <point x="1112.4999975" y="667.300000072" type="curve" smooth="yes"/>
      <point x="1112.4999975" y="1035.30000246"/>
      <point x="979.999996901" y="1358.10000026"/>
      <point x="622.399998903" y="1358.10000026" type="curve" smooth="yes"/>
      <point x="266.500000834" y="1358.10000026"/>
      <point x="132.0" y="1037.80000234"/>
      <point x="132.0" y="667.300000072" type="curve" smooth="yes"/>
      <point x="132.0" y="306.69999826"/>
      <point x="260.900000453" y="-19.3000003099"/>
    </contour>
  </outline>
</glyph>
<glyph name="one" format="1">
  <advance width="1117.30000007"/>
  <unicode hex="0031"/>
  <outline>
    <contour>
      <point x="195.699999928" y="0.0" type="line"/>
      <point x="991.999998808" y="0.0" type="line"/>
      <point x="991.999998808" y="188.79999733" type="line"/>
      <point x="643.09999907" y="188.79999733" type="line"/>
      <point x="731.199997902" y="99.7999985218" type="line"/>
      <point x="731.199997902" y="1337.80000043" type="line"/>
      <point x="521.100000501" y="1337.80000043" type="line"/>
      <point x="444.100000739" y="1282.60000062"/>
      <point x="310.999999523" y="1234.30000055"/>
      <point x="199.500000834" y="1204.6000011" type="curve"/>
      <point x="199.500000834" y="1014.40000367" type="line"/>
      <point x="331.799999237" y="1035.00000334"/>
      <point x="475.400000572" y="1089.90000331"/>
      <point x="533.500001073" y="1143.50000346" type="curve"/>
      <point x="489.400001287" y="1175.70000303" type="line"/>
      <point x="489.400001287" y="99.9999985695" type="line"/>
      <point x="577.300000072" y="188.79999733" type="line"/>
      <point x="195.699999928" y="188.79999733" type="line"/>
    </contour>
  </outline>
</glyph>
<glyph name="two" format="1">
  <advance width="1138.8999995"/>
  <unicode hex="0032"/>
  <outline>
    <contour>
      <point x="164.299999356" y="0.0" type="line"/>
      <point x="952.199999809" y="0.0" type="line"/>
      <point x="967.999999523" y="188.79999733" type="line"/>
      <point x="324.999995947" y="188.79999733" type="line"/>
      <point x="365.499995112" y="109.899998307" type="line"/>
      <point x="726.199999332" y="494.800001621" type="line" smooth="yes"/>
      <point x="895.599999666" y="676.400001526"/>
      <point x="973.999999046" y="814.999999762"/>
      <point x="973.999999046" y="978.700000882" type="curve" smooth="yes"/>
      <point x="973.999999046" y="1230.60000181"/>
      <point x="774.299996734" y="1358.50000036"/>
      <point x="538.099999309" y="1358.50000036" type="curve" smooth="yes"/>
      <point x="376.599999666" y="1358.50000036"/>
      <point x="242.999999285" y="1295.70000064"/>
      <point x="165.699999213" y="1230.30000103" type="curve"/>
      <point x="236.69999826" y="1054.80000353" type="line"/>
      <point x="280.099999785" y="1086.80000424"/>
      <point x="403.899999738" y="1165.0000031"/>
      <point x="526.399999619" y="1165.0000031" type="curve" smooth="yes"/>
      <point x="637.399999857" y="1165.0000031"/>
      <point x="730.100002646" y="1087.60000396"/>
      <point x="730.100002646" y="967.100000739" type="curve" smooth="yes"/>
      <point x="730.100002646" y="872.299998403"/>
      <point x="667.800002337" y="762.499999642"/>
      <point x="582.500001073" y="668.399998665" type="curve" smooth="yes"/>
      <point x="155.79999876" y="197.399997711" type="line"/>
    </contour>
  </outline>
</glyph>
<glyph name="three" format="1">
  <advance width="1181.19999838"/>
  <unicode hex="0033"/>
  <outline>
    <contour>
      <point x="539.999999285" y="-18.0" type="curve" smooth="yes"/>
      <point x="799.500000119" y="-18.0"/>
      <point x="1008.89999902" y="117.30000031"/>
      <point x="1008.89999902" y="366.899999976" type="curve" smooth="yes"/>
      <point x="1008.89999902" y="527.900001407"/>
      <point x="922.499997735" y="666.500000834"/>
      <point x="772.899996877" y="709.200000525" type="curve"/>
      <point x="902.599997997" y="760.300000072"/>
      <point x="972.999999046" y="856.099999785"/>
      <point x="972.999999046" y="999.400001287" type="curve" smooth="yes"/>
      <point x="972.999999046" y="1214.50000131"/>
      <point x="790.999998569" y="1358.50000036"/>
      <point x="546.199999094" y="1358.50000036" type="curve" smooth="yes"/>
      <point x="384.799999952" y="1358.50000036"/>
      <point x="264.099999547" y="1322.40000033"/>
      <point x="161.099999309" y="1258.80000019" type="curve"/>
      <point x="231.599998474" y="1082.50000274" type="line"/>
      <point x="307.799998999" y="1131.80000305"/>
      <point x="411.899999499" y="1165.90000308"/>
      <point x="525.899999499" y="1165.90000308" type="curve" smooth="yes"/>
      <point x="666.200000286" y="1165.90000308"/>
      <point x="741.200002432" y="1079.60000348"/>
      <point x="741.200002432" y="981.100001454" type="curve" smooth="yes"/>
      <point x="741.200002432" y="824.599999428"/>
      <point x="602.600000143" y="798.199999571"/>
      <point x="414.899999976" y="796.499999404" type="curve"/>
      <point x="357.500000596" y="796.499999404" type="line"/>
      <point x="357.500000596" y="607.100001931" type="line"/>
      <point x="414.699999928" y="607.100001931" type="line"/>
      <point x="629.000000715" y="602.100001931"/>
      <point x="766.300002694" y="564.900001645"/>
      <point x="766.300002694" y="377.299999595" type="curve" smooth="yes"/>
      <point x="766.300002694" y="256.299997449"/>
      <point x="679.500001311" y="175.499997258"/>
      <point x="540.999999285" y="175.499997258" type="curve" smooth="yes"/>
      <point x="421.499998927" y="175.499997258"/>
      <point x="296.199998617" y="217.099997878"/>
      <point x="234.799998999" y="266.999997377" type="curve"/>
      <point x="161.399999857" y="93.3999998569" type="line"/>
      <point x="236.999998331" y="29.1000012159"/>
      <point x="385.699998736" y="-18.0"/>
    </contour>
  </outline>
</glyph>
<glyph name="four" format="1">
  <advance width="1233.399997"/>
  <unicode hex="0034"/>
  <outline>
    <contour>
      <point x="725.500000834" y="0.0" type="line"/>
      <point x="964.499997258" y="0.0" type="line"/>
      <point x="964.499997258" y="303.000001669" type="line"/>
      <point x="1112.89999759" y="303.000001669" type="line"/>
      <point x="1126.4999975" y="493.399998903" type="line"/>
      <point x="964.499997258" y="493.399998903" type="line"/>
      <point x="964.499997258" y="1337.80000043" type="line"/>
      <point x="676.100002408" y="1337.80000043" type="line"/>
      <point x="135.799999475" y="473.700000167" type="line"/>
      <point x="135.799999475" y="303.000001669" type="line"/>
      <point x="725.500000834" y="303.000001669" type="line"/>
    </contour>
    <contour>
      <point x="379.999995947" y="489.999999046" type="line"/>
      <point x="725.400000811" y="1069.20000339" type="line"/>
      <point x="725.400000811" y="489.999999046" type="line"/>
    </contour>
  </outline>
</glyph>
<glyph name="five" format="1">
  <advance width="1211.79999757"/>
  <unicode hex="0035"/>
  <outline>
    <contour>
      <point x="581.69999826" y="-18.1000000238" type="curve" smooth="yes"/>
      <point x="887.899996877" y="-18.1000000238"/>
      <point x="1069.69999802" y="161.499999166"/>
      <point x="1069.69999802" y="428.500000119" type="curve" smooth="yes"/>
      <point x="1069.69999802" y="676.199999332"/>
      <point x="899.299998879" y="853.499999642"/>
      <point x="640.69999826" y="853.499999642" type="curve" smooth="yes"/>
      <point x="584.299997211" y="853.499999642"/>
      <point x="514.999996901" y="821.799999952"/>
      <point x="460.799995899" y="794.999999046" type="curve"/>
      <point x="462.599995852" y="851.699997544"/>
      <point x="484.299996257" y="1099.40000439"/>
      <point x="486.099996209" y="1142.60000324" type="curve"/>
      <point x="1002.29999793" y="1142.60000324" type="line"/>
      <point x="1018.59999776" y="1337.80000043" type="line"/>
      <point x="262.999999762" y="1337.80000043" type="line"/>
      <point x="224.999999523" y="596.600001574" type="line"/>
      <point x="400.799997568" y="569.60000205" type="line"/>
      <point x="460.499997497" y="633.400002003"/>
      <point x="534.799998283" y="663.600002289"/>
      <point x="605.399999142" y="663.600002289" type="curve" smooth="yes"/>
      <point x="735.600001812" y="663.600002289"/>
      <point x="820.700001597" y="571.800000668"/>
      <point x="820.700001597" y="429.799999952" type="curve" smooth="yes"/>
      <point x="820.700001597" y="281.999997616"/>
      <point x="734.199999332" y="177.299997211"/>
      <point x="557.199998617" y="177.299997211" type="curve" smooth="yes"/>
      <point x="410.899999738" y="177.299997211"/>
      <point x="277.200000286" y="263.29999578"/>
      <point x="253.399998188" y="279.599997044" type="curve"/>
      <point x="169.499999404" y="107.599999428" type="line"/>
      <point x="200.800001621" y="83.4999982119"/>
      <point x="383.100000262" y="-18.1000000238"/>
    </contour>
  </outline>
</glyph>
<glyph name="six" format="1">
  <advance width="1249.99999857"/>
  <unicode hex="0036"/>
  <outline>
    <contour>
      <point x="623.399998903" y="-18.0" type="curve" smooth="yes"/>
      <point x="900.199998617" y="-18.0"/>
      <point x="1106.39999723" y="155.900000453"/>
      <point x="1106.39999723" y="414.999999523" type="curve" smooth="yes"/>
      <point x="1106.39999723" y="664.099999309"/>
      <point x="913.299997211" y="833.599998951"/>
      <point x="662.699998498" y="833.599998951" type="curve" smooth="yes"/>
      <point x="557.399993896" y="833.599998951"/>
      <point x="465.499992967" y="763.999994516"/>
      <point x="444.8999933" y="756.299994111" type="curve"/>
      <point x="489.699992537" y="705.799995184" type="line"/>
      <point x="489.699992537" y="705.799995184"/>
      <point x="645.19999218" y="912.199994564"/>
      <point x="656.699994922" y="929.099998593" type="curve"/>
      <point x="962.899995446" y="1337.80000043" type="line"/>
      <point x="674.299999833" y="1337.80000043" type="line"/>
      <point x="320.700001597" y="860.80000186" type="line" smooth="yes"/>
      <point x="219.100000739" y="723.200000286"/>
      <point x="135.300000787" y="599.200000286"/>
      <point x="135.300000787" y="419.799999475" type="curve" smooth="yes"/>
      <point x="135.300000787" y="159.800000906"/>
      <point x="335.09999907" y="-18.0"/>
    </contour>
    <contour>
      <point x="614.199999094" y="169.199997425" type="curve" smooth="yes"/>
      <point x="460.09999764" y="169.199997425"/>
      <point x="380.49999702" y="267.299998879"/>
      <point x="380.49999702" y="408.899999499" type="curve" smooth="yes"/>
      <point x="380.49999702" y="561.500002265"/>
      <point x="458.700000644" y="655.20000124"/>
      <point x="617.699999213" y="655.20000124" type="curve" smooth="yes"/>
      <point x="782.0" y="655.20000124"/>
      <point x="858.400001049" y="558.500000358"/>
      <point x="858.400001049" y="411.399999619" type="curve" smooth="yes"/>
      <point x="858.400001049" y="269.499998927"/>
      <point x="771.700000405" y="169.199997425"/>
    </contour>
  </outline>
</glyph>
<glyph name="seven" format="1">
  <advance width="1063.3000015"/>
  <unicode hex="0037"/>
  <outline>
    <contour>
      <point x="252.20000267" y="0.100000023842" type="line"/>
      <point x="516.299998403" y="0.100000023842" type="line"/>
      <point x="950.400000334" y="1181.80000234" type="line"/>
      <point x="950.400000334" y="1337.80000043" type="line"/>
      <point x="119.600001812" y="1337.80000043" type="line"/>
      <point x="111.400002718" y="1145.40000319" type="line"/>
      <point x="679.600004673" y="1145.40000319" type="line"/>
    </contour>
  </outline>
</glyph>
<glyph name="eight" format="1">
  <advance width="1246.89999664"/>
  <unicode hex="0038"/>
  <outline>
    <contour>
      <point x="625.69999826" y="-18.0" type="curve" smooth="yes"/>
      <point x="871.999998093" y="-18.0"/>
      <point x="1082.4999975" y="112.099999547"/>
      <point x="1082.4999975" y="357.799999237" type="curve" smooth="yes"/>
      <point x="1082.4999975" y="523.299999595"/>
      <point x="996.799996614" y="641.600000381"/>
      <point x="868.599994898" y="705.200000048" type="curve"/>
      <point x="980.8999964" y="765.199999809"/>
      <point x="1057.69999731" y="862.400000095"/>
      <point x="1057.69999731" y="1013.90000069" type="curve" smooth="yes"/>
      <point x="1057.69999731" y="1243.30000007"/>
      <point x="864.899998307" y="1358.50000036"/>
      <point x="624.899998307" y="1358.50000036" type="curve" smooth="yes"/>
      <point x="386.499998212" y="1358.50000036"/>
      <point x="189.899999261" y="1243.30000007"/>
      <point x="189.899999261" y="1013.90000069" type="curve" smooth="yes"/>
      <point x="189.899999261" y="859.900000215"/>
      <point x="274.900000215" y="762.299999595"/>
      <point x="390.800001383" y="704.899999976" type="curve"/>
      <point x="254.499999642" y="641.100000024"/>
      <point x="164.399999142" y="527.0"/>
      <point x="164.399999142" y="358.699999213" type="curve" smooth="yes"/>
      <point x="164.399999142" y="113.799999475"/>
      <point x="377.899998546" y="-18.0"/>
    </contour>
    <contour>
      <point x="625.69999826" y="145.799998045" type="curve" smooth="yes"/>
      <point x="476.199996471" y="145.799998045"/>
      <point x="389.29999578" y="223.49999845"/>
      <point x="389.29999578" y="353.599999666" type="curve" smooth="yes"/>
      <point x="389.29999578" y="491.100000739"/>
      <point x="490.099996924" y="577.400001049"/>
      <point x="625.69999826" y="612.600001097" type="curve"/>
      <point x="760.599999666" y="577.400001049"/>
      <point x="859.900000691" y="489.300000548"/>
      <point x="859.900000691" y="354.499999642" type="curve" smooth="yes"/>
      <point x="859.900000691" y="222.599998236"/>
      <point x="776.800000191" y="145.799998045"/>
    </contour>
    <contour>
      <point x="625.69999826" y="772.099999309" type="curve"/>
      <point x="486.899996877" y="804.099999547"/>
      <point x="403.499996543" y="885.600000143"/>
      <point x="403.499996543" y="1013.60000086" type="curve" smooth="yes"/>
      <point x="403.499996543" y="1120.10000193"/>
      <point x="497.799997091" y="1188.40000248"/>
      <point x="625.69999826" y="1188.40000248" type="curve" smooth="yes"/>
      <point x="753.799999475" y="1188.40000248"/>
      <point x="844.899999976" y="1120.10000193"/>
      <point x="844.899999976" y="1013.60000086" type="curve" smooth="yes"/>
      <point x="844.899999976" y="885.600000143"/>
      <point x="763.799999714" y="804.099999547"/>
    </contour>
  </outline>
</glyph>
<glyph name="nine" format="1">
  <advance width="1210.89999759"/>
  <unicode hex="0039"/>
  <outline>
    <contour>
      <point x="262.600001335" y="0.0" type="line"/>
      <point x="557.299996972" y="0.0" type="line"/>
      <point x="557.299996972" y="0.0"/>
      <point x="902.199996233" y="464.399998903"/>
      <point x="921.099995732" y="489.599998236" type="curve" smooth="yes"/>
      <point x="1015.29999697" y="619.499999881"/>
      <point x="1097.89999735" y="744.0"/>
      <point x="1097.89999735" y="919.800000906" type="curve" smooth="yes"/>
      <point x="1097.89999735" y="1181.59999943"/>
      <point x="898.09999907" y="1358.50000036"/>
      <point x="609.799999237" y="1358.50000036" type="curve" smooth="yes"/>
      <point x="332.099999547" y="1358.50000036"/>
      <point x="126.800000906" y="1183.69999993"/>
      <point x="126.800000906" y="921.90000093" type="curve" smooth="yes"/>
      <point x="126.800000906" y="670.100001216"/>
      <point x="319.000000954" y="502.400001526"/>
      <point x="569.599999666" y="502.400001526" type="curve" smooth="yes"/>
      <point x="658.700004697" y="502.400001526"/>
      <point x="771.300005078" y="568.400006056"/>
      <point x="789.200004816" y="580.600006342" type="curve"/>
      <point x="742.600005627" y="623.90000546" type="line"/>
      <point x="742.600005627" y="623.90000546"/>
      <point x="609.700004935" y="453.000005007"/>
      <point x="597.500002027" y="436.600001097" type="curve"/>
    </contour>
    <contour>
      <point x="616.399998903" y="678.099999309" type="curve" smooth="yes"/>
      <point x="452.099998116" y="678.099999309"/>
      <point x="373.899997115" y="777.500000119"/>
      <point x="373.899997115" y="927.300000787" type="curve" smooth="yes"/>
      <point x="373.899997115" y="1071.00000143"/>
      <point x="463.299997687" y="1172.20000291"/>
      <point x="620.799998999" y="1172.20000291" type="curve" smooth="yes"/>
      <point x="774.900000453" y="1172.20000291"/>
      <point x="853.600001097" y="1074.10000145"/>
      <point x="853.600001097" y="931.600000858" type="curve" smooth="yes"/>
      <point x="853.600001097" y="775.399998188"/>
      <point x="774.499997497" y="678.099999309"/>
    </contour>
  </outline>
</glyph>
<glyph name="colon" format="1">
  <advance width="620.29999578"/>
  <unicode hex="003A"/>
  <outline>
    <contour>
      <point x="187.599999189" y="-3.40000081062" type="line"/>
      <point x="431.499996305" y="-3.40000081062" type="line"/>
      <point x="431.499996305" y="253.599997044" type="line"/>
      <point x="187.599999189" y="253.599997044" type="line"/>
    </contour>
    <contour>
      <point x="187.599999189" y="769.200001955" type="line"/>
      <point x="431.499996305" y="769.200001955" type="line"/>
      <point x="431.499996305" y="1016.70000017" type="line"/>
      <point x="187.599999189" y="1016.70000017" type="line"/>
    </contour>
  </outline>
</glyph>
<glyph name="semicolon" format="1">
  <advance width="617.299995542"/>
  <unicode hex="003B"/>
  <outline>
    <contour>
      <point x="184.099998355" y="-286.199999809" type="line"/>
      <point x="332.399996042" y="-286.199999809" type="line"/>
      <point x="448.099995971" y="236.599997282" type="line"/>
      <point x="234.299998403" y="236.599997282" type="line"/>
    </contour>
    <contour>
      <point x="203.09999907" y="774.600001812" type="line"/>
      <point x="446.099996209" y="774.600001812" type="line"/>
      <point x="446.099996209" y="1022.20000005" type="line"/>
      <point x="203.09999907" y="1022.20000005" type="line"/>
    </contour>
  </outline>
</glyph>
<glyph name="less" format="1">
  <advance width="1107.40000057"/>
  <unicode hex="003C"/>
  <outline>
    <contour>
      <point x="969.900000215" y="162.999998569" type="line"/>
      <point x="969.900000215" y="162.999998569"/>
      <point x="969.100000262" y="365.399995804"/>
      <point x="968.200000286" y="366.29999578" type="curve" smooth="yes"/>
      <point x="347.499996066" y="644.89999783" type="line"/>
      <point x="970.200000286" y="950.69999969" type="line"/>
      <point x="970.200000286" y="1145.39999723" type="line"/>
      <point x="97.1000002623" y="698.199997187" type="line"/>
      <point x="97.1000002623" y="581.899998546" type="line"/>
    </contour>
  </outline>
</glyph>
<glyph name="greater" format="1">
  <advance width="1108.70000088"/>
  <unicode hex="003E"/>
  <outline>
    <contour>
      <point x="136.100000024" y="165.499998689" type="line"/>
      <point x="1009.30000007" y="581.699998498" type="line"/>
      <point x="1009.30000007" y="697.199997187" type="line"/>
      <point x="136.400000095" y="1147.0999974" type="line"/>
      <point x="136.400000095" y="952.499999881" type="line"/>
      <point x="757.600004196" y="644.89999783" type="line"/>
      <point x="136.100000024" y="368.899995923" type="line"/>
    </contour>
  </outline>
</glyph>
<glyph name="question" format="1">
  <advance width="957.499997258"/>
  <unicode hex="003F"/>
  <outline>
    <contour>
      <point x="501.399996758" y="418.499998927" type="line"/>
      <point x="634.899996877" y="692.700000405"/>
      <point x="836.799996376" y="832.300000548"/>
      <point x="836.799996376" y="1057.00000167" type="curve" smooth="yes"/>
      <point x="836.799996376" y="1267.70000064"/>
      <point x="656.999998569" y="1367.00000095"/>
      <point x="489.899997354" y="1367.00000095" type="curve" smooth="yes"/>
      <point x="351.799999237" y="1367.00000095"/>
      <point x="248.599998474" y="1333.10000145"/>
      <point x="159.999998808" y="1272.30000126" type="curve"/>
      <point x="226.59999752" y="1115.10000288" type="line"/>
      <point x="277.199997187" y="1146.30000269"/>
      <point x="351.799997568" y="1188.90000284"/>
      <point x="465.699997306" y="1188.90000284" type="curve" smooth="yes"/>
      <point x="575.199997902" y="1188.90000284"/>
      <point x="640.699998736" y="1129.80000329"/>
      <point x="641.79999876" y="1029.00000238" type="curve"/>
      <point x="641.79999876" y="867.50000155"/>
      <point x="422.399996758" y="674.699996829"/>
      <point x="395.19999814" y="423.499998689" type="curve"/>
    </contour>
    <contour>
      <point x="449.699998021" y="-7.70000016689" type="curve" smooth="yes"/>
      <point x="529.899998069" y="-7.70000016689"/>
      <point x="586.399997234" y="58.9999995232"/>
      <point x="586.399997234" y="133.999998808" type="curve" smooth="yes"/>
      <point x="586.399997234" y="209.899998069"/>
      <point x="529.899998069" y="276.499997735"/>
      <point x="449.699998021" y="276.499997735" type="curve" smooth="yes"/>
      <point x="367.999998093" y="276.499997735"/>
      <point x="307.199999094" y="209.899998069"/>
      <point x="307.199999094" y="133.999998808" type="curve" smooth="yes"/>
      <point x="307.199999094" y="58.1999995708"/>
      <point x="368.899998069" y="-7.70000016689"/>
    </contour>
  </outline>
</glyph>
<glyph name="at" format="1">
  <advance width="1762.40000486"/>
  <unicode hex="0040"/>
  <outline>
    <contour>
      <point x="864.500002265" y="-128.700002313" type="curve" smooth="yes"/>
      <point x="1037.40000272" y="-128.700002313"/>
      <point x="1220.00000238" y="-89.1000021696"/>
      <point x="1336.30000269" y="-11.200001955" type="curve"/>
      <point x="1294.90000284" y="105.599997044" type="line"/>
      <point x="1174.60000253" y="36.7999968529"/>
      <point x="1014.20000267" y="1.09999668598"/>
      <point x="865.500002265" y="1.09999668598" type="curve" smooth="yes"/>
      <point x="489.200001955" y="1.09999668598"/>
      <point x="298.599999666" y="279.399995565"/>
      <point x="298.599999666" y="586.899999261" type="curve" smooth="yes"/>
      <point x="298.599999666" y="912.000002384"/>
      <point x="516.500002265" y="1233.20000196"/>
      <point x="917.800002575" y="1233.20000196" type="curve" smooth="yes"/>
      <point x="1323.7000016" y="1233.20000196"/>
      <point x="1481.40000486" y="970.800002575"/>
      <point x="1481.40000486" y="719.299999595" type="curve" smooth="yes"/>
      <point x="1481.40000486" y="465.400000095"/>
      <point x="1374.40000534" y="359.199997902"/>
      <point x="1277.00000262" y="359.199997902" type="curve" smooth="yes"/>
      <point x="1216.30000174" y="359.199997902"/>
      <point x="1171.20000219" y="404.599998713"/>
      <point x="1171.20000219" y="473.799999475" type="curve" smooth="yes"/>
      <point x="1171.20000219" y="584.999999762"/>
      <point x="1205.50000226" y="751.000000238"/>
      <point x="1230.80000234" y="932.900000691" type="curve"/>
      <point x="1153.00000215" y="976.30000031"/>
      <point x="1016.40000296" y="1001.50000036"/>
      <point x="929.400002718" y="1001.50000036" type="curve" smooth="yes"/>
      <point x="669.000002384" y="1001.50000036"/>
      <point x="523.300002217" y="766.200000763"/>
      <point x="523.300002217" y="551.39999938" type="curve" smooth="yes"/>
      <point x="523.300002217" y="382.099998116"/>
      <point x="614.000002623" y="237.999998569"/>
      <point x="805.200002193" y="237.999998569" type="curve" smooth="yes"/>
      <point x="967.700001359" y="237.999998569"/>
      <point x="1057.5000025" y="390.099997401"/>
      <point x="1083.90000308" y="488.099999547" type="curve"/>
      <point x="1048.10000265" y="488.099999547" type="line"/>
      <point x="1060.80000257" y="346.599997044"/>
      <point x="1143.04300406" y="238.499998927"/>
      <point x="1276.50000274" y="238.499998927" type="curve" smooth="yes"/>
      <point x="1436.80000401" y="238.499998927"/>
      <point x="1625.80000377" y="396.899999261"/>
      <point x="1625.80000377" y="711.399999619" type="curve" smooth="yes"/>
      <point x="1625.80000377" y="1108.70000064"/>
      <point x="1318.50000346" y="1362.40000105"/>
      <point x="925.200002432" y="1362.40000105" type="curve" smooth="yes"/>
      <point x="471.20000124" y="1362.40000105"/>
      <point x="136.900001168" y="1035.00000024"/>
      <point x="136.900001168" y="592.199999094" type="curve" smooth="yes"/>
      <point x="136.900001168" y="148.39999795"/>
      <point x="438.800001144" y="-128.700002313"/>
    </contour>
    <contour>
      <point x="821.800002098" y="351.499997973" type="curve" smooth="yes"/>
      <point x="725.000001669" y="351.499997973"/>
      <point x="679.100000978" y="435.799997568"/>
      <point x="679.100000978" y="547.099999547" type="curve" smooth="yes"/>
      <point x="679.100000978" y="724.000000238"/>
      <point x="781.700001359" y="893.800000906"/>
      <point x="950.300001979" y="893.800000906" type="curve" smooth="yes"/>
      <point x="1001.10000193" y="893.800000906"/>
      <point x="1081.00000358" y="876.900000691"/>
      <point x="1116.30000365" y="864.800000668" type="curve"/>
      <point x="1076.10000312" y="936.500000834" type="line"/>
      <point x="1075.50000298" y="930.599999428"/>
      <point x="1029.70000327" y="667.600000858"/>
      <point x="1028.90000308" y="661.799999475" type="curve" smooth="yes"/>
      <point x="998.500003219" y="484.699998975"/>
      <point x="959.300002456" y="351.499997973"/>
    </contour>
  </outline>
</glyph>
<glyph name="A" format="1">
  <advance width="1387.99999547"/>
  <unicode hex="0041"/>
  <outline>
    <contour>
      <point x="47.7999999523" y="0.0" type="line"/>
      <point x="328.299995542" y="0.0" type="line"/>
      <point x="482.299996495" y="439.600001574" type="line"/>
      <point x="393.299997449" y="374.600002289" type="line"/>
      <point x="994.999998331" y="374.600002289" type="line"/>
      <point x="903.199999332" y="435.800001621" type="line"/>
      <point x="1063.10000002" y="0.0" type="line"/>
      <point x="1340.19999552" y="0.0" type="line"/>
      <point x="859.699994683" y="1352.20000005" type="line"/>
      <point x="530.100000739" y="1352.20000005" type="line"/>
    </contour>
    <contour>
      <point x="491.499996305" y="476.500000834" type="line"/>
      <point x="720.09999764" y="1189.00000262" type="line"/>
      <point x="675.999997616" y="1189.20000267" type="line"/>
      <point x="892.999999523" y="477.400000811" type="line"/>
      <point x="941.299999118" y="553.899999738" type="line"/>
      <point x="444.499996781" y="553.899999738" type="line"/>
    </contour>
  </outline>
</glyph>
<glyph name="B" format="1">
  <advance width="1293.4000001"/>
  <unicode hex="0042"/>
  <outline>
    <contour>
      <point x="161.800001383" y="0.0" type="line"/>
      <point x="705.400000095" y="0.0" type="line" smooth="yes"/>
      <point x="1009.90000093" y="0.0"/>
      <point x="1200.79999948" y="139.500000358"/>
      <point x="1200.79999948" y="395.799999475" type="curve" smooth="yes"/>
      <point x="1200.79999948" y="603.599999428"/>
      <point x="1057.89999974" y="706.599999666"/>
      <point x="887.099997878" y="751.099999309" type="curve"/>
      <point x="887.099997878" y="691.799999952" type="line"/>
      <point x="1063.60000014" y="756.69999969"/>
      <point x="1151.89999926" y="861.699999928"/>
      <point x="1151.89999926" y="1013.30000031" type="curve" smooth="yes"/>
      <point x="1151.89999926" y="1263.99999952"/>
      <point x="966.800000191" y="1352.20000005"/>
      <point x="634.799999714" y="1352.20000005" type="curve" smooth="yes"/>
      <point x="161.800001383" y="1352.20000005" type="line"/>
    </contour>
    <contour>
      <point x="374.09999764" y="203.199996948" type="line"/>
      <point x="432.399997234" y="142.099997401" type="line"/>
      <point x="432.399997234" y="691.30000031" type="line"/>
      <point x="373.999997616" y="621.20000124" type="line"/>
      <point x="644.699999452" y="621.20000124" type="line" smooth="yes"/>
      <point x="841.10000217" y="621.20000124"/>
      <point x="930.200003624" y="563.000000954"/>
      <point x="930.200003624" y="412.699998975" type="curve" smooth="yes"/>
      <point x="930.200003624" y="264.399997473"/>
      <point x="842.600003004" y="203.199996948"/>
      <point x="657.000000954" y="203.199996948" type="curve" smooth="yes"/>
    </contour>
    <contour>
      <point x="373.899997592" y="800.099998832" type="line"/>
      <point x="432.399997234" y="746.299999356" type="line"/>
      <point x="432.399997234" y="1213.5000025" type="line"/>
      <point x="374.199997663" y="1154.40000296" type="line"/>
      <point x="605.400000811" y="1154.40000296" type="line" smooth="yes"/>
      <point x="798.600002527" y="1154.40000296"/>
      <point x="889.300003409" y="1119.80000257"/>
      <point x="889.300003409" y="976.200001001" type="curve" smooth="yes"/>
      <point x="889.300003409" y="845.099998832"/>
      <point x="809.300001979" y="800.099998832"/>
      <point x="654.300001025" y="800.099998832" type="curve" smooth="yes"/>
    </contour>
  </outline>
</glyph>
<glyph name="C" format="1">
  <advance width="1235.09999979"/>
  <unicode hex="0043"/>
  <outline>
    <contour>
      <point x="772.700000167" y="-18.0" type="curve" smooth="yes"/>
      <point x="897.700001597" y="-18.0"/>
      <point x="1052.50000155" y="12.8000006676"/>
      <point x="1157.79999924" y="63.0" type="curve"/>
      <point x="1106.89999974" y="264.899996877" type="line"/>
      <point x="1026.59999943" y="227.599996805"/>
      <point x="898.800000668" y="199.799996614"/>
      <point x="800.100000024" y="199.799996614" type="curve" smooth="yes"/>
      <point x="578.199995995" y="199.799996614"/>
      <point x="381.799996614" y="328.30000031"/>
      <point x="381.799996614" y="677.699999928" type="curve" smooth="yes"/>
      <point x="381.799996614" y="1016.29999983"/>
      <point x="575.59999609" y="1156.00000334"/>
      <point x="791.799999714" y="1156.00000334" type="curve" smooth="yes"/>
      <point x="892.700000167" y="1156.00000334"/>
      <point x="1004.30000031" y="1128.30000317"/>
      <point x="1088.90000021" y="1080.70000303" type="curve"/>
      <point x="1161.8999995" y="1262.50000012" type="line"/>
      <point x="1056.00000024" y="1330.5999999"/>
      <point x="918.000000477" y="1370.20000005"/>
      <point x="774.299999833" y="1370.20000005" type="curve" smooth="yes"/>
      <point x="427.899998069" y="1370.20000005"/>
      <point x="111.200000763" y="1153.09999764"/>
      <point x="111.200000763" y="681.0" type="curve" smooth="yes"/>
      <point x="111.200000763" y="211.000001431"/>
      <point x="401.899999738" y="-18.0"/>
    </contour>
  </outline>
</glyph>
<glyph name="D" format="1">
  <advance width="1454.49999988"/>
  <unicode hex="0044"/>
  <outline>
    <contour>
      <point x="432.399997234" y="130.999997616" type="line"/>
      <point x="432.399997234" y="1220.30000246" type="line"/>
      <point x="366.399997711" y="1154.40000296" type="line"/>
      <point x="583.299999833" y="1154.40000296" type="line" smooth="yes"/>
      <point x="899.500001788" y="1154.40000296"/>
      <point x="1073.60000324" y="1009.80000257"/>
      <point x="1073.60000324" y="677.699999928" type="curve" smooth="yes"/>
      <point x="1073.60000324" y="373.799997568"/>
      <point x="910.200002432" y="203.199996948"/>
      <point x="609.199999809" y="203.199996948" type="curve" smooth="yes"/>
      <point x="367.299997687" y="203.199996948" type="line"/>
    </contour>
    <contour>
      <point x="161.800001383" y="0.0" type="line"/>
      <point x="598.500000596" y="0.0" type="line" smooth="yes"/>
      <point x="1040.20000029" y="0.0"/>
      <point x="1343.29999912" y="243.399999619"/>
      <point x="1343.29999912" y="682.599999905" type="curve" smooth="yes"/>
      <point x="1343.29999912" y="1138.90000045"/>
      <point x="1021.89999998" y="1352.20000005"/>
      <point x="574.900000453" y="1352.20000005" type="curve" smooth="yes"/>
      <point x="161.800001383" y="1352.20000005" type="line"/>
    </contour>
  </outline>
</glyph>
<glyph name="E" format="1">
  <advance width="1170.59999919"/>
  <unicode hex="0045"/>
  <outline>
    <contour>
      <point x="161.800001383" y="0.0" type="line"/>
      <point x="1033.4999994" y="0.0" type="line"/>
      <point x="1049.69999921" y="203.199996948" type="line"/>
      <point x="360.799998045" y="203.199996948" type="line"/>
      <point x="432.399997234" y="133.299997687" type="line"/>
      <point x="432.399997234" y="685.899999976" type="line"/>
      <point x="359.899998069" y="609.700001121" type="line"/>
      <point x="998.999998569" y="609.700001121" type="line"/>
      <point x="998.999998569" y="807.499998212" type="line"/>
      <point x="360.799998045" y="807.499998212" type="line"/>
      <point x="432.399997234" y="737.09999907" type="line"/>
      <point x="432.399997234" y="1226.400002" type="line"/>
      <point x="360.099998116" y="1154.40000296" type="line"/>
      <point x="1030.39999962" y="1154.40000296" type="line"/>
      <point x="1040.69999945" y="1352.20000005" type="line"/>
      <point x="161.800001383" y="1352.20000005" type="line"/>
    </contour>
  </outline>
</glyph>
<glyph name="F" format="1">
  <advance width="1098.79999781"/>
  <unicode hex="0046"/>
  <outline>
    <contour>
      <point x="161.800001383" y="0.0" type="line"/>
      <point x="432.79999733" y="0.0" type="line"/>
      <point x="432.79999733" y="668.200000048" type="line"/>
      <point x="341.599998474" y="578.700001597" type="line"/>
      <point x="988.999997616" y="578.700001597" type="line"/>
      <point x="988.999997616" y="775.099998593" type="line"/>
      <point x="337.399998426" y="775.099998593" type="line"/>
      <point x="432.79999733" y="703.899999499" type="line"/>
      <point x="432.79999733" y="1229.50000226" type="line"/>
      <point x="332.899998546" y="1145.40000319" type="line"/>
      <point x="1043.59999728" y="1145.40000319" type="line"/>
      <point x="1055.29999721" y="1352.20000005" type="line"/>
      <point x="161.800001383" y="1352.20000005" type="line"/>
    </contour>
  </outline>
</glyph>
<glyph name="G" format="1">
  <advance width="1373.80000067"/>
  <unicode hex="0047"/>
  <outline>
    <contour>
      <point x="760.400000572" y="-18.0" type="curve" smooth="yes"/>
      <point x="943.60000062" y="-18.0"/>
      <point x="1092.1000005" y="16.3999998569"/>
      <point x="1238.70000017" y="79.7999994755" type="curve"/>
      <point x="1238.70000017" y="721.899998784" type="line"/>
      <point x="717.200002909" y="721.899998784" type="line"/>
      <point x="716.300002694" y="524.800001383" type="line"/>
      <point x="1071.00000286" y="524.800001383" type="line"/>
      <point x="1005.00000334" y="590.800000906" type="line"/>
      <point x="1005.00000334" y="150.099997878" type="line"/>
      <point x="1079.00000238" y="270.699996114" type="line"/>
      <point x="1018.9000026" y="239.099996448"/>
      <point x="958.30000031" y="198.899996638"/>
      <point x="774.000001192" y="198.899996638" type="curve" smooth="yes"/>
      <point x="503.799997568" y="198.899996638"/>
      <point x="380.899996638" y="387.699998021"/>
      <point x="380.899996638" y="681.999999762" type="curve" smooth="yes"/>
      <point x="380.899996638" y="980.200000763"/>
      <point x="547.899997354" y="1157.80000329"/>
      <point x="802.599999666" y="1157.80000329" type="curve" smooth="yes"/>
      <point x="917.50000298" y="1157.80000329"/>
      <point x="1030.70000255" y="1124.20000219"/>
      <point x="1146.20000076" y="1067.20000291" type="curve"/>
      <point x="1210.29999983" y="1265.89999998" type="line"/>
      <point x="1073.60000086" y="1336.80000019"/>
      <point x="954.199999809" y="1370.20000005"/>
      <point x="788.500000119" y="1370.20000005" type="curve" smooth="yes"/>
      <point x="410.699998736" y="1370.20000005"/>
      <point x="110.300000787" y="1113.99999857"/>
      <point x="110.300000787" y="679.199999809" type="curve" smooth="yes"/>
      <point x="110.300000787" y="259.000000715"/>
      <point x="357.199999809" y="-18.0"/>
    </contour>
  </outline>
</glyph>
<glyph name="H" format="1">
  <advance width="1451.89999926"/>
  <unicode hex="0048"/>
  <outline>
    <contour>
      <point x="161.400001287" y="0.0" type="line"/>
      <point x="431.999997139" y="0.0" type="line"/>
      <point x="431.999997139" y="668.200000525" type="line"/>
      <point x="355.799997807" y="594.700001597" type="line"/>
      <point x="1098.40000153" y="594.700001597" type="line"/>
      <point x="1019.90000212" y="668.200000525" type="line"/>
      <point x="1019.90000212" y="0.0" type="line"/>
      <point x="1290.49999797" y="0.0" type="line"/>
      <point x="1290.49999797" y="1352.20000005" type="line"/>
      <point x="1019.90000212" y="1352.20000005" type="line"/>
      <point x="1019.90000212" y="722.799999475" type="line"/>
      <point x="1092.80000162" y="796.299998403" type="line"/>
      <point x="354.89999783" y="796.299998403" type="line"/>
      <point x="431.999997139" y="722.799999475" type="line"/>
      <point x="431.999997139" y="1352.20000005" type="line"/>
      <point x="161.400001287" y="1352.20000005" type="line"/>
    </contour>
  </outline>
</glyph>
<glyph name="I" format="1">
  <advance width="822.599996805"/>
  <unicode hex="0049"/>
  <outline>
    <contour>
      <point x="118.399999619" y="1352.20000005" type="line"/>
      <point x="118.399999619" y="1192.00000238" type="line"/>
      <point x="350.599999428" y="1192.00000238" type="line"/>
      <point x="277.800000429" y="1248.90000188" type="line"/>
      <point x="277.800000429" y="99.1999981403" type="line"/>
      <point x="350.199999571" y="160.199997663" type="line"/>
      <point x="118.399999619" y="160.199997663" type="line"/>
      <point x="118.399999619" y="0.0" type="line"/>
      <point x="704.199997187" y="0.0" type="line"/>
      <point x="704.199997187" y="160.199997663" type="line"/>
      <point x="467.099997401" y="160.199997663" type="line"/>
      <point x="548.399996281" y="98.4999982119" type="line"/>
      <point x="548.399996281" y="1251.40000176" type="line"/>
      <point x="467.499997497" y="1192.00000238" type="line"/>
      <point x="704.199997187" y="1192.00000238" type="line"/>
      <point x="704.199997187" y="1352.20000005" type="line"/>
    </contour>
  </outline>
</glyph>
<glyph name="J" format="1">
  <advance width="828.899995685"/>
  <unicode hex="004A"/>
  <outline>
    <contour>
      <point x="206.799996376" y="-212.89999783" type="line"/>
      <point x="485.899997115" y="-212.89999783"/>
      <point x="667.099994302" y="-12.5999996662"/>
      <point x="667.099994302" y="297.699999213" type="curve" smooth="yes"/>
      <point x="667.099994302" y="1352.20000005" type="line"/>
      <point x="396.49999845" y="1352.20000005" type="line"/>
      <point x="396.49999845" y="287.499998689" type="line" smooth="yes"/>
      <point x="396.49999845" y="173.399996042"/>
      <point x="339.499998212" y="2.59999895096"/>
      <point x="171.699997306" y="2.59999895096" type="curve" smooth="yes"/>
      <point x="20.099999547" y="2.59999895096" type="line"/>
      <point x="20.099999547" y="-212.89999783" type="line"/>
    </contour>
  </outline>
</glyph>
<glyph name="K" format="1">
  <advance width="1318.09999716"/>
  <unicode hex="004B"/>
  <outline>
    <contour>
      <point x="161.800001383" y="0.0" type="line"/>
      <point x="432.399997234" y="0.0" type="line"/>
      <point x="432.399997234" y="606.600000381" type="line"/>
      <point x="381.299997449" y="478.800001383" type="line"/>
      <point x="611.499996781" y="675.600001335" type="line"/>
      <point x="511.199997902" y="686.600001097" type="line"/>
      <point x="995.600000381" y="0.0" type="line"/>
      <point x="1307.19999576" y="0.0" type="line"/>
      <point x="707.699994445" y="820.499999404" type="line"/>
      <point x="708.399994612" y="683.000001431" type="line"/>
      <point x="1275.59999585" y="1352.20000005" type="line"/>
      <point x="963.300000548" y="1352.20000005" type="line"/>
      <point x="370.89999783" y="679.999999285" type="line"/>
      <point x="432.399997234" y="670.999999285" type="line"/>
      <point x="432.399997234" y="1352.20000005" type="line"/>
      <point x="161.800001383" y="1352.20000005" type="line"/>
    </contour>
  </outline>
</glyph>
<glyph name="L" format="1">
  <advance width="1085.19999886"/>
  <unicode hex="004C"/>
  <outline>
    <contour>
      <point x="161.800001383" y="0.0" type="line"/>
      <point x="1028.89999855" y="0.0" type="line"/>
      <point x="1041.49999821" y="203.199996948" type="line"/>
      <point x="342.499998212" y="203.199996948" type="line"/>
      <point x="432.399997234" y="113.099997878" type="line"/>
      <point x="432.399997234" y="1352.20000005" type="line"/>
      <point x="161.800001383" y="1352.20000005" type="line"/>
    </contour>
  </outline>
</glyph>
<glyph name="M" format="1">
  <advance width="1779.99999762"/>
  <unicode hex="004D"/>
  <outline>
    <contour>
      <point x="161.800001383" y="0.0" type="line"/>
      <point x="419.099997401" y="0.0" type="line"/>
      <point x="428.099997163" y="535.600012302" type="line"/>
      <point x="411.999997377" y="1025.20000792" type="line"/>
      <point x="364.699998021" y="1025.20000792" type="line"/>
      <point x="787.300000072" y="189.299998403" type="line"/>
      <point x="985.099997878" y="189.299998403" type="line"/>
      <point x="1419.09999979" y="1025.20000792" type="line"/>
      <point x="1370.10000026" y="1025.20000792" type="line"/>
      <point x="1353.00000048" y="538.700012326" type="line"/>
      <point x="1362.00000024" y="0.0" type="line"/>
      <point x="1618.19999623" y="0.0" type="line"/>
      <point x="1600.19999671" y="1352.20000005" type="line"/>
      <point x="1332.8999995" y="1352.20000005" type="line"/>
      <point x="844.39999938" y="394.199994326" type="line"/>
      <point x="936.299998403" y="394.199994326" type="line"/>
      <point x="452.299998164" y="1352.20000005" type="line"/>
      <point x="179.800000906" y="1352.20000005" type="line"/>
    </contour>
  </outline>
</glyph>
<glyph name="N" format="1">
  <advance width="1497.79999948"/>
  <unicode hex="004E"/>
  <outline>
    <contour>
      <point x="161.800001383" y="0.0" type="line"/>
      <point x="428.099996924" y="0.0" type="line"/>
      <point x="428.099996924" y="452.500010371" type="line"/>
      <point x="405.299997211" y="1087.60000515" type="line"/>
      <point x="350.699997783" y="1085.60000467" type="line"/>
      <point x="1039.0000031" y="0.0" type="line"/>
      <point x="1335.99999809" y="0.0" type="line"/>
      <point x="1335.99999809" y="1352.20000005" type="line"/>
      <point x="1069.70000255" y="1352.20000005" type="line"/>
      <point x="1069.70000255" y="779.599992514" type="line"/>
      <point x="1088.50000226" y="251.899995446" type="line"/>
      <point x="1137.20000196" y="252.399995565" type="line"/>
      <point x="448.499996543" y="1352.20000005" type="line"/>
      <point x="161.800001383" y="1352.20000005" type="line"/>
    </contour>
  </outline>
</glyph>
<glyph name="O" format="1">
  <advance width="1557.49999988"/>
  <unicode hex="004F"/>
  <outline>
    <contour>
      <point x="779.799999952" y="196.19999671" type="curve" smooth="yes"/>
      <point x="537.499996543" y="196.19999671"/>
      <point x="381.799996614" y="390.999998093"/>
      <point x="381.799996614" y="672.299999833" type="curve" smooth="yes"/>
      <point x="381.799996614" y="959.900001884"/>
      <point x="539.699996829" y="1154.20000339"/>
      <point x="779.899999976" y="1154.20000339" type="curve" smooth="yes"/>
      <point x="1020.20000315" y="1154.20000339"/>
      <point x="1175.70000327" y="959.700001836"/>
      <point x="1175.70000327" y="672.299999833" type="curve" smooth="yes"/>
      <point x="1175.70000327" y="390.999998093"/>
      <point x="1022.10000336" y="196.19999671"/>
    </contour>
    <contour>
      <point x="779.899999976" y="-18.0" type="curve" smooth="yes"/>
      <point x="1176.00000072" y="-18.0"/>
      <point x="1446.29999912" y="245.500000596"/>
      <point x="1446.29999912" y="673.899999738" type="curve" smooth="yes"/>
      <point x="1446.29999912" y="1108.19999933"/>
      <point x="1172.70000041" y="1370.20000005"/>
      <point x="780.0" y="1370.20000005" type="curve" smooth="yes"/>
      <point x="385.999999285" y="1370.20000005"/>
      <point x="111.200000763" y="1108.59999943"/>
      <point x="111.200000763" y="674.099999785" type="curve" smooth="yes"/>
      <point x="111.200000763" y="244.600000381"/>
      <point x="382.999999046" y="-18.0"/>
    </contour>
  </outline>
</glyph>
<glyph name="P" format="1">
  <advance width="1247.69999778"/>
  <unicode hex="0050"/>
  <outline>
    <contour>
      <point x="161.800001383" y="0.0" type="line"/>
      <point x="432.399997234" y="0.0" type="line"/>
      <point x="432.399997234" y="671.90000093" type="line"/>
      <point x="367.699997544" y="596.900001884" type="line"/>
      <point x="676.999999285" y="596.900001884" type="line" smooth="yes"/>
      <point x="1055.89999688" y="596.900001884"/>
      <point x="1187.29999673" y="754.200001001"/>
      <point x="1187.29999673" y="995.700000882" type="curve" smooth="yes"/>
      <point x="1187.29999673" y="1276.29999959"/>
      <point x="970.199997902" y="1352.20000005"/>
      <point x="677.499999404" y="1352.20000005" type="curve" smooth="yes"/>
      <point x="161.800001383" y="1352.20000005" type="line"/>
    </contour>
    <contour>
      <point x="653.799999952" y="802.79999876" type="curve" smooth="yes"/>
      <point x="370.299997449" y="802.79999876" type="line"/>
      <point x="432.399997234" y="735.399999619" type="line"/>
      <point x="432.399997234" y="1215.30000269" type="line"/>
      <point x="370.299997449" y="1154.40000296" type="line"/>
      <point x="677.699999213" y="1154.40000296" type="line" smooth="yes"/>
      <point x="839.899999499" y="1154.40000296"/>
      <point x="916.700000882" y="1112.00000262"/>
      <point x="916.700000882" y="988.600001097" type="curve" smooth="yes"/>
      <point x="916.700000882" y="865.899998784"/>
      <point x="864.099999547" y="802.79999876"/>
    </contour>
  </outline>
</glyph>
<glyph name="Q" format="1">
  <advance width="1557.49999988"/>
  <unicode hex="0051"/>
  <outline>
    <contour>
      <point x="1162.5000006" y="-452.19999814" type="curve"/>
      <point x="1320.89999807" y="-313.800000191" type="line"/>
      <point x="1213.49999893" y="-206.100000978"/>
      <point x="1114.29999816" y="-37.3000012636"/>
      <point x="1068.89999807" y="40.6999994516" type="curve"/>
      <point x="844.800001621" y="-13.5999994278" type="line"/>
      <point x="922.600001812" y="-158.100000024"/>
      <point x="1058.70000207" y="-376.599998713"/>
    </contour>
    <component base="O"/>
  </outline>
</glyph>
<glyph name="R" format="1">
  <advance width="1325.70000041"/>
  <unicode hex="0052"/>
  <outline>
    <contour>
      <point x="161.800001383" y="0.0" type="line"/>
      <point x="432.399997234" y="0.0" type="line"/>
      <point x="432.399997234" y="625.90000236" type="line"/>
      <point x="369.499997497" y="578.700002551" type="line"/>
      <point x="813.100001216" y="578.700002551" type="line"/>
      <point x="701.300002217" y="632.500002503" type="line"/>
      <point x="815.400002241" y="345.100003362" type="line"/>
      <point x="964.900003552" y="0.0" type="line"/>
      <point x="1249.19999909" y="0.0" type="line"/>
      <point x="1065.89999783" y="403.900003076" type="line"/>
      <point x="934.899998784" y="701.600001335" type="line"/>
      <point x="916.399999142" y="596.90000236" type="line"/>
      <point x="1069.10000002" y="647.700001836"/>
      <point x="1198.49999893" y="732.800002337"/>
      <point x="1198.49999893" y="968.900001407" type="curve" smooth="yes"/>
      <point x="1198.49999893" y="1269.799999"/>
      <point x="999.800001383" y="1352.20000005"/>
      <point x="696.700002074" y="1352.20000005" type="curve" smooth="yes"/>
      <point x="161.800001383" y="1352.20000005" type="line"/>
    </contour>
    <contour>
      <point x="432.399997234" y="693.500000834" type="line"/>
      <point x="432.399997234" y="1214.20000267" type="line"/>
      <point x="372.899997354" y="1154.40000296" type="line"/>
      <point x="708.200001717" y="1154.40000296" type="line" smooth="yes"/>
      <point x="877.200002909" y="1154.40000296"/>
      <point x="928.400003195" y="1089.70000231"/>
      <point x="928.400003195" y="965.200001478" type="curve" smooth="yes"/>
      <point x="928.400003195" y="821.400000334"/>
      <point x="884.50000298" y="757.800000191"/>
      <point x="695.500001073" y="757.800000191" type="curve" smooth="yes"/>
      <point x="367.699997544" y="757.800000191" type="line"/>
    </contour>
  </outline>
</glyph>
<glyph name="S" format="1">
  <advance width="1166.3999989"/>
  <unicode hex="0053"/>
  <outline>
    <contour>
      <point x="572.299999833" y="-18.0" type="curve" smooth="yes"/>
      <point x="856.499998689" y="-18.0"/>
      <point x="1059.19999838" y="114.199998856"/>
      <point x="1060.69999874" y="377.199999094" type="curve" smooth="yes"/>
      <point x="1061.99999905" y="596.499999642"/>
      <point x="951.299997687" y="701.899998546"/>
      <point x="721.799998999" y="780.299998403" type="curve" smooth="yes"/>
      <point x="507.899999022" y="853.699998736" type="line" smooth="yes"/>
      <point x="437.099996686" y="878.099999785"/>
      <point x="398.599996328" y="924.999999762"/>
      <point x="399.199996471" y="996.800001383" type="curve" smooth="yes"/>
      <point x="399.999996662" y="1111.50000322"/>
      <point x="482.999998808" y="1154.20000339"/>
      <point x="618.099999309" y="1154.20000339" type="curve" smooth="yes"/>
      <point x="741.900000453" y="1154.20000339"/>
      <point x="867.800000191" y="1098.60000277"/>
      <point x="953.299998641" y="1060.70000327" type="curve"/>
      <point x="1032.29999793" y="1262.19999981" type="line"/>
      <point x="917.39999938" y="1329.39999938"/>
      <point x="768.599999666" y="1370.20000005"/>
      <point x="609.399999857" y="1370.20000005" type="curve" smooth="yes"/>
      <point x="347.500001311" y="1370.20000005"/>
      <point x="147.900000691" y="1245.30000174"/>
      <point x="146.500000358" y="991.800001383" type="curve" smooth="yes"/>
      <point x="145.600000143" y="802.900001645"/>
      <point x="250.700000405" y="687.000002623"/>
      <point x="414.000000715" y="632.400002241" type="curve" smooth="yes"/>
      <point x="643.200000525" y="556.200001955" type="line" smooth="yes"/>
      <point x="750.700003028" y="519.500000834"/>
      <point x="805.700003028" y="467.300000787"/>
      <point x="805.000002861" y="380.399998903" type="curve" smooth="yes"/>
      <point x="804.100002646" y="250.399997234"/>
      <point x="729.800001383" y="196.19999671"/>
      <point x="581.799999714" y="196.19999671" type="curve" smooth="yes"/>
      <point x="444.399998426" y="196.19999671"/>
      <point x="287.399999857" y="241.299997211"/>
      <point x="208.999999523" y="293.199997663" type="curve"/>
      <point x="129.800000429" y="90.800000906" type="line"/>
      <point x="238.899998784" y="27.300001502"/>
      <point x="388.199997902" y="-18.0"/>
    </contour>
  </outline>
</glyph>
<glyph name="U" format="1">
  <advance width="1422.99999881"/>
  <unicode hex="0055"/>
  <outline>
    <contour>
      <point x="711.39999938" y="-18.0" type="curve" smooth="yes"/>
      <point x="1060.39999986" y="-18.0"/>
      <point x="1276.99999833" y="175.800000906"/>
      <point x="1276.99999833" y="485.500000358" type="curve" smooth="yes"/>
      <point x="1276.99999833" y="1352.20000005" type="line"/>
      <point x="1006.40000248" y="1352.20000005" type="line"/>
      <point x="1006.40000248" y="504.299999833" type="line" smooth="yes"/>
      <point x="1006.40000248" y="301.199997902"/>
      <point x="902.700001597" y="198.899996638"/>
      <point x="711.39999938" y="198.899996638" type="curve" smooth="yes"/>
      <point x="523.999996662" y="198.899996638"/>
      <point x="416.599996328" y="300.39999795"/>
      <point x="416.599996328" y="503.499999881" type="curve" smooth="yes"/>
      <point x="416.599996328" y="1352.20000005" type="line"/>
      <point x="146.000000477" y="1352.20000005" type="line"/>
      <point x="146.000000477" y="486.700000405" type="line" smooth="yes"/>
      <point x="146.000000477" y="174.300001025"/>
      <point x="361.699998975" y="-18.0"/>
    </contour>
  </outline>
</glyph>
<glyph name="V" format="1">
  <advance width="1351.99999762"/>
  <unicode hex="0056"/>
  <outline>
    <contour>
      <point x="524.100001931" y="0.0" type="line"/>
      <point x="826.199995756" y="0.0" type="line"/>
      <point x="1287.59999752" y="1352.20000005" type="line"/>
      <point x="1000.90000212" y="1352.20000005" type="line"/>
      <point x="762.899999499" y="573.799996853" type="line"/>
      <point x="647.199998856" y="180.899997592" type="line"/>
      <point x="712.899998546" y="180.899997592" type="line"/>
      <point x="594.599997997" y="572.399996758" type="line"/>
      <point x="352.99999547" y="1352.20000005" type="line"/>
      <point x="64.4000000954" y="1352.20000005" type="line"/>
    </contour>
  </outline>
</glyph>
<glyph name="W" format="1">
  <advance width="1911.00000119"/>
  <unicode hex="0057"/>
  <outline>
    <contour>
      <point x="407.800002337" y="0.0" type="line"/>
      <point x="661.899998546" y="0.0" type="line"/>
      <point x="980.60000062" y="1063.20000553" type="line"/>
      <point x="935.400000572" y="1063.20000553" type="line"/>
      <point x="1232.30000317" y="0.0" type="line"/>
      <point x="1488.4999994" y="0.0" type="line"/>
      <point x="1875.80000043" y="1352.10000002" type="line"/>
      <point x="1612.00000453" y="1352.10000002" type="line"/>
      <point x="1337.90000141" y="284.799994469" type="line"/>
      <point x="1373.40000153" y="284.799994469" type="line"/>
      <point x="1078.3999989" y="1342.89999926" type="line"/>
      <point x="833.600002289" y="1342.89999926" type="line"/>
      <point x="523.600000143" y="284.999994516" type="line"/>
      <point x="561.700000167" y="284.999994516" type="line"/>
      <point x="299.499996543" y="1352.10000002" type="line"/>
      <point x="35.2000007629" y="1352.10000002" type="line"/>
    </contour>
  </outline>
</glyph>
<glyph name="X" format="1">
  <advance width="1310.99999881"/>
  <unicode hex="0058"/>
  <outline>
    <contour>
      <point x="51.0000026226" y="0.0" type="line"/>
      <point x="327.899998069" y="0.0" type="line"/>
      <point x="671.499999404" y="505.600003004" type="line"/>
      <point x="796.299997211" y="667.099999547" type="line"/>
      <point x="1241.79999709" y="1352.20000005" type="line"/>
      <point x="968.700001359" y="1352.20000005" type="line"/>
      <point x="663.299999356" y="879.899995923" type="line"/>
      <point x="525.600001574" y="720.499999166" type="line"/>
    </contour>
    <contour>
      <point x="970.800001621" y="0.0" type="line"/>
      <point x="1261.59999657" y="0.0" type="line"/>
      <point x="362.999996662" y="1352.20000005" type="line"/>
      <point x="78.2000014782" y="1352.20000005" type="line"/>
    </contour>
  </outline>
</glyph>
<glyph name="Y" format="1">
  <advance width="1245.89999735"/>
  <unicode hex="0059"/>
  <outline>
    <contour>
      <point x="491.700001121" y="0.0" type="line"/>
      <point x="756.899997115" y="0.0" type="line"/>
      <point x="756.899997115" y="620.400000095" type="line"/>
      <point x="704.399997473" y="421.800002098" type="line"/>
      <point x="1200.09999692" y="1352.20000005" type="line"/>
      <point x="921.300001502" y="1352.20000005" type="line"/>
      <point x="581.599999666" y="666.999998331" type="line"/>
      <point x="662.599998713" y="666.999998331" type="line"/>
      <point x="328.999995708" y="1352.20000005" type="line"/>
      <point x="45.8000004292" y="1352.20000005" type="line"/>
      <point x="550.100000739" y="407.700002313" type="line"/>
      <point x="491.700001121" y="615.100000262" type="line"/>
    </contour>
  </outline>
</glyph>
<glyph name="Z" format="1">
  <advance width="1191.2999984"/>
  <unicode hex="005A"/>
  <outline>
    <contour>
      <point x="144.999999762" y="0.0" type="line"/>
      <point x="1076.39999819" y="0.0" type="line"/>
      <point x="1077.49999845" y="203.199996948" type="line"/>
      <point x="406.299994588" y="203.199996948" type="line"/>
      <point x="441.499994159" y="124.099997878" type="line"/>
      <point x="1068.79999852" y="1176.5000025" type="line"/>
      <point x="1067.89999831" y="1352.20000005" type="line"/>
      <point x="155.500000596" y="1352.20000005" type="line"/>
      <point x="155.500000596" y="1154.40000296" type="line"/>
      <point x="841.100002646" y="1154.40000296" type="line"/>
      <point x="799.700003028" y="1234.90000165" type="line"/>
      <point x="144.999999762" y="164.099998116" type="line"/>
    </contour>
  </outline>
</glyph>
<glyph name="bracketleft" format="1">
  <advance width="740.299996257"/>
  <unicode hex="005B"/>
  <outline>
    <contour>
      <point x="188.89999783" y="-125.900004268" type="line"/>
      <point x="188.89999783" y="1425.99999809" type="line"/>
      <point x="617.599997044" y="1425.99999809" type="line"/>
      <point x="617.599997044" y="1255.80000043" type="line"/>
      <point x="418.699994206" y="1255.80000043" type="line"/>
      <point x="418.699994206" y="44.9999933243" type="line"/>
      <point x="617.599997044" y="44.9999933243" type="line"/>
      <point x="617.599997044" y="-125.900004268" type="line"/>
    </contour>
  </outline>
</glyph>
<glyph name="backslash" format="1">
  <advance width="848.400001287"/>
  <unicode hex="005C"/>
  <outline>
    <contour>
      <point x="551.800003052" y="-5.60000133514" type="line"/>
      <point x="100.900000691" y="1337.80000043" type="line"/>
      <point x="316.599997044" y="1337.80000043" type="line"/>
      <point x="763.099999547" y="-5.60000133514" type="line"/>
    </contour>
  </outline>
</glyph>
<glyph name="bracketright" format="1">
  <advance width="740.499996305"/>
  <unicode hex="005D"/>
  <outline>
    <contour>
      <point x="122.999999285" y="-125.900004268" type="line"/>
      <point x="122.999999285" y="44.0999933481" type="line"/>
      <point x="321.900002122" y="44.0999933481" type="line"/>
      <point x="321.900002122" y="1254.90000045" type="line"/>
      <point x="122.999999285" y="1254.90000045" type="line"/>
      <point x="122.999999285" y="1425.99999809" type="line"/>
      <point x="551.599998474" y="1425.99999809" type="line"/>
      <point x="551.599998474" y="-125.900004268" type="line"/>
    </contour>
  </outline>
</glyph>
<glyph name="asciicircum" format="1">
  <advance width="1097.10000384"/>
  <unicode hex="005E"/>
  <outline>
    <contour>
      <point x="58.9000030756" y="498.500001788" type="line"/>
      <point x="475.40000248" y="1352.50000131" type="line"/>
      <point x="594.800001144" y="1352.50000131" type="line"/>
      <point x="1036.80000043" y="498.500001788" type="line"/>
      <point x="841.700003743" y="498.500001788" type="line"/>
      <point x="536.400001764" y="1098.20000553" type="line"/>
      <point x="254.399999857" y="498.500001788" type="line"/>
    </contour>
  </outline>
</glyph>
<glyph name="underscore" format="1">
  <advance width="1011.49999988"/>
  <unicode hex="005F"/>
  <outline>
    <contour>
      <point x="53.3000010252" y="-185.500002503" type="line"/>
      <point x="956.999998569" y="-185.500002503" type="line"/>
      <point x="956.999998569" y="-19.3000046015" type="line"/>
      <point x="53.3000010252" y="-19.3000046015" type="line"/>
    </contour>
  </outline>
</glyph>
<glyph name="grave" format="1">
  <advance width="471.20000577"/>
  <unicode hex="0060"/>
  <outline>
    <contour>
      <point x="305.000003338" y="1090.50000226" type="line"/>
      <point x="459.000000715" y="1090.50000226" type="line"/>
      <point x="283.600001097" y="1450.10000193" type="line"/>
      <point x="-2.99999594688" y="1450.10000193" type="line"/>
    </contour>
  </outline>
</glyph>
<glyph name="a" format="1">
  <advance width="1056.20000052"/>
  <unicode hex="0061"/>
  <outline>
    <contour>
      <point x="416.000000238" y="-17.5999999046" type="curve" smooth="yes"/>
      <point x="556.799999714" y="-17.5999999046"/>
      <point x="689.700000405" y="51.9999990463"/>
      <point x="758.700001836" y="153.900001168" type="curve"/>
      <point x="709.500002265" y="186.30000031" type="line"/>
      <point x="753.200001717" y="0.100000023842" type="line"/>
      <point x="932.199999094" y="0.100000023842" type="line"/>
      <point x="932.199999094" y="659.599999905" type="line" smooth="yes"/>
      <point x="932.199999094" y="932.399999619"/>
      <point x="761.799999475" y="1036.49999917"/>
      <point x="528.899999738" y="1036.49999917" type="curve" smooth="yes"/>
      <point x="409.599999905" y="1036.49999917"/>
      <point x="267.399999857" y="1008.49999893"/>
      <point x="136.100001216" y="953.599999189" type="curve"/>
      <point x="186.600000858" y="791.600001335" type="line"/>
      <point x="290.000000477" y="829.800001621"/>
      <point x="405.600000858" y="857.800001621"/>
      <point x="497.600001097" y="857.800001621" type="curve" smooth="yes"/>
      <point x="614.600002527" y="857.800001621"/>
      <point x="691.600002527" y="810.900000453"/>
      <point x="691.600002527" y="687.69999969" type="curve"/>
      <point x="691.600002527" y="597.099998593" type="line"/>
      <point x="730.600002289" y="634.599998474" type="line"/>
      <point x="510.500002265" y="618.399998903" type="line" smooth="yes"/>
      <point x="248.800000191" y="599.499999404"/>
      <point x="98.2000005245" y="508.199998856"/>
      <point x="98.2000005245" y="285.699999213" type="curve" smooth="yes"/>
      <point x="98.2000005245" y="81.8999999762"/>
      <point x="239.600000143" y="-17.5999999046"/>
    </contour>
    <contour>
      <point x="465.399998665" y="155.699997783" type="curve" smooth="yes"/>
      <point x="380.799998522" y="155.699997783"/>
      <point x="321.799997568" y="202.499997973"/>
      <point x="321.799997568" y="286.699999213" type="curve" smooth="yes"/>
      <point x="321.799997568" y="407.500000119"/>
      <point x="402.899997115" y="451.400001287"/>
      <point x="590.000000715" y="465.800000906" type="curve" smooth="yes"/>
      <point x="718.000002623" y="475.700000644" type="line"/>
      <point x="690.700002551" y="511.300000548" type="line"/>
      <point x="690.700002551" y="225.499999881" type="line"/>
      <point x="729.700002313" y="307.400000572" type="line"/>
      <point x="704.200000286" y="253.699996829"/>
      <point x="578.799999952" y="155.699997783"/>
    </contour>
  </outline>
</glyph>
<glyph name="b" format="1">
  <advance width="1157.10000074"/>
  <unicode hex="0062"/>
  <outline>
    <contour>
      <point x="654.299999356" y="-18.0" type="curve" smooth="yes"/>
      <point x="910.700000167" y="-18.0"/>
      <point x="1069.49999988" y="199.799999475"/>
      <point x="1069.49999988" y="515.699999213" type="curve" smooth="yes"/>
      <point x="1069.49999988" y="817.099999547"/>
      <point x="920.900000215" y="1037.29999912"/>
      <point x="658.699999452" y="1037.29999912" type="curve" smooth="yes"/>
      <point x="512.099998832" y="1037.29999912"/>
      <point x="401.699998021" y="953.599998474"/>
      <point x="339.899998069" y="864.899996877" type="curve"/>
      <point x="369.899998069" y="848.699997306" type="line"/>
      <point x="375.299997926" y="1069.59999776" type="line"/>
      <point x="375.299997926" y="1370.40000057" type="line"/>
      <point x="133.20000124" y="1355.00000072" type="line"/>
      <point x="133.20000124" y="0.899999976158" type="line"/>
      <point x="340.899998069" y="0.899999976158" type="line"/>
      <point x="367.799997807" y="183.200002909" type="line"/>
      <point x="325.499997735" y="166.80000329" type="line"/>
      <point x="382.299997211" y="68.400002718"/>
      <point x="511.399996996" y="-18.0"/>
    </contour>
    <contour>
      <point x="598.100000978" y="167.899997354" type="curve" smooth="yes"/>
      <point x="461.799998999" y="167.899997354"/>
      <point x="370.499997973" y="271.599998713"/>
      <point x="370.499997973" y="524.899999499" type="curve"/>
      <point x="372.199997902" y="755.199999571"/>
      <point x="465.899998069" y="852.30000174"/>
      <point x="603.400001049" y="852.30000174" type="curve" smooth="yes"/>
      <point x="739.400003672" y="852.30000174"/>
      <point x="827.700003266" y="748.299999356"/>
      <point x="827.700003266" y="513.199999332" type="curve" smooth="yes"/>
      <point x="827.700003266" y="276.899999022"/>
      <point x="733.700003505" y="167.899997354"/>
    </contour>
  </outline>
</glyph>
<glyph name="c" format="1">
  <advance width="944.199999809"/>
  <unicode hex="0063"/>
  <outline>
    <contour>
      <point x="578.100000024" y="-18.0" type="curve" smooth="yes"/>
      <point x="755.69999826" y="-18.0"/>
      <point x="835.499998927" y="38.3999993801"/>
      <point x="867.999999046" y="62.1999995708" type="curve"/>
      <point x="835.499999166" y="234.099996924" type="line"/>
      <point x="767.399999857" y="195.699997306"/>
      <point x="692.199999571" y="166.999997377"/>
      <point x="603.099999785" y="171.499997258" type="curve" smooth="yes"/>
      <point x="447.299997211" y="177.799997091"/>
      <point x="329.199997425" y="289.299999356"/>
      <point x="329.199997425" y="509.999999285" type="curve" smooth="yes"/>
      <point x="329.199997425" y="734.699999928"/>
      <point x="456.099997401" y="847.80000186"/>
      <point x="610.799999952" y="847.80000186" type="curve" smooth="yes"/>
      <point x="710.399997711" y="847.80000186"/>
      <point x="782.699997783" y="811.200002909"/>
      <point x="819.199999332" y="789.800002098" type="curve"/>
      <point x="876.999998808" y="957.299999595" type="line"/>
      <point x="797.599999428" y="1010.99999905"/>
      <point x="702.299999595" y="1037.29999912"/>
      <point x="582.100000262" y="1037.29999912" type="curve" smooth="yes"/>
      <point x="304.500000119" y="1037.29999912"/>
      <point x="87.6000008583" y="848.799998283"/>
      <point x="87.6000008583" y="512.699999213" type="curve" smooth="yes"/>
      <point x="87.6000008583" y="173.400000811"/>
      <point x="284.500000358" y="-18.0"/>
    </contour>
  </outline>
</glyph>
<glyph name="d" format="1">
  <advance width="1156.30000055"/>
  <unicode hex="0064"/>
  <outline>
    <contour>
      <point x="509.600001097" y="-17.1000000238" type="curve" smooth="yes"/>
      <point x="710.700001597" y="-17.1000000238"/>
      <point x="789.500002265" y="92.6000010967"/>
      <point x="832.200002432" y="175.000003099" type="curve"/>
      <point x="783.900002837" y="175.400003195" type="line"/>
      <point x="816.000002384" y="0.0" type="line"/>
      <point x="1023.09999931" y="0.0" type="line"/>
      <point x="1023.09999931" y="1370.40000057" type="line"/>
      <point x="781.300002694" y="1355.00000072" type="line"/>
      <point x="781.300002694" y="1053.50000036" type="line"/>
      <point x="791.400002718" y="853.199996233" type="line"/>
      <point x="828.500002503" y="872.599995852" type="line"/>
      <point x="771.100002408" y="972.49999702"/>
      <point x="669.900003076" y="1037.29999912"/>
      <point x="509.300001025" y="1037.29999912" type="curve" smooth="yes"/>
      <point x="246.700000882" y="1037.29999912"/>
      <point x="87.6000008583" y="823.099999309"/>
      <point x="87.6000008583" y="515.199999571" type="curve" smooth="yes"/>
      <point x="87.6000008583" y="198.499999642"/>
      <point x="246.000000477" y="-17.1000000238"/>
    </contour>
    <contour>
      <point x="559.599999666" y="167.899997354" type="curve" smooth="yes"/>
      <point x="413.999997377" y="167.899997354"/>
      <point x="329.399997473" y="273.599999666"/>
      <point x="329.399997473" y="510.499999642" type="curve" smooth="yes"/>
      <point x="329.399997473" y="753.099999785"/>
      <point x="434.899997115" y="850.500001788"/>
      <point x="570.199999571" y="850.500001788" type="curve" smooth="yes"/>
      <point x="709.800001383" y="850.500001788"/>
      <point x="791.500002503" y="758.399999857"/>
      <point x="791.500002503" y="495.499999642" type="curve"/>
      <point x="789.700002551" y="265.199999571"/>
      <point x="706.700002313" y="167.899997354"/>
    </contour>
  </outline>
</glyph>
<glyph name="e" format="1">
  <advance width="1115.3999989"/>
  <unicode hex="0065"/>
  <outline>
    <contour>
      <point x="618.799998999" y="-18.0" type="curve" smooth="yes"/>
      <point x="773.599998713" y="-18.0"/>
      <point x="899.899998307" y="9.80000019073"/>
      <point x="995.69999826" y="69.8999999762" type="curve"/>
      <point x="960.799998283" y="239.299997449" type="line"/>
      <point x="911.399996519" y="216.499996543"/>
      <point x="798.299997211" y="163.59999752"/>
      <point x="641.899998784" y="163.59999752" type="curve" smooth="yes"/>
      <point x="465.899998069" y="163.59999752"/>
      <point x="330.599997282" y="265.099998116"/>
      <point x="331.499997258" y="493.900000453" type="curve"/>
      <point x="283.59999752" y="451.500000834" type="line"/>
      <point x="1015.39999819" y="451.500000834" type="line"/>
      <point x="1015.39999819" y="451.500000834"/>
      <point x="1022.19999814" y="540.799999475"/>
      <point x="1022.19999814" y="557.199999809" type="curve" smooth="yes"/>
      <point x="1022.19999814" y="838.69999969"/>
      <point x="859.199998856" y="1037.29999912"/>
      <point x="584.099999785" y="1037.29999912" type="curve" smooth="yes"/>
      <point x="299.700000882" y="1036.39999914"/>
      <point x="87.6000008583" y="828.199999571"/>
      <point x="87.6000008583" y="509.299999356" type="curve" smooth="yes"/>
      <point x="87.6000008583" y="181.799999714"/>
      <point x="308.400000095" y="-18.0"/>
    </contour>
    <contour>
      <point x="337.199997187" y="565.699998975" type="line"/>
      <point x="338.299997449" y="767.499999642"/>
      <point x="473.099997401" y="860.400001526"/>
      <point x="586.399999857" y="860.400001526" type="curve" smooth="yes"/>
      <point x="711.100001693" y="860.400001526"/>
      <point x="793.100001693" y="764.500000358"/>
      <point x="796.700001597" y="567.499998689" type="curve"/>
      <point x="836.600001812" y="607.499998689" type="line"/>
      <point x="285.399997473" y="607.499998689" type="line"/>
    </contour>
  </outline>
</glyph>
<glyph name="f" format="1">
  <advance width="744.199998856"/>
  <unicode hex="0066"/>
  <outline>
    <contour>
      <point x="223.800001144" y="0.0" type="line"/>
      <point x="465.599997759" y="0.0" type="line"/>
      <point x="465.599997759" y="902.900001168" type="line"/>
      <point x="425.599997759" y="847.000001907" type="line"/>
      <point x="702.499997735" y="847.000001907" type="line"/>
      <point x="702.499997735" y="1012.99999928" type="line"/>
      <point x="416.799998045" y="1012.99999928" type="line"/>
      <point x="465.599997759" y="964.799999952" type="line"/>
      <point x="465.599997759" y="1066.79999995" type="line" smooth="yes"/>
      <point x="465.599997759" y="1202.50000203"/>
      <point x="515.999998093" y="1221.20000219"/>
      <point x="599.799998522" y="1221.20000219" type="curve" smooth="yes"/>
      <point x="640.199998617" y="1221.20000219"/>
      <point x="690.499998927" y="1214.8000021"/>
      <point x="717.499998212" y="1210.30000222" type="curve"/>
      <point x="738.89999783" y="1384.49999964" type="line"/>
      <point x="678.599999428" y="1396.19999933"/>
      <point x="616.699999452" y="1402.99999952"/>
      <point x="556.199999094" y="1402.99999952" type="curve" smooth="yes"/>
      <point x="364.199999809" y="1402.99999952"/>
      <point x="223.800001144" y="1331.19999909"/>
      <point x="223.800001144" y="1047.50000036" type="curve" smooth="yes"/>
      <point x="223.800001144" y="963.0" type="line"/>
      <point x="268.300001025" y="1016.89999926" type="line"/>
      <point x="77.8999999762" y="995.199999332" type="line"/>
      <point x="72.8999999762" y="847.000001907" type="line"/>
      <point x="262.800000906" y="847.000001907" type="line"/>
      <point x="223.800001144" y="906.700001121" type="line"/>
    </contour>
  </outline>
</glyph>
<glyph name="g" format="1">
  <advance width="1154.10000122"/>
  <unicode hex="0067"/>
  <outline>
    <contour>
      <point x="556.500000358" y="184.199997425" type="curve" smooth="yes"/>
      <point x="377.49999845" y="184.199997425"/>
      <point x="312.299997926" y="332.299999833"/>
      <point x="312.299997926" y="522.399999142" type="curve" smooth="yes"/>
      <point x="312.299997926" y="712.09999907"/>
      <point x="389.999998093" y="850.500001788"/>
      <point x="564.900000215" y="850.500001788" type="curve"/>
      <point x="731.600002527" y="850.500001788"/>
      <point x="795.400003195" y="734.500000358"/>
      <point x="795.400003195" y="537.200000286" type="curve" smooth="yes"/>
      <point x="795.400003195" y="501.199998379" type="line"/>
      <point x="793.600003242" y="317.399998665"/>
      <point x="734.200002193" y="184.199997425"/>
    </contour>
    <contour>
      <point x="452.700001121" y="-477.099998355" type="curve" smooth="yes"/>
      <point x="823.60000205" y="-477.099998355"/>
      <point x="1027.30000007" y="-256.099998116"/>
      <point x="1027.30000007" y="109.699999452" type="curve" smooth="yes"/>
      <point x="1027.30000007" y="1012.99999928" type="line"/>
      <point x="812.300002933" y="1012.99999928" type="line"/>
      <point x="794.800003052" y="835.899998069" type="line"/>
      <point x="829.400002956" y="843.999997854" type="line"/>
      <point x="773.400003195" y="985.399997711"/>
      <point x="660.700003028" y="1037.29999912"/>
      <point x="522.400001526" y="1037.29999912" type="curve" smooth="yes"/>
      <point x="276.099998832" y="1037.29999912"/>
      <point x="70.5000013113" y="841.699997067"/>
      <point x="70.5000013113" y="515.199999094" type="curve" smooth="yes"/>
      <point x="70.5000013113" y="219.000001431"/>
      <point x="247.499999881" y="0.0"/>
      <point x="513.800001383" y="0.0" type="curve" smooth="yes"/>
      <point x="660.300003409" y="0.0"/>
      <point x="790.900003314" y="49.3000024557"/>
      <point x="839.300002933" y="242.000000715" type="curve"/>
      <point x="792.700003266" y="250.800000429" type="line"/>
      <point x="792.700003266" y="17.9000018835" type="line" smooth="yes"/>
      <point x="792.700003266" y="-161.100000739"/>
      <point x="671.000003576" y="-286.500001073"/>
      <point x="449.700000882" y="-286.500001073" type="curve" smooth="yes"/>
      <point x="443.400000572" y="-286.500001073"/>
      <point x="410.09849163" y="-286.616542279"/>
      <point x="216.000001907" y="-281.300001025" type="curve"/>
      <point x="216.000001907" y="-471.899998307" type="line"/>
      <point x="436.49834443" y="-477.244455773"/>
      <point x="445.100000978" y="-477.099998355"/>
    </contour>
  </outline>
</glyph>
<glyph name="h" format="1">
  <advance width="1137.5999999"/>
  <unicode hex="0068"/>
  <outline>
    <contour>
      <point x="133.20000124" y="0.0" type="line"/>
      <point x="372.299997926" y="0.0" type="line"/>
      <point x="372.299997926" y="498.600001812" type="line" smooth="yes"/>
      <point x="372.299997926" y="701.60000062"/>
      <point x="415.899998546" y="851.400001764"/>
      <point x="612.000000238" y="851.400001764" type="curve" smooth="yes"/>
      <point x="732.300001502" y="851.400001764"/>
      <point x="772.60000205" y="778.700000882"/>
      <point x="772.60000205" y="616.799999714" type="curve" smooth="yes"/>
      <point x="772.60000205" y="0.0" type="line"/>
      <point x="1014.39999866" y="0.0" type="line"/>
      <point x="1014.39999866" y="637.399999142" type="line" smooth="yes"/>
      <point x="1014.39999866" y="911.299998403"/>
      <point x="878.599999428" y="1037.29999912"/>
      <point x="663.999999285" y="1037.29999912" type="curve" smooth="yes"/>
      <point x="516.099998355" y="1037.29999912"/>
      <point x="386.099998116" y="961.299998879"/>
      <point x="317.999998331" y="847.499997497" type="curve"/>
      <point x="365.39999795" y="828.499997735" type="line"/>
      <point x="374.999997854" y="1094.69999826" type="line"/>
      <point x="374.999997854" y="1370.40000057" type="line"/>
      <point x="133.20000124" y="1355.00000072" type="line"/>
    </contour>
  </outline>
</glyph>
<glyph name="i" format="1">
  <advance width="515.899998784"/>
  <unicode hex="0069"/>
  <outline>
    <contour>
      <point x="141.300001025" y="0.0" type="line"/>
      <point x="383.09999764" y="0.0" type="line"/>
      <point x="383.09999764" y="1012.99999928" type="line"/>
      <point x="141.300001025" y="1012.99999928" type="line"/>
    </contour>
    <contour>
      <point x="141.300001025" y="1162.20000124" type="line"/>
      <point x="383.09999764" y="1162.20000124" type="line"/>
      <point x="383.09999764" y="1352.20000005" type="line"/>
      <point x="141.300001025" y="1352.20000005" type="line"/>
    </contour>
  </outline>
</glyph>
<glyph name="j" format="1">
  <advance width="555.899998546"/>
  <unicode hex="006A"/>
  <outline>
    <contour>
      <point x="1.10000121593" y="-382.200000763" type="line"/>
      <point x="59.0000007153" y="-382.200000763" type="line" smooth="yes"/>
      <point x="364.699997783" y="-382.200000763"/>
      <point x="425.499997497" y="-251.900002837"/>
      <point x="425.499997497" y="22.0999957323" type="curve" smooth="yes"/>
      <point x="425.499997497" y="1013.89999926" type="line"/>
      <point x="186.200000763" y="1013.89999926" type="line"/>
      <point x="186.200000763" y="-12.0000019073" type="line" smooth="yes"/>
      <point x="186.200000763" y="-161.100002885"/>
      <point x="174.400001049" y="-198.600002766"/>
      <point x="33.2000010014" y="-198.600002766" type="curve" smooth="yes"/>
      <point x="-26.2999984026" y="-198.600002766" type="line"/>
    </contour>
    <contour>
      <point x="186.200000763" y="1162.20000124" type="line"/>
      <point x="425.499997497" y="1162.20000124" type="line"/>
      <point x="425.499997497" y="1352.20000005" type="line"/>
      <point x="186.200000763" y="1352.20000005" type="line"/>
    </contour>
  </outline>
</glyph>
<glyph name="k" format="1">
  <advance width="1090.29999816"/>
  <unicode hex="006B"/>
  <outline>
    <contour>
      <point x="133.20000124" y="0.0" type="line"/>
      <point x="374.999997854" y="0.0" type="line"/>
      <point x="374.999997854" y="418.199999332" type="line"/>
      <point x="317.799998522" y="297.400000811" type="line"/>
      <point x="505.699998498" y="475.300000548" type="line"/>
      <point x="434.499998927" y="475.300000548" type="line"/>
      <point x="793.400001526" y="0.0" type="line"/>
      <point x="1077.4999975" y="0.0" type="line"/>
      <point x="613.999995947" y="609.099998593" type="line"/>
      <point x="613.999995947" y="501.300000072" type="line"/>
      <point x="1055.29999793" y="1012.99999928" type="line"/>
      <point x="751.300002456" y="1012.99999928" type="line"/>
      <point x="326.299998164" y="519.599997759" type="line"/>
      <point x="368.099997878" y="519.599997759" type="line"/>
      <point x="374.999997854" y="772.199996948" type="line"/>
      <point x="374.999997854" y="1370.40000057" type="line"/>
      <point x="133.20000124" y="1355.00000072" type="line"/>
    </contour>
  </outline>
</glyph>
<glyph name="l" format="1">
  <advance width="667.799997091"/>
  <unicode hex="006C"/>
  <outline>
    <contour>
      <point x="505.799998045" y="-12.6999999285" type="curve" smooth="yes"/>
      <point x="579.699997783" y="-12.6999999285"/>
      <point x="644.999997377" y="4.19999980927"/>
      <point x="653.299997687" y="7.19999980927" type="curve"/>
      <point x="653.299997687" y="176.999997377" type="line"/>
      <point x="633.499997973" y="175.099997401"/>
      <point x="575.19999814" y="167.299997449"/>
      <point x="543.799997568" y="167.299997449" type="curve" smooth="yes"/>
      <point x="454.899996638" y="167.299997449"/>
      <point x="376.799997807" y="191.099998116"/>
      <point x="376.799997807" y="375.399996281" type="curve" smooth="yes"/>
      <point x="376.799997807" y="1370.40000057" type="line"/>
      <point x="135.000001192" y="1355.00000072" type="line"/>
      <point x="135.000001192" y="385.099996209" type="line" smooth="yes"/>
      <point x="135.000001192" y="114.399997711"/>
      <point x="244.30000174" y="-12.6999999285"/>
    </contour>
  </outline>
</glyph>
<glyph name="m" format="1">
  <advance width="1694.29999936"/>
  <unicode hex="006D"/>
  <outline>
    <contour>
      <point x="133.20000124" y="0.0" type="line"/>
      <point x="374.999997854" y="0.0" type="line"/>
      <point x="374.999997854" y="509.900003791" type="line" smooth="yes"/>
      <point x="378.499998689" y="704.800002575"/>
      <point x="410.200000763" y="851.400001764"/>
      <point x="590.799999952" y="851.400001764" type="curve" smooth="yes"/>
      <point x="711.500000834" y="851.400001764"/>
      <point x="734.200001478" y="759.500001311"/>
      <point x="734.200001478" y="585.499998927" type="curve" smooth="yes"/>
      <point x="734.200001478" y="0.0" type="line"/>
      <point x="975.999998093" y="0.0" type="line"/>
      <point x="975.999998093" y="583.899997115" type="line"/>
      <point x="981.120578565" y="635.771906757"/>
      <point x="988.275550578" y="680.130801969"/>
      <point x="1001.01419469" y="715.566687668" type="curve" smooth="yes"/>
      <point x="1029.37691502" y="800.370929691"/>
      <point x="1086.07069771" y="851.400001764"/>
      <point x="1182.80000043" y="851.400001764" type="curve" smooth="yes"/>
      <point x="1306.9000026" y="851.400001764"/>
      <point x="1329.3000015" y="755.199998379"/>
      <point x="1329.3000015" y="577.199999571" type="curve" smooth="yes"/>
      <point x="1329.3000015" y="0.0" type="line"/>
      <point x="1571.09999812" y="0.0" type="line"/>
      <point x="1571.09999812" y="645.299999833" type="line" smooth="yes"/>
      <point x="1571.09999812" y="895.199999571"/>
      <point x="1467.89999831" y="1037.29999912"/>
      <point x="1237.79999924" y="1037.29999912" type="curve" smooth="yes"/>
      <point x="1101.79999781" y="1037.29999912"/>
      <point x="982.699998021" y="971.599997759"/>
      <point x="903.899998546" y="835.699997306" type="curve"/>
      <point x="958.199997902" y="835.699997306" type="line"/>
      <point x="899.399998665" y="968.499997258"/>
      <point x="817.999999285" y="1037.29999912"/>
      <point x="658.69999826" y="1037.29999912" type="curve" smooth="yes"/>
      <point x="481.999998808" y="1037.29999912"/>
      <point x="372.599998713" y="945.599998951"/>
      <point x="313.399998426" y="842.099997878" type="curve"/>
      <point x="364.999998093" y="835.599997759" type="line"/>
      <point x="329.599998474" y="1012.99999928" type="line"/>
      <point x="133.20000124" y="1012.99999928" type="line"/>
    </contour>
  </outline>
</glyph>
<glyph name="n" format="1">
  <advance width="1170.29999888"/>
  <unicode hex="006E"/>
  <outline>
    <contour>
      <point x="133.20000124" y="0.0" type="line"/>
      <point x="374.999997854" y="0.0" type="line"/>
      <point x="374.999997854" y="504.300001979" type="line" smooth="yes"/>
      <point x="374.999997854" y="712.600000858"/>
      <point x="440.199997902" y="851.400001764"/>
      <point x="641.699999452" y="851.400001764" type="curve" smooth="yes"/>
      <point x="772.500000596" y="851.400001764"/>
      <point x="804.500001073" y="765.500001073"/>
      <point x="805.300001025" y="613.800000429" type="curve"/>
      <point x="805.300001025" y="0.0" type="line"/>
      <point x="1047.09999764" y="0.0" type="line"/>
      <point x="1047.09999764" y="635.399998903" type="line" smooth="yes"/>
      <point x="1047.09999764" y="889.199999571"/>
      <point x="935.39999795" y="1037.29999912"/>
      <point x="701.299998164" y="1037.29999912" type="curve" smooth="yes"/>
      <point x="522.499997735" y="1037.29999912"/>
      <point x="399.599997997" y="958.099998832"/>
      <point x="314.999998808" y="835.499998689" type="curve"/>
      <point x="365.199998379" y="835.499998689" type="line"/>
      <point x="330.899998784" y="1012.99999928" type="line"/>
      <point x="133.20000124" y="1012.99999928" type="line"/>
    </contour>
  </outline>
</glyph>
<glyph name="o" format="1">
  <advance width="1166.19999957"/>
  <unicode hex="006F"/>
  <outline>
    <contour>
      <point x="583.099999785" y="166.999997377" type="curve" smooth="yes"/>
      <point x="424.099997878" y="166.999997377"/>
      <point x="329.199997425" y="287.799999237"/>
      <point x="329.199997425" y="509.599999428" type="curve" smooth="yes"/>
      <point x="329.199997425" y="729.599999905"/>
      <point x="425.89999783" y="851.400001764"/>
      <point x="583.099999785" y="851.400001764" type="curve" smooth="yes"/>
      <point x="742.700001836" y="851.400001764"/>
      <point x="837.000002146" y="729.499999881"/>
      <point x="837.000002146" y="509.499999404" type="curve" smooth="yes"/>
      <point x="837.000002146" y="285.999999285"/>
      <point x="742.100001931" y="166.999997377"/>
    </contour>
    <contour>
      <point x="583.099999785" y="-18.0" type="curve" smooth="yes"/>
      <point x="887.099998832" y="-18.0"/>
      <point x="1078.59999871" y="186.800000429"/>
      <point x="1078.59999871" y="509.799999475" type="curve" smooth="yes"/>
      <point x="1078.59999871" y="830.499998927"/>
      <point x="879.69999969" y="1037.29999912"/>
      <point x="583.099999785" y="1037.29999912" type="curve" smooth="yes"/>
      <point x="277.400000334" y="1037.29999912"/>
      <point x="87.6000008583" y="837.199998617"/>
      <point x="87.6000008583" y="509.799999475" type="curve" smooth="yes"/>
      <point x="87.6000008583" y="191.000000238"/>
      <point x="289.100000024" y="-18.0"/>
    </contour>
  </outline>
</glyph>
<glyph name="p" format="1">
  <advance width="1159.00000048"/>
  <unicode hex="0070"/>
  <outline>
    <contour>
      <point x="135.900001168" y="-412.100000978" type="line"/>
      <point x="377.699997783" y="-399.600001097" type="line"/>
      <point x="377.699997783" y="-21.6000015736" type="line"/>
      <point x="371.09999764" y="197.100003362" type="line"/>
      <point x="323.699998021" y="172.500003219" type="line"/>
      <point x="361.999998331" y="100.300001025"/>
      <point x="474.099998593" y="-18.0"/>
      <point x="653.199999571" y="-18.0" type="curve" smooth="yes"/>
      <point x="913.999999762" y="-18.0"/>
      <point x="1071.39999962" y="205.099999547"/>
      <point x="1071.39999962" y="510.299999356" type="curve" smooth="yes"/>
      <point x="1071.39999962" y="805.399999857"/>
      <point x="923.199999809" y="1037.29999912"/>
      <point x="671.299998879" y="1037.29999912" type="curve" smooth="yes"/>
      <point x="537.399997473" y="1037.29999912"/>
      <point x="399.799997807" y="973.299997687"/>
      <point x="318.099998593" y="831.499997258" type="curve"/>
      <point x="376.999997616" y="830.999997139" type="line"/>
      <point x="343.899998069" y="1012.99999928" type="line"/>
      <point x="135.900001168" y="1012.99999928" type="line"/>
    </contour>
    <contour>
      <point x="608.600000381" y="167.899997354" type="curve" smooth="yes"/>
      <point x="458.199998856" y="167.899997354"/>
      <point x="375.599997759" y="273.499999166"/>
      <point x="375.599997759" y="527.499999404" type="curve"/>
      <point x="377.399997711" y="753.099999547"/>
      <point x="459.19999814" y="851.400001764"/>
      <point x="606.200000763" y="851.400001764" type="curve" smooth="yes"/>
      <point x="743.700003266" y="851.400001764"/>
      <point x="829.600003004" y="743.799999475"/>
      <point x="829.600003004" y="512.299999356" type="curve" smooth="yes"/>
      <point x="829.600003004" y="285.899998784"/>
      <point x="744.800002813" y="167.899997354"/>
    </contour>
  </outline>
</glyph>
<glyph name="q" format="1">
  <advance width="1160.50000155"/>
  <unicode hex="0071"/>
  <outline>
    <contour>
      <point x="785.700003743" y="-412.100000978" type="line"/>
      <point x="1027.30000031" y="-398.000001192" type="line"/>
      <point x="1027.30000031" y="1012.99999928" type="line"/>
      <point x="814.200003147" y="1012.99999928" type="line"/>
      <point x="789.600003242" y="831.399997711" type="line"/>
      <point x="837.000002623" y="846.999997377" type="line"/>
      <point x="785.200002432" y="936.899999022"/>
      <point x="696.000001669" y="1037.29999912"/>
      <point x="512.900001407" y="1037.29999912" type="curve" smooth="yes"/>
      <point x="239.700001121" y="1037.29999912"/>
      <point x="87.6000008583" y="814.199999332"/>
      <point x="87.6000008583" y="509.799999237" type="curve" smooth="yes"/>
      <point x="87.6000008583" y="200.999999762"/>
      <point x="256.800001144" y="-18.0"/>
      <point x="516.000001192" y="-18.0" type="curve" smooth="yes"/>
      <point x="672.700003743" y="-18.0"/>
      <point x="775.300003886" y="60.7000020742"/>
      <point x="846.000003099" y="188.100002646" type="curve"/>
      <point x="791.800003767" y="207.800002575" type="line"/>
      <point x="785.700003743" y="4.19999718666" type="line"/>
    </contour>
    <contour>
      <point x="558.900000453" y="166.099997401" type="curve" smooth="yes"/>
      <point x="415.699998021" y="166.099997401"/>
      <point x="329.199997425" y="279.399999142"/>
      <point x="329.199997425" y="509.199999571" type="curve" smooth="yes"/>
      <point x="329.199997425" y="742.299999595"/>
      <point x="417.599997759" y="850.500001788"/>
      <point x="556.400000572" y="850.500001788" type="curve" smooth="yes"/>
      <point x="712.100003123" y="850.500001788"/>
      <point x="793.900003314" y="746.0"/>
      <point x="793.900003314" y="498.500000834" type="curve"/>
      <point x="791.500003457" y="261.999999762"/>
      <point x="711.200003624" y="166.099997401"/>
    </contour>
  </outline>
</glyph>
<glyph name="r" format="1">
  <advance width="782.099999309"/>
  <unicode hex="0072"/>
  <outline>
    <contour>
      <point x="135.000001192" y="0.0" type="line"/>
      <point x="376.799997807" y="0.0" type="line"/>
      <point x="376.799997807" y="552.700000405" type="line" smooth="yes"/>
      <point x="376.799997807" y="711.100000978"/>
      <point x="483.099998593" y="817.300002456"/>
      <point x="655.399998665" y="817.300002456" type="curve" smooth="yes"/>
      <point x="680.699998498" y="817.300002456"/>
      <point x="705.599998474" y="815.300002456"/>
      <point x="737.299998164" y="809.40000248" type="curve"/>
      <point x="741.69999826" y="1012.79999948" type="line"/>
      <point x="715.399998426" y="1018.4999994"/>
      <point x="693.69999826" y="1018.69999945"/>
      <point x="669.999998093" y="1018.69999945" type="curve" smooth="yes"/>
      <point x="550.89999783" y="1018.69999945"/>
      <point x="413.89999783" y="950.09999907"/>
      <point x="320.799998283" y="795.399997711" type="curve"/>
      <point x="375.59999752" y="785.099997878" type="line"/>
      <point x="337.999998093" y="1012.99999928" type="line"/>
      <point x="135.000001192" y="1012.99999928" type="line"/>
    </contour>
  </outline>
</glyph>
<glyph name="s" format="1">
  <advance width="937.399998903"/>
  <unicode hex="0073"/>
  <outline>
    <contour>
      <point x="477.899999261" y="-17.1000000238" type="curve" smooth="yes"/>
      <point x="712.999998569" y="-17.1000000238"/>
      <point x="849.099998355" y="96.1927693307"/>
      <point x="849.099998355" y="299.799998522" type="curve" smooth="yes"/>
      <point x="849.099998355" y="458.299998164"/>
      <point x="752.299999595" y="529.399998426"/>
      <point x="577.699998021" y="604.999998331" type="curve" smooth="yes"/>
      <point x="517.799996853" y="630.699998498" type="line" smooth="yes"/>
      <point x="391.098896686" y="686.225098146"/>
      <point x="345.49999702" y="703.79999876"/>
      <point x="345.49999702" y="766.899999738" type="curve" smooth="yes"/>
      <point x="345.49999702" y="829.100000501"/>
      <point x="402.599997759" y="860.400001526"/>
      <point x="496.199999571" y="860.400001526" type="curve" smooth="yes"/>
      <point x="586.799999952" y="860.400001526"/>
      <point x="687.399998903" y="825.80000186"/>
      <point x="759.899998546" y="789.900002122" type="curve"/>
      <point x="815.099997878" y="953.200000048" type="line"/>
      <point x="714.299998403" y="1003.49999964"/>
      <point x="608.499999404" y="1037.29999912"/>
      <point x="486.899999499" y="1037.29999912" type="curve" smooth="yes"/>
      <point x="263.499999642" y="1037.29999912"/>
      <point x="131.200000048" y="934.699998736"/>
      <point x="131.200000048" y="747.499999881" type="curve"/>
      <point x="132.100000024" y="591.19950124"/>
      <point x="205.899999261" y="528.300000548"/>
      <point x="375.899999738" y="451.500001073" type="curve"/>
      <point x="432.90000093" y="425.000000954" type="line" smooth="yes"/>
      <point x="559.9069026" y="365.223301007"/>
      <point x="621.600001812" y="340.900000215"/>
      <point x="621.600001812" y="271.999999285" type="curve"/>
      <point x="619.80000186" y="196.599998236"/>
      <point x="581.300001025" y="159.799997568"/>
      <point x="478.599999428" y="157.09999764" type="curve" smooth="yes"/>
      <point x="374.599998474" y="154.399997711"/>
      <point x="240.399999857" y="214.099996924"/>
      <point x="167.800000429" y="260.899996161" type="curve"/>
      <point x="124.300000787" y="92.699998498" type="line"/>
      <point x="146.20000124" y="76.3999984264"/>
      <point x="289.000000715" y="-17.1000000238"/>
    </contour>
  </outline>
</glyph>
<glyph name="t" format="1">
  <advance width="824.999997854"/>
  <unicode hex="0074"/>
  <outline>
    <contour>
      <point x="562.499997973" y="-12.6999999285" type="curve" smooth="yes"/>
      <point x="665.799997807" y="-12.6999999285"/>
      <point x="758.999996901" y="15.7999997139"/>
      <point x="766.19999671" y="18.4999996424" type="curve"/>
      <point x="766.19999671" y="179.699997306" type="line"/>
      <point x="761.699996829" y="176.999997377"/>
      <point x="671.79999733" y="161.59999752"/>
      <point x="612.099997163" y="161.59999752" type="curve" smooth="yes"/>
      <point x="513.199997187" y="161.59999752"/>
      <point x="450.899997115" y="210.399997234"/>
      <point x="450.899997115" y="373.899997115" type="curve" smooth="yes"/>
      <point x="450.899997115" y="905.500001073" type="line"/>
      <point x="411.899997354" y="858.700001597" type="line"/>
      <point x="728.699997783" y="858.700001597" type="line"/>
      <point x="728.699997783" y="1012.99999928" type="line"/>
      <point x="410.999997377" y="1012.99999928" type="line"/>
      <point x="450.899997115" y="961.499999881" type="line"/>
      <point x="450.899997115" y="1265.19999933" type="line"/>
      <point x="279.599999666" y="1264.69999921" type="line"/>
      <point x="211.900000453" y="968.0" type="line"/>
      <point x="281.199999332" y="1015.99999928" type="line"/>
      <point x="63.0000007153" y="1001.29999936" type="line"/>
      <point x="50.400001049" y="859.600001574" type="line"/>
      <point x="248.100000262" y="859.600001574" type="line"/>
      <point x="209.100000501" y="906.500001073" type="line"/>
      <point x="209.100000501" y="378.899996877" type="line"/>
      <point x="210.000000477" y="120.199998617"/>
      <point x="307.200000763" y="-12.6999999285"/>
    </contour>
  </outline>
</glyph>
<glyph name="v" format="1">
  <advance width="1062.89999831"/>
  <unicode hex="0076"/>
  <outline>
    <contour>
      <point x="424.700000405" y="0.0" type="line"/>
      <point x="658.199997425" y="0.0" type="line"/>
      <point x="1033.29999745" y="1012.99999928" type="line"/>
      <point x="780.800001144" y="1012.99999928" type="line"/>
      <point x="601.30000031" y="464.799998522" type="line"/>
      <point x="524.199998856" y="191.8999964" type="line"/>
      <point x="566.699998736" y="191.8999964" type="line"/>
      <point x="477.09999764" y="465.399998426" type="line"/>
      <point x="284.799997091" y="1012.99999928" type="line"/>
      <point x="29.6000008583" y="1012.99999928" type="line"/>
    </contour>
  </outline>
</glyph>
<glyph name="w" format="1">
  <advance width="1542.59999752"/>
  <unicode hex="0077"/>
  <outline>
    <contour>
      <point x="319.200000525" y="0.0" type="line"/>
      <point x="549.79999733" y="0.0" type="line"/>
      <point x="793.099998593" y="839.200002909" type="line"/>
      <point x="750.09999907" y="839.200002909" type="line"/>
      <point x="983.800001383" y="0.0" type="line"/>
      <point x="1214.49999774" y="0.0" type="line"/>
      <point x="1512.59999657" y="1012.99999928" type="line"/>
      <point x="1281.20000005" y="1012.99999928" type="line"/>
      <point x="1075.89999974" y="217.199995756" type="line"/>
      <point x="1113.39999962" y="217.199995756" type="line"/>
      <point x="895.399997234" y="1012.99999928" type="line"/>
      <point x="653.800000191" y="1012.99999928" type="line"/>
      <point x="429.199998617" y="217.199995756" type="line"/>
      <point x="462.899998546" y="217.199995756" type="line"/>
      <point x="264.499997497" y="1012.99999928" type="line"/>
      <point x="30.0000009537" y="1012.99999928" type="line"/>
    </contour>
  </outline>
</glyph>
<glyph name="x" format="1">
  <advance width="1078.99999762"/>
  <unicode hex="0078"/>
  <outline>
    <contour>
      <point x="35.0000002384" y="0.0" type="line"/>
      <point x="304.999996424" y="0.0" type="line"/>
      <point x="558.599998713" y="378.600001574" type="line"/>
      <point x="654.999997139" y="467.899999976" type="line"/>
      <point x="1029.69999731" y="1012.99999928" type="line"/>
      <point x="759.700001121" y="1012.99999928" type="line"/>
      <point x="517.699998975" y="653.399996996" type="line"/>
      <point x="417.200000763" y="559.799998999" type="line"/>
    </contour>
    <contour>
      <point x="767.90000093" y="0.0" type="line"/>
      <point x="1042.19999695" y="0.0" type="line"/>
      <point x="323.19999671" y="1012.99999928" type="line"/>
      <point x="51.4000005722" y="1012.99999928" type="line"/>
    </contour>
  </outline>
</glyph>
<glyph name="y" format="1">
  <advance width="1050.89999878"/>
  <unicode hex="0079"/>
  <outline>
    <contour>
      <point x="511.399997711" y="-375.799999952" type="line"/>
      <point x="1022.49999821" y="1012.99999928" type="line"/>
      <point x="772.400002003" y="1012.99999928" type="line"/>
      <point x="528.199999571" y="230.599996805" type="line"/>
      <point x="576.499999166" y="230.599996805" type="line"/>
      <point x="297.199997187" y="1012.99999928" type="line"/>
      <point x="47.2000007629" y="1012.99999928" type="line"/>
      <point x="462.90000093" y="-44.3999996185" type="line"/>
      <point x="462.90000093" y="98.3999993801" type="line"/>
      <point x="290.600001097" y="-346.500000358" type="line"/>
    </contour>
  </outline>
</glyph>
<glyph name="z" format="1">
  <advance width="952.499997497"/>
  <unicode hex="007A"/>
  <outline>
    <contour>
      <point x="105.000000238" y="0.0" type="line"/>
      <point x="861.799997091" y="0.0" type="line"/>
      <point x="861.799997091" y="180.599997282" type="line"/>
      <point x="329.799995661" y="180.599997282" type="line"/>
      <point x="348.29999578" y="111.599997759" type="line"/>
      <point x="846.899997354" y="846.800001621" type="line"/>
      <point x="846.899997354" y="1012.99999928" type="line"/>
      <point x="126.800000191" y="1012.99999928" type="line"/>
      <point x="126.800000191" y="839.600001812" type="line"/>
      <point x="646.000001192" y="839.600001812" type="line"/>
      <point x="620.500001311" y="901.000001431" type="line"/>
      <point x="105.000000238" y="149.899998069" type="line"/>
    </contour>
  </outline>
</glyph>
<glyph name="braceleft" format="1">
  <advance width="697.100001454"/>
  <unicode hex="007B"/>
  <outline>
    <contour>
      <point x="625.399998903" y="-246.800000429" type="line" smooth="yes"/>
      <point x="373.600000143" y="-246.800000429"/>
      <point x="247.600001812" y="-180.399998665"/>
      <point x="247.600001812" y="34.2000010014" type="curve" smooth="yes"/>
      <point x="247.600001812" y="270.999998569" type="line" smooth="yes"/>
      <point x="247.600001812" y="410.499999404"/>
      <point x="214.000002384" y="465.100001693"/>
      <point x="55.8000016212" y="465.400001764" type="curve" smooth="yes"/>
      <point x="55.8000016212" y="664.899998546" type="line"/>
      <point x="219.700002074" y="665.799998522"/>
      <point x="247.600001812" y="715.600001097"/>
      <point x="247.600001812" y="856.500001788" type="curve" smooth="yes"/>
      <point x="247.600001812" y="1112.90000021" type="line" smooth="yes"/>
      <point x="247.600001812" y="1321.69999921"/>
      <point x="379.900000691" y="1385.70000064"/>
      <point x="625.399998903" y="1385.80000067" type="curve" smooth="yes"/>
      <point x="625.399998903" y="1198.00000358" type="line"/>
      <point x="498.399998665" y="1196.00000358"/>
      <point x="475.999997854" y="1161.60000277"/>
      <point x="475.999997854" y="1041.90000117" type="curve" smooth="yes"/>
      <point x="475.999997854" y="800.800001144" type="line"/>
      <point x="474.199997902" y="681.600001335"/>
      <point x="425.299998403" y="619.800001621"/>
      <point x="308.89999783" y="564.200000048" type="curve"/>
      <point x="417.299998403" y="532.699999928"/>
      <point x="476.099997878" y="455.099998593"/>
      <point x="475.999997854" y="336.199999094" type="curve" smooth="yes"/>
      <point x="475.999997854" y="93.3999991417" type="line" smooth="yes"/>
      <point x="475.999997854" y="-25.6000022888"/>
      <point x="497.199998617" y="-59.1000033617"/>
      <point x="625.399998903" y="-61.1000033617" type="curve"/>
    </contour>
  </outline>
</glyph>
<glyph name="bar" format="1">
  <advance width="565.399990559"/>
  <unicode hex="007C"/>
  <outline>
    <contour>
      <point x="197.599996328" y="-268.50000298" type="line"/>
      <point x="197.599996328" y="1456.10000002" type="line"/>
      <point x="386.499993443" y="1456.10000002" type="line"/>
      <point x="386.499993443" y="-268.50000298" type="line"/>
    </contour>
  </outline>
</glyph>
<glyph name="braceright" format="1">
  <advance width="697.100001454"/>
  <unicode hex="007D"/>
  <outline>
    <contour>
      <point x="83.7000008821" y="-246.800000429" type="curve"/>
      <point x="83.7000008821" y="-60.8000032902" type="line"/>
      <point x="210.700001121" y="-58.8000032902"/>
      <point x="232.200001955" y="-27.100002408"/>
      <point x="232.200001955" y="93.4999991655" type="curve" smooth="yes"/>
      <point x="232.200001955" y="336.399999142" type="line" smooth="yes"/>
      <point x="232.200001955" y="457.399998903"/>
      <point x="287.400001287" y="519.199998617"/>
      <point x="400.200001955" y="565.800000429" type="curve"/>
      <point x="287.300001502" y="606.30000031"/>
      <point x="233.900001884" y="682.100001693"/>
      <point x="232.200001955" y="801.000001192" type="curve"/>
      <point x="232.200001955" y="1042.00000119" type="line" smooth="yes"/>
      <point x="232.200001955" y="1161.9000026"/>
      <point x="211.900001168" y="1196.30000365"/>
      <point x="83.7000008821" y="1198.30000365" type="curve"/>
      <point x="83.7000008821" y="1385.80000067" type="line"/>
      <point x="334.599999666" y="1385.80000067"/>
      <point x="460.599997997" y="1321.19999886"/>
      <point x="460.599997997" y="1101.19999933" type="curve" smooth="yes"/>
      <point x="460.599997997" y="856.300001979" type="line" smooth="yes"/>
      <point x="460.599997997" y="716.800001144"/>
      <point x="489.699997544" y="666.699998736"/>
      <point x="653.299998164" y="665.499998689" type="curve"/>
      <point x="653.299998164" y="466.000001907" type="line"/>
      <point x="495.699997544" y="466.000001907"/>
      <point x="460.599997997" y="413.499999404"/>
      <point x="460.599997997" y="271.699998736" type="curve" smooth="yes"/>
      <point x="460.599997997" y="22.5000001192" type="line" smooth="yes"/>
      <point x="460.599997997" y="-184.499998927"/>
      <point x="334.599998951" y="-246.700000405"/>
    </contour>
  </outline>
</glyph>
<glyph name="asciitilde" format="1">
  <advance width="1137.79999971"/>
  <unicode hex="007E"/>
  <outline>
    <contour>
      <point x="187.39999795" y="437.100000978" type="curve"/>
      <point x="109.899999499" y="567.999999285" type="line"/>
      <point x="156.199999332" y="664.799999475"/>
      <point x="234.699999452" y="747.199999332"/>
      <point x="370.099998832" y="747.199999332" type="curve" smooth="yes"/>
      <point x="447.599998713" y="747.199999332"/>
      <point x="524.699997783" y="721.999999523"/>
      <point x="603.199998379" y="687.799999237" type="curve" smooth="yes"/>
      <point x="683.599998713" y="652.399999142"/>
      <point x="743.999999285" y="629.199998617"/>
      <point x="794.899999499" y="629.199998617" type="curve" smooth="yes"/>
      <point x="863.299999833" y="629.199998617"/>
      <point x="926.200000286" y="668.799999714"/>
      <point x="994.799998999" y="751.199999571" type="curve"/>
      <point x="1068.09999788" y="625.600001335" type="line"/>
      <point x="1020.39999795" y="532.200000525"/>
      <point x="912.199999332" y="447.500001073"/>
      <point x="782.599999905" y="447.500001073" type="curve" smooth="yes"/>
      <point x="698.800000668" y="447.500001073"/>
      <point x="634.300000548" y="474.300001025"/>
      <point x="550.500000834" y="511.800000906" type="curve"/>
      <point x="480.799999714" y="544.600001335"/>
      <point x="426.999999046" y="568.000001669"/>
      <point x="362.799998999" y="568.000001669" type="curve" smooth="yes"/>
      <point x="284.099998832" y="568.000001669"/>
      <point x="224.499998212" y="506.100001454"/>
    </contour>
  </outline>
</glyph>
<glyph name="cent" format="1">
  <advance width="937.0"/>
  <unicode hex="00A2"/>
  <outline>
    <contour>
      <point x="569.999999285" y="-146.0" type="line"/>
      <point x="652.999999046" y="-146.0" type="line"/>
      <point x="652.999999046" y="1156.0" type="line"/>
      <point x="569.999999285" y="1156.0" type="line"/>
    </contour>
    <component base="c"/>
  </outline>
</glyph>
<glyph name="sterling" format="1">
  <advance width="1017.60000277"/>
  <unicode hex="00A3"/>
  <outline>
    <contour>
      <point x="77.5000015497" y="15.7999992371" type="line"/>
      <point x="68.300001502" y="194.399996758" type="line"/>
      <point x="226.400002003" y="214.599996567" type="line" smooth="yes"/>
      <point x="226.400002003" y="607.500000596" type="line"/>
      <point x="60.5000017881" y="607.500000596" type="line"/>
      <point x="60.5000017881" y="777.899998307" type="line"/>
      <point x="226.400002003" y="777.899998307" type="line"/>
      <point x="226.400002003" y="863.699998736" type="line"/>
      <point x="226.400002003" y="1146.79999852"/>
      <point x="329.0" y="1362.20000029"/>
      <point x="628.400001287" y="1362.20000029" type="curve" smooth="yes"/>
      <point x="767.700001121" y="1362.20000029"/>
      <point x="883.000000715" y="1312.20000029"/>
      <point x="972.400000334" y="1236.5000006" type="curve"/>
      <point x="874.200001717" y="1080.80000281" type="line"/>
      <point x="796.700001597" y="1135.10000312"/>
      <point x="725.100001216" y="1168.30000317"/>
      <point x="636.90000093" y="1168.30000317" type="curve" smooth="yes"/>
      <point x="501.899998784" y="1168.30000317"/>
      <point x="450.899998546" y="1079.80000114"/>
      <point x="450.899998546" y="928.999998808" type="curve" smooth="yes"/>
      <point x="450.899998546" y="777.899998307" type="line"/>
      <point x="799.099999785" y="777.899998307" type="line"/>
      <point x="799.099999785" y="608.300000548" type="line"/>
      <point x="450.899998546" y="608.300000548" type="line"/>
      <point x="450.899998546" y="215.699996591" type="line"/>
      <point x="989.700000167" y="215.699996591" type="line"/>
      <point x="982.799999952" y="15.7999992371" type="line"/>
    </contour>
  </outline>
</glyph>
<glyph name="currency" format="1">
  <advance width="1045.60000682"/>
  <unicode hex="00A4"/>
  <outline>
    <contour>
      <point x="922.300003886" y="210.200000048" type="line"/>
      <point x="1010.00000262" y="302.999998808" type="line"/>
      <point x="846.500002503" y="459.899999022" type="line"/>
      <point x="888.700002789" y="523.999999046"/>
      <point x="911.600003004" y="594.199999332"/>
      <point x="911.600003004" y="673.499999642" type="curve" smooth="yes"/>
      <point x="911.600003004" y="751.999999762"/>
      <point x="886.100002885" y="825.799999952"/>
      <point x="845.500002503" y="888.000000238" type="curve"/>
      <point x="1011.00000262" y="1046.50000036" type="line"/>
      <point x="922.300003886" y="1138.49999917" type="line"/>
      <point x="754.800003767" y="980.999999046" type="line"/>
      <point x="690.400003672" y="1030.99999928"/>
      <point x="616.80000329" y="1057.69999945"/>
      <point x="531.600003004" y="1057.69999945" type="curve" smooth="yes"/>
      <point x="448.20000267" y="1057.69999945"/>
      <point x="369.200002432" y="1029.4999994"/>
      <point x="307.300002217" y="982.899999022" type="curve"/>
      <point x="144.400002003" y="1138.49999917" type="line"/>
      <point x="50.8000032902" y="1047.70000041" type="line"/>
      <point x="217.600003481" y="888.000000238" type="line"/>
      <point x="175.300003171" y="822.800000191"/>
      <point x="151.400002956" y="751.499999881"/>
      <point x="151.400002956" y="673.499999642" type="curve" smooth="yes"/>
      <point x="151.400002956" y="594.499999404"/>
      <point x="177.000003099" y="521.699999213"/>
      <point x="217.600003481" y="459.899999022" type="curve"/>
      <point x="51.8000032902" y="301.399998903" type="line"/>
      <point x="144.400002003" y="211.200000048" type="line"/>
      <point x="305.600002289" y="366.000000238" type="line"/>
      <point x="369.200002432" y="316.799999952"/>
      <point x="445.400002718" y="290.299999833"/>
      <point x="531.600003004" y="290.299999833" type="curve" smooth="yes"/>
      <point x="616.000003338" y="290.299999833"/>
      <point x="692.1000036" y="319.499999881"/>
      <point x="754.800003767" y="366.800000191" type="curve"/>
    </contour>
    <contour>
      <point x="531.600003004" y="425.899998069" type="curve" smooth="yes"/>
      <point x="397.100001931" y="425.899998069"/>
      <point x="287.600001097" y="535.899998784"/>
      <point x="287.600001097" y="673.499999642" type="curve" smooth="yes"/>
      <point x="287.600001097" y="810.200000525"/>
      <point x="397.100001931" y="922.100001216"/>
      <point x="531.600003004" y="922.100001216" type="curve" smooth="yes"/>
      <point x="667.000004053" y="922.100001216"/>
      <point x="777.30000484" y="811.000000477"/>
      <point x="777.30000484" y="673.499999642" type="curve" smooth="yes"/>
      <point x="777.30000484" y="535.999998808"/>
      <point x="668.000004053" y="425.899998069"/>
    </contour>
  </outline>
</glyph>
<glyph name="yen" format="1">
  <advance width="1070.00000572"/>
  <unicode hex="00A5"/>
  <outline>
    <contour>
      <point x="425.100002885" y="0.0" type="line"/>
      <point x="664.199999571" y="0.0" type="line"/>
      <point x="664.199999571" y="260.500000834" type="line"/>
      <point x="971.699999213" y="260.500000834" type="line"/>
      <point x="971.699999213" y="415.899998546" type="line"/>
      <point x="664.199999571" y="415.899998546" type="line"/>
      <point x="664.199999571" y="531.000000954" type="line"/>
      <point x="971.499999166" y="531.000000954" type="line"/>
      <point x="971.499999166" y="678.699998975" type="line"/>
      <point x="732.84029877" y="678.699998975" type="line"/>
      <point x="1115.49999917" y="1337.80000043" type="line"/>
      <point x="860.100003123" y="1337.80000043" type="line"/>
      <point x="542.350101276" y="769.942796649" type="line"/>
      <point x="220.099998593" y="1337.80000043" type="line"/>
      <point x="-39.6999973059" y="1337.80000043" type="line"/>
      <point x="352.389903669" y="678.699998975" type="line"/>
      <point x="120.000002861" y="678.699998975" type="line"/>
      <point x="120.000002861" y="531.000000954" type="line"/>
      <point x="425.100002885" y="531.000000954" type="line"/>
      <point x="425.100002885" y="415.899998546" type="line"/>
      <point x="119.800002813" y="415.899998546" type="line"/>
      <point x="119.800002813" y="260.500000834" type="line"/>
      <point x="425.100002885" y="260.500000834" type="line"/>
    </contour>
  </outline>
</glyph>
<glyph name="brokenbar" format="1">
  <advance width="662.099986672"/>
  <unicode hex="00A6"/>
  <outline>
    <contour>
      <point x="242.899994493" y="-341.300001025" type="line"/>
      <point x="242.899994493" y="322.899998069" type="line"/>
      <point x="431.899991632" y="322.899998069" type="line"/>
      <point x="431.899991632" y="-341.300001025" type="line"/>
    </contour>
    <contour>
      <point x="242.899994493" y="748.10000217" type="line"/>
      <point x="242.899994493" y="1411.10000122" type="line"/>
      <point x="431.899991632" y="1411.10000122" type="line"/>
      <point x="431.899991632" y="748.10000217" type="line"/>
    </contour>
  </outline>
</glyph>
<glyph name="dieresis" format="1">
  <advance width="682.700000882"/>
  <unicode hex="00A8"/>
  <outline>
    <contour>
      <point x="70.7000018358" y="1122.60000086" type="line"/>
      <point x="255.399999619" y="1122.60000086" type="line"/>
      <point x="255.399999619" y="1358.99999881" type="line"/>
      <point x="70.7000018358" y="1358.99999881" type="line"/>
    </contour>
    <contour>
      <point x="443.000000954" y="1122.60000086" type="line"/>
      <point x="626.899998784" y="1122.60000086" type="line"/>
      <point x="626.899998784" y="1358.99999881" type="line"/>
      <point x="443.000000954" y="1358.99999881" type="line"/>
    </contour>
  </outline>
</glyph>
<glyph name="copyright" format="1">
  <advance width="1557.30000579"/>
  <unicode hex="00A9"/>
  <outline>
    <contour>
      <point x="774.900003791" y="233.799999475" type="curve" smooth="yes"/>
      <point x="882.000003338" y="233.799999475"/>
      <point x="976.700003266" y="260.699999452"/>
      <point x="1050.30000365" y="308.599999666" type="curve"/>
      <point x="1003.6000042" y="413.699998736" type="line"/>
      <point x="937.900003552" y="373.999998331"/>
      <point x="853.900003791" y="354.299998403"/>
      <point x="786.500003457" y="354.299998403" type="curve" smooth="yes"/>
      <point x="611.400002718" y="354.299998403"/>
      <point x="496.300001264" y="483.299999118"/>
      <point x="496.300001264" y="682.400000811" type="curve" smooth="yes"/>
      <point x="496.300001264" y="881.200001717"/>
      <point x="610.500002742" y="1014.00000262"/>
      <point x="782.900003314" y="1014.00000262" type="curve" smooth="yes"/>
      <point x="849.400003433" y="1014.00000262"/>
      <point x="932.800003767" y="994.40000248"/>
      <point x="997.700003982" y="954.200001955" type="curve"/>
      <point x="1049.00000358" y="1058.90000117" type="line"/>
      <point x="973.400003195" y="1110.20000148"/>
      <point x="880.200003147" y="1135.50000155"/>
      <point x="772.900003552" y="1135.50000155" type="curve" smooth="yes"/>
      <point x="525.800003529" y="1135.50000155"/>
      <point x="351.800002337" y="934.900001407"/>
      <point x="351.800002337" y="681.700000644" type="curve" smooth="yes"/>
      <point x="351.800002337" y="421.599999905"/>
      <point x="533.600003481" y="233.799999475"/>
    </contour>
    <contour>
      <point x="782.500002742" y="100.599998236" type="curve" smooth="yes"/>
      <point x="452.000003099" y="100.599998236"/>
      <point x="198.90000093" y="354.699997067"/>
      <point x="198.90000093" y="689.900000453" type="curve" smooth="yes"/>
      <point x="198.90000093" y="1023.30000389"/>
      <point x="452.000003099" y="1279.20000267"/>
      <point x="781.600002766" y="1279.20000267" type="curve" smooth="yes"/>
      <point x="1115.70000231" y="1279.20000267"/>
      <point x="1369.20000458" y="1023.20000386"/>
      <point x="1369.20000458" y="689.000000477" type="curve" smooth="yes"/>
      <point x="1369.20000458" y="354.799997091"/>
      <point x="1116.60000229" y="100.599998236"/>
    </contour>
    <contour>
      <point x="782.500002742" y="-3.70000088215" type="curve" smooth="yes"/>
      <point x="1159.70000231" y="-3.70000088215"/>
      <point x="1488.20000386" y="276.199997902"/>
      <point x="1488.20000386" y="689.900000453" type="curve" smooth="yes"/>
      <point x="1488.20000386" y="1102.70000303"/>
      <point x="1157.90000236" y="1384.50000179"/>
      <point x="781.600002766" y="1384.50000179" type="curve" smooth="yes"/>
      <point x="408.000003099" y="1384.50000179"/>
      <point x="79.0000016689" y="1103.600003"/>
      <point x="79.0000016689" y="689.900000453" type="curve" smooth="yes"/>
      <point x="79.0000016689" y="276.199997902"/>
      <point x="408.900003076" y="-3.70000088215"/>
    </contour>
  </outline>
</glyph>
<glyph name="ordfeminine" format="1">
  <advance width="679.300003648"/>
  <unicode hex="00AA"/>
  <outline>
    <contour>
      <point x="279.300002456" y="696.900002599" type="curve" smooth="yes"/>
      <point x="166.600002289" y="696.900002599"/>
      <point x="71.6000027657" y="766.800003052"/>
      <point x="71.6000027657" y="896.800002813" type="curve" smooth="yes"/>
      <point x="71.6000027657" y="1087.60000205"/>
      <point x="281.200000286" y="1106.40000248"/>
      <point x="453.500002503" y="1123.80000234" type="curve"/>
      <point x="453.500002503" y="1143.10000217" type="line"/>
      <point x="452.200002432" y="1234.10000288"/>
      <point x="423.700002551" y="1264.90000355"/>
      <point x="350.400001764" y="1264.90000355" type="curve" smooth="yes"/>
      <point x="291.800001383" y="1264.90000355"/>
      <point x="220.400001764" y="1252.40000391"/>
      <point x="136.20000267" y="1210.00000238" type="curve"/>
      <point x="88.6000022888" y="1317.70000064" type="line"/>
      <point x="169.800001621" y="1369.10000241"/>
      <point x="268.400001049" y="1394.40000248"/>
      <point x="363.600001335" y="1394.40000248" type="curve" smooth="yes"/>
      <point x="495.60000062" y="1394.40000248"/>
      <point x="609.200000048" y="1334.10000217"/>
      <point x="609.200000048" y="1165.00000215" type="curve" smooth="yes"/>
      <point x="608.799999952" y="826.400003195" type="line" smooth="yes"/>
      <point x="608.799999952" y="821.900002837"/>
      <point x="610.499999881" y="723.900006175"/>
      <point x="611.400000095" y="710.100002885" type="curve"/>
      <point x="478.000001431" y="710.100002885" type="line"/>
      <point x="466.700001836" y="775.400003195" type="line"/>
      <point x="425.800002098" y="728.800002813"/>
      <point x="349.400002956" y="696.900002599"/>
    </contour>
    <contour>
      <point x="100.50000155" y="501.300003648" type="line"/>
      <point x="100.50000155" y="621.40000248" type="line"/>
      <point x="615.500000596" y="621.40000248" type="line"/>
      <point x="615.500000596" y="501.300003648" type="line"/>
    </contour>
    <contour>
      <point x="296.300002456" y="819.600001574" type="curve" smooth="yes"/>
      <point x="360.600004673" y="819.600001574"/>
      <point x="416.400004148" y="863.70000422"/>
      <point x="453.500002503" y="934.50000608" type="curve"/>
      <point x="453.500002503" y="1011.1000036" type="line"/>
      <point x="317.400003672" y="993.300003886"/>
      <point x="221.60000062" y="978.200004816"/>
      <point x="221.60000062" y="894.800002813" type="curve" smooth="yes"/>
      <point x="221.60000062" y="841.80000186"/>
      <point x="253.400001287" y="819.600001574"/>
    </contour>
  </outline>
</glyph>
<glyph name="guillemotleft" format="1">
  <advance width="946.799999714"/>
  <unicode hex="00AB"/>
  <outline>
    <contour>
      <point x="347.200000763" y="122.700000644" type="line"/>
      <point x="534.499997735" y="172.199999809" type="line"/>
      <point x="289.699997783" y="517.69999969" type="line"/>
      <point x="537.89999783" y="863.499999404" type="line"/>
      <point x="350.200000763" y="912.199998617" type="line"/>
      <point x="74.9000011683" y="541.899998784" type="line"/>
      <point x="69.0000023842" y="498.899998784" type="line"/>
    </contour>
    <contour>
      <point x="713.899999738" y="122.700000644" type="line"/>
      <point x="898.199996233" y="172.199999809" type="line"/>
      <point x="655.499996781" y="517.69999969" type="line"/>
      <point x="901.999996185" y="863.499999404" type="line"/>
      <point x="715.899999738" y="912.199998617" type="line"/>
      <point x="425.800000429" y="516.0" type="line"/>
    </contour>
  </outline>
</glyph>
<glyph name="logicalnot" format="1">
  <advance width="1128.79999995"/>
  <unicode hex="00AC"/>
  <outline>
    <contour>
      <point x="848.700001836" y="230.30000031" type="line"/>
      <point x="1026.99999905" y="230.30000031" type="line"/>
      <point x="1026.99999905" y="767.699999213" type="line"/>
      <point x="110.899999738" y="767.699999213" type="line"/>
      <point x="110.899999738" y="586.600001574" type="line"/>
      <point x="848.700001836" y="586.600001574" type="line"/>
    </contour>
  </outline>
</glyph>
<glyph name="uni00AD" format="1">
  <advance width="688.500008702"/>
  <unicode hex="00AD"/>
  <outline>
    <contour>
      <point x="67.5000015497" y="326.799994707" type="line"/>
      <point x="635.900006652" y="326.799994707" type="line"/>
      <point x="635.900006652" y="517.799992085" type="line"/>
      <point x="67.5000015497" y="517.799992085" type="line"/>
    </contour>
  </outline>
</glyph>
<glyph name="registered" format="1">
  <advance width="1551.00000596"/>
  <unicode hex="00AE"/>
  <outline>
    <contour>
      <point x="498.300002694" y="254.800000906" type="line"/>
      <point x="642.400001287" y="254.800000906" type="line"/>
      <point x="642.400001287" y="630.500002503" type="line"/>
      <point x="775.900004268" y="630.500002503" type="line"/>
      <point x="802.900003552" y="603.500003219"/>
      <point x="977.700004458" y="254.800000906"/>
      <point x="977.700004458" y="254.800000906" type="curve"/>
      <point x="1139.70000279" y="254.800000906" type="line"/>
      <point x="1139.70000279" y="254.800000906"/>
      <point x="965.100001693" y="585.800004005"/>
      <point x="916.50000298" y="650.600002289" type="curve"/>
      <point x="1049.40000272" y="681.700001597"/>
      <point x="1099.10000312" y="758.200001955"/>
      <point x="1099.10000312" y="885.700002074" type="curve" smooth="yes"/>
      <point x="1099.10000312" y="1058.3000015"/>
      <point x="978.100004792" y="1126.10000169"/>
      <point x="788.200003386" y="1126.10000169" type="curve" smooth="yes"/>
      <point x="498.300002694" y="1126.10000169" type="line"/>
    </contour>
    <contour>
      <point x="641.600001335" y="757.20000124" type="line"/>
      <point x="641.600001335" y="1000.30000293" type="line"/>
      <point x="753.300004125" y="1000.30000293" type="line" smooth="yes"/>
      <point x="893.100004792" y="1000.30000293"/>
      <point x="954.700004697" y="994.300002456"/>
      <point x="954.700004697" y="883.400002003" type="curve" smooth="yes"/>
      <point x="954.700004697" y="776.900002122"/>
      <point x="891.200005531" y="757.20000124"/>
      <point x="765.300005078" y="757.20000124" type="curve" smooth="yes"/>
    </contour>
    <contour>
      <point x="781.600002766" y="100.599998236" type="curve" smooth="yes"/>
      <point x="452.000003099" y="100.599998236"/>
      <point x="198.90000093" y="354.699997067"/>
      <point x="198.90000093" y="689.900000453" type="curve" smooth="yes"/>
      <point x="198.90000093" y="1023.30000389"/>
      <point x="451.100003123" y="1279.20000267"/>
      <point x="780.700002789" y="1279.20000267" type="curve" smooth="yes"/>
      <point x="1113.90000236" y="1279.20000267"/>
      <point x="1365.60000467" y="1023.20000386"/>
      <point x="1365.60000467" y="689.000000477" type="curve" smooth="yes"/>
      <point x="1365.60000467" y="354.799997091"/>
      <point x="1113.90000236" y="100.599998236"/>
    </contour>
    <contour>
      <point x="781.600002766" y="-3.70000088215" type="curve" smooth="yes"/>
      <point x="1157.00000238" y="-3.70000088215"/>
      <point x="1485.50000393" y="276.199997902"/>
      <point x="1485.50000393" y="689.900000453" type="curve" smooth="yes"/>
      <point x="1485.50000393" y="1102.70000303"/>
      <point x="1156.10000241" y="1384.50000179"/>
      <point x="780.700002789" y="1384.50000179" type="curve" smooth="yes"/>
      <point x="407.100003123" y="1384.50000179"/>
      <point x="79.0000016689" y="1103.600003"/>
      <point x="79.0000016689" y="689.900000453" type="curve" smooth="yes"/>
      <point x="79.0000016689" y="276.199997902"/>
      <point x="408.000003099" y="-3.70000088215"/>
    </contour>
  </outline>
</glyph>
<glyph name="macron" format="1">
  <advance width="829.90000689"/>
  <unicode hex="00AF"/>
  <outline>
    <contour>
      <point x="107.600004435" y="1234.69999897" type="line"/>
      <point x="742.500001073" y="1234.69999897" type="line"/>
      <point x="742.500001073" y="1387.0999974" type="line"/>
      <point x="107.600004435" y="1387.0999974" type="line"/>
    </contour>
  </outline>
</glyph>
<glyph name="degree" format="1">
  <advance width="751.200000763"/>
  <unicode hex="00B0"/>
  <outline>
    <contour>
      <point x="383.599999905" y="909.800000429" type="curve" smooth="yes"/>
      <point x="309.399998903" y="909.800000429"/>
      <point x="240.49999845" y="967.100001454"/>
      <point x="240.49999845" y="1059.50000179" type="curve" smooth="yes"/>
      <point x="240.49999845" y="1150.10000217"/>
      <point x="309.599998951" y="1204.60000324"/>
      <point x="384.499999881" y="1204.60000324" type="curve" smooth="yes"/>
      <point x="457.90000093" y="1204.60000324"/>
      <point x="525.100001454" y="1150.10000217"/>
      <point x="525.100001454" y="1059.50000179" type="curve" smooth="yes"/>
      <point x="525.100001454" y="967.300001502"/>
      <point x="457.90000093" y="909.800000429"/>
    </contour>
    <contour>
      <point x="383.499999881" y="779.800001383" type="curve" smooth="yes"/>
      <point x="564.899998784" y="779.800001383"/>
      <point x="671.599999666" y="919.000001192"/>
      <point x="671.599999666" y="1063.60000157" type="curve" smooth="yes"/>
      <point x="671.599999666" y="1212.30000198"/>
      <point x="560.099998832" y="1340.30000198"/>
      <point x="383.499999881" y="1340.30000198" type="curve" smooth="yes"/>
      <point x="204.600001097" y="1340.30000198"/>
      <point x="93.9000002146" y="1212.30000198"/>
      <point x="93.9000002146" y="1063.60000157" type="curve" smooth="yes"/>
      <point x="93.9000002146" y="917.300001025"/>
      <point x="202.100001216" y="779.800001383"/>
    </contour>
  </outline>
</glyph>
<glyph name="plusminus" format="1">
  <advance width="1126.799999"/>
  <unicode hex="00B1"/>
  <outline>
    <contour>
      <point x="138.399999142" y="0.0" type="line"/>
      <point x="138.399999142" y="167.199997663" type="line"/>
      <point x="1003.69999945" y="167.199997663" type="line"/>
      <point x="1003.69999945" y="0.0" type="line"/>
    </contour>
    <contour>
      <point x="478.30000031" y="234.399998426" type="line"/>
      <point x="661.499997735" y="234.399998426" type="line"/>
      <point x="661.499997735" y="572.699999452" type="line"/>
      <point x="997.599997997" y="572.699999452" type="line"/>
      <point x="997.599997997" y="759.799996376" type="line"/>
      <point x="660.599997759" y="759.799996376" type="line"/>
      <point x="660.599997759" y="1090.0999974" type="line"/>
      <point x="478.30000031" y="1090.0999974" type="line"/>
      <point x="478.30000031" y="759.799996376" type="line"/>
      <point x="141.299999833" y="759.799996376" type="line"/>
      <point x="141.299999833" y="572.699999452" type="line"/>
      <point x="478.30000031" y="572.699999452" type="line"/>
    </contour>
  </outline>
</glyph>
<glyph name="acute" format="1">
  <advance width="548.000001669"/>
  <unicode hex="00B4"/>
  <outline>
    <contour>
      <point x="154.799998045" y="1090.50000226" type="line"/>
      <point x="302.499995828" y="1090.50000226" type="line"/>
      <point x="595.599995375" y="1450.10000193" type="line"/>
      <point x="316.49999845" y="1450.10000193" type="line"/>
    </contour>
  </outline>
</glyph>
<glyph name="paragraph" format="1">
  <advance width="1052.09999955"/>
  <unicode hex="00B6"/>
  <outline>
    <contour>
      <point x="380.300003171" y="-135.700000405" type="line"/>
      <point x="555.400000095" y="-135.700000405" type="line"/>
      <point x="555.400000095" y="1206.70000446" type="line"/>
      <point x="692.500003219" y="1206.70000446" type="line"/>
      <point x="692.500003219" y="-135.700000405" type="line"/>
      <point x="849.500000596" y="-135.700000405" type="line"/>
      <point x="849.500000596" y="1206.70000446" type="line"/>
      <point x="921.600000381" y="1206.70000446" type="line"/>
      <point x="921.600000381" y="1370.10000241" type="line"/>
      <point x="534.699998498" y="1370.10000241" type="line" smooth="yes"/>
      <point x="266.299997211" y="1370.10000241"/>
      <point x="69.8000013828" y="1273.79999948"/>
      <point x="69.8000013828" y="1047.10000265" type="curve" smooth="yes"/>
      <point x="69.8000013828" y="874.100003123"/>
      <point x="195.600002289" y="732.500002027"/>
      <point x="380.300003171" y="715.900002599" type="curve"/>
    </contour>
  </outline>
</glyph>
<glyph name="cedilla" format="1">
  <advance width="518.900001168"/>
  <unicode hex="00B8"/>
  <outline>
    <contour>
      <point x="56.2000024319" y="-309.600003004" type="line"/>
      <point x="253.099999547" y="-309.600003004" type="line"/>
      <point x="304.599998951" y="52.4999982119" type="line"/>
      <point x="169.700001836" y="52.4999982119" type="line"/>
    </contour>
  </outline>
</glyph>
<glyph name="guillemotright" format="1">
  <advance width="1013.59999728"/>
  <unicode hex="00BB"/>
  <outline>
    <contour>
      <point x="280.699997544" y="122.700000644" type="line"/>
      <point x="570.899996877" y="518.999999285" type="line"/>
      <point x="281.699997544" y="912.199998617" type="line"/>
      <point x="97.2000010014" y="863.499999404" type="line"/>
      <point x="341.900000453" y="517.69999969" type="line"/>
      <point x="95.400001049" y="172.199999809" type="line"/>
    </contour>
    <contour>
      <point x="656.599996567" y="122.700000644" type="line"/>
      <point x="946.499995351" y="518.999999285" type="line"/>
      <point x="659.599996567" y="912.199998617" type="line"/>
      <point x="475.199999571" y="863.499999404" type="line"/>
      <point x="717.099999547" y="517.69999969" type="line"/>
      <point x="471.099999547" y="172.199999809" type="line"/>
    </contour>
  </outline>
</glyph>
<glyph name="threequarters" format="1">
  <advance width="1490.20000196"/>
  <unicode hex="00BE"/>
  <outline>
    <contour>
      <point x="313.700000882" y="564.300000548" type="curve" smooth="yes"/>
      <point x="458.300000548" y="564.300000548"/>
      <point x="592.299999595" y="647.300000787"/>
      <point x="592.299999595" y="809.000000238" type="curve" smooth="yes"/>
      <point x="592.299999595" y="891.400000572"/>
      <point x="539.999999523" y="957.600000858"/>
      <point x="475.299998164" y="989.200000763" type="curve"/>
      <point x="561.599998713" y="1027.80000019"/>
      <point x="574.299999595" y="1113.79999995"/>
      <point x="574.299999595" y="1137.60000134" type="curve" smooth="yes"/>
      <point x="574.299999595" y="1285.00000119"/>
      <point x="448.100000024" y="1351.70000136"/>
      <point x="322.500000358" y="1351.70000136" type="curve" smooth="yes"/>
      <point x="231.100000739" y="1351.70000136"/>
      <point x="133.400000334" y="1319.60000134"/>
      <point x="71.8000006676" y="1266.10000122" type="curve"/>
      <point x="136.500000119" y="1160.10000217" type="line"/>
      <point x="172.695400166" y="1187.68600255"/>
      <point x="247.624500626" y="1212.3180027"/>
      <point x="310.623600626" y="1212.3180027" type="curve" smooth="yes"/>
      <point x="376.616500624" y="1212.3180027"/>
      <point x="407.500001311" y="1180.59700253"/>
      <point x="407.500001311" y="1132.20000148" type="curve" smooth="yes"/>
      <point x="407.500001311" y="1079.30000055"/>
      <point x="370.599999905" y="1044.70000041"/>
      <point x="273.200000048" y="1044.70000041" type="curve" smooth="yes"/>
      <point x="195.100000501" y="1044.70000041" type="line"/>
      <point x="195.100000501" y="908.50000155" type="line"/>
      <point x="272.700000167" y="909.400001526" type="line"/>
      <point x="372.400000334" y="909.400001526"/>
      <point x="428.000001192" y="878.400001049"/>
      <point x="428.000001192" y="811.200000286" type="curve" smooth="yes"/>
      <point x="428.000001192" y="737.349799607"/>
      <point x="380.155100752" y="703.015999289"/>
      <point x="306.173600757" y="703.015999289" type="curve" smooth="yes"/>
      <point x="249.909200694" y="703.015999289"/>
      <point x="172.764200421" y="722.725299458"/>
      <point x="133.600000143" y="757.69999969" type="curve"/>
      <point x="79.0000004768" y="639.300000787" type="line"/>
      <point x="144.500000119" y="589.000000477"/>
      <point x="233.200001001" y="564.300000548"/>
    </contour>
    <contour>
      <point x="1186.50000179" y="17.1999995708" type="line"/>
      <point x="1339.40000033" y="17.1999995708" type="line"/>
      <point x="1340.30000031" y="179.400000095" type="line"/>
      <point x="1446.80000067" y="179.400000095" type="line"/>
      <point x="1444.1000005" y="312.499998689" type="line"/>
      <point x="1341.40000033" y="312.499998689" type="line"/>
      <point x="1341.40000033" y="816.299999118" type="line"/>
      <point x="1176.60000181" y="816.299999118" type="line"/>
      <point x="830.700001836" y="309.799998283" type="line"/>
      <point x="830.700001836" y="179.400000095" type="line"/>
      <point x="1186.50000179" y="179.400000095" type="line"/>
    </contour>
    <contour>
      <point x="247.700003028" y="17.099999547" type="line"/>
      <point x="442.600000858" y="17.099999547" type="line"/>
      <point x="1342.49999893" y="1353.10000145" type="line"/>
      <point x="1153.10000098" y="1353.10000145" type="line"/>
    </contour>
    <contour>
      <point x="1018.69999993" y="312.499998689" type="line"/>
      <point x="1184.70000184" y="581.100001454" type="line"/>
      <point x="1184.70000184" y="312.499998689" type="line"/>
    </contour>
  </outline>
</glyph>
<glyph name="Eth" format="1">
  <advance width="1366.30000627"/>
  <unicode hex="00D0"/>
  <outline>
    <contour>
      <point x="370.000000715" y="199.399997234" type="line"/>
      <point x="405.400009155" y="540.499988198" type="line"/>
      <point x="441.400017738" y="540.499988198"/>
      <point x="621.200018883" y="558.899992585"/>
      <point x="621.200018883" y="597.700001836" type="curve"/>
      <point x="621.200018883" y="645.400013208"/>
      <point x="591.500011802" y="822.400012016"/>
      <point x="553.20000267" y="822.400012016" type="curve"/>
      <point x="370.000000715" y="822.400012016" type="line"/>
      <point x="370.000000715" y="1096.19999075" type="line"/>
      <point x="500.700003982" y="1096.19999075" type="line" smooth="yes"/>
      <point x="822.899995446" y="1096.19999075"/>
      <point x="989.399991035" y="988.799991369"/>
      <point x="989.399991035" y="668.399999857" type="curve" smooth="yes"/>
      <point x="989.399991035" y="401.100006938"/>
      <point x="815.499988914" y="256.200010777"/>
      <point x="548.199995995" y="256.200010777" type="curve" smooth="yes"/>
    </contour>
    <contour>
      <point x="129.800004721" y="0.799999952316" type="line"/>
      <point x="524.899994254" y="67.5000158548" type="line" smooth="yes"/>
      <point x="916.399983883" y="67.5000158548"/>
      <point x="1179.59997416" y="273.600010395"/>
      <point x="1179.59997416" y="667.799999952" type="curve" smooth="yes"/>
      <point x="1179.59997416" y="1113.29998815"/>
      <point x="873.599982262" y="1280.99998593"/>
      <point x="440.69999373" y="1280.99998593" type="curve" smooth="yes"/>
      <point x="129.800004721" y="1280.99998593" type="line"/>
      <point x="129.800004721" y="828.700014472" type="line"/>
      <point x="62.3000150919" y="828.700014472" type="line"/>
      <point x="108.500026107" y="828.700014472"/>
      <point x="143.000034332" y="649.300015092"/>
      <point x="143.000034332" y="594.900002122" type="curve"/>
      <point x="143.000034332" y="548.599991083"/>
      <point x="214.90002501" y="527.299986005"/>
      <point x="172.300014853" y="527.299986005" type="curve"/>
    </contour>
  </outline>
</glyph>
<glyph name="multiply" format="1">
  <advance width="1175.69998705"/>
  <unicode hex="00D7"/>
  <outline>
    <contour>
      <point x="344.799993277" y="135.800001383" type="line"/>
      <point x="607.599992514" y="405.800002098" type="line"/>
      <point x="868.599991798" y="135.800001383" type="line"/>
      <point x="997.199990273" y="268.799999237" type="line"/>
      <point x="997.199990273" y="268.799999237"/>
      <point x="790.099987626" y="485.800003052"/>
      <point x="736.499990344" y="540.000000477" type="curve"/>
      <point x="997.199990273" y="815.50000155" type="line"/>
      <point x="868.199991941" y="944.999999523" type="line"/>
      <point x="607.599992514" y="673.199998856" type="line"/>
      <point x="344.399993181" y="944.999999523" type="line"/>
      <point x="218.699994683" y="816.300001502" type="line"/>
      <point x="476.899994731" y="540.000000477" type="line"/>
      <point x="218.699994683" y="267.999999285" type="line"/>
    </contour>
  </outline>
</glyph>
<glyph name="Oslash" format="1">
  <advance width="1553.0"/>
  <unicode hex="00D8"/>
  <outline>
    <contour>
      <point x="513.999998808" y="-225.999999523" type="line"/>
      <point x="1194.99999881" y="1514.00000048" type="line"/>
      <point x="1069.0" y="1562.0" type="line"/>
      <point x="393.0" y="-183.0" type="line"/>
    </contour>
    <contour>
      <point x="827.0" y="1349.0" type="move"/>
    </contour>
    <component base="O"/>
  </outline>
</glyph>
<glyph name="germandbls" format="1">
  <advance width="1156.09999859"/>
  <unicode hex="00DF"/>
  <outline>
    <contour>
      <point x="371.39999795" y="0.0" type="line"/>
      <point x="135.900001168" y="0.0" type="line"/>
      <point x="135.900001168" y="935.800000429" type="line" smooth="yes"/>
      <point x="135.900001168" y="1204.00000048"/>
      <point x="283.499999881" y="1365.5000006"/>
      <point x="560.799999952" y="1365.5000006" type="curve" smooth="yes"/>
      <point x="775.099999785" y="1365.5000006"/>
      <point x="959.89999783" y="1268.39999986"/>
      <point x="959.89999783" y="1059.20000124" type="curve" smooth="yes"/>
      <point x="959.89999783" y="833.90000236"/>
      <point x="791.19999671" y="786.600000143"/>
      <point x="791.19999671" y="716.999999523" type="curve" smooth="yes"/>
      <point x="791.19999671" y="623.540098937"/>
      <point x="1123.89999759" y="573.794898759"/>
      <point x="1123.89999759" y="287.899999261" type="curve" smooth="yes"/>
      <point x="1123.89999759" y="92.3000000715"/>
      <point x="991.899998307" y="-20.6999999285"/>
      <point x="786.699998975" y="-20.6999999285" type="curve" smooth="yes"/>
      <point x="692.599997997" y="-20.6999999285"/>
      <point x="587.499997497" y="3.10000050068"/>
      <point x="480.999998808" y="46.1000002623" type="curve"/>
      <point x="536.69999826" y="212.599998236" type="line"/>
      <point x="577.599998713" y="191.499997973"/>
      <point x="662.09999907" y="162.399997711"/>
      <point x="740.400000095" y="162.399997711" type="curve" smooth="yes"/>
      <point x="822.600001574" y="162.399997711"/>
      <point x="886.300001025" y="199.099999309"/>
      <point x="886.300001025" y="295.099998832" type="curve" smooth="yes"/>
      <point x="886.300001025" y="468.154599798"/>
      <point x="560.700000167" y="516.929099745"/>
      <point x="560.700000167" y="691.899999976" type="curve" smooth="yes"/>
      <point x="560.700000167" y="847.499999881"/>
      <point x="744.900000453" y="893.100000262"/>
      <point x="745.000000477" y="1052.10000145" type="curve" smooth="yes"/>
      <point x="745.05390049" y="1134.20000219"/>
      <point x="677.60000062" y="1187.600003"/>
      <point x="573.399999619" y="1187.600003" type="curve" smooth="yes"/>
      <point x="419.79999876" y="1187.600003"/>
      <point x="371.39999795" y="1096.10000312"/>
      <point x="371.39999795" y="932.200000763" type="curve" smooth="yes"/>
    </contour>
  </outline>
</glyph>
<glyph name="ae" format="1">
  <advance width="1613.10000145"/>
  <unicode hex="00E6"/>
  <outline>
    <contour>
      <point x="406.400000334" y="-18.3999998569" type="curve" smooth="yes"/>
      <point x="573.600000143" y="-18.3999998569"/>
      <point x="734.000000954" y="47.0000004768"/>
      <point x="816.800000906" y="123.700001121" type="curve"/>
      <point x="888.90000093" y="33.6000003815"/>
      <point x="983.900001645" y="-18.0"/>
      <point x="1144.7000016" y="-18.0" type="curve" smooth="yes"/>
      <point x="1305.80000114" y="-18.0"/>
      <point x="1406.200001" y="17.0"/>
      <point x="1488.50000131" y="82.4999996424" type="curve"/>
      <point x="1420.30000222" y="236.59999752" type="line"/>
      <point x="1359.20000076" y="196.699997067"/>
      <point x="1271.10000122" y="158.199997663"/>
      <point x="1160.60000157" y="158.199997663" type="curve"/>
      <point x="1000.5000006" y="159.999997616"/>
      <point x="922.099998832" y="238.999998569"/>
      <point x="912.199998856" y="431.500001311" type="curve"/>
      <point x="1403.19999981" y="431.500001311"/>
      <point x="1519.90000069" y="578.399998665"/>
      <point x="1519.90000069" y="724.600000381" type="curve" smooth="yes"/>
      <point x="1519.90000069" y="876.42845147"/>
      <point x="1432.45557988" y="1044.49999893"/>
      <point x="1156.80000114" y="1044.49999893" type="curve" smooth="yes"/>
      <point x="1018.00000072" y="1044.49999893"/>
      <point x="890.199999571" y="976.099998355"/>
      <point x="827.500000358" y="885.099996209" type="curve"/>
      <point x="788.800001144" y="991.49999845"/>
      <point x="687.400000095" y="1044.59999895"/>
      <point x="542.299999118" y="1044.59999895" type="curve" smooth="yes"/>
      <point x="390.553853882" y="1044.59999895"/>
      <point x="223.887703965" y="1000.39969763"/>
      <point x="133.300001025" y="949.099999309" type="curve"/>
      <point x="198.200000286" y="793.400001287" type="line"/>
      <point x="262.000000954" y="819.900001884"/>
      <point x="403.700000644" y="866.800001383"/>
      <point x="513.700000405" y="866.800001383" type="curve"/>
      <point x="643.300001502" y="861.400001526"/>
      <point x="685.700002074" y="804.60000062"/>
      <point x="685.700002074" y="685.899999738" type="curve" smooth="yes"/>
      <point x="685.700002074" y="588.899999261" type="line"/>
      <point x="581.500000119" y="588.899999261" type="line" smooth="yes"/>
      <point x="288.499999166" y="588.899999261"/>
      <point x="98.2000005245" y="520.699998736"/>
      <point x="98.2000005245" y="294.999999523" type="curve" smooth="yes"/>
      <point x="98.2000005245" y="113.79999876"/>
      <point x="219.300001025" y="-18.3999998569"/>
    </contour>
    <contour>
      <point x="438.499999881" y="145.599998236" type="curve" smooth="yes"/>
      <point x="357.299998879" y="145.599998236"/>
      <point x="314.499997735" y="190.499998689"/>
      <point x="314.499997735" y="281.700000167" type="curve" smooth="yes"/>
      <point x="314.499997735" y="374.500001311"/>
      <point x="377.999998093" y="431.800001383"/>
      <point x="567.400001049" y="431.800001383" type="curve" smooth="yes"/>
      <point x="690.200001955" y="431.800001383" type="line"/>
      <point x="693.80000186" y="367.400001049"/>
      <point x="714.900001645" y="286.400000811"/>
      <point x="727.800002098" y="254.899999738" type="curve"/>
      <point x="650.100001931" y="192.199998856"/>
      <point x="529.400000811" y="145.599998236"/>
    </contour>
    <contour>
      <point x="913.499998927" y="588.399999142" type="curve"/>
      <point x="935.399998903" y="817.399998665"/>
      <point x="1063.89999855" y="884.700000882"/>
      <point x="1176.20000076" y="884.700000882" type="curve" smooth="yes"/>
      <point x="1277.5000025" y="884.700000882"/>
      <point x="1335.20000315" y="832.299999833"/>
      <point x="1335.20000315" y="738.099999785" type="curve" smooth="yes"/>
      <point x="1335.20000315" y="644.399998426"/>
      <point x="1237.200001" y="588.399999142"/>
    </contour>
  </outline>
</glyph>
<glyph name="eth" format="1">
  <advance width="1090.60000372"/>
  <unicode hex="00F0"/>
  <outline>
    <contour>
      <point x="561.600001097" y="-18.0000002384" type="curve" smooth="yes"/>
      <point x="858.200001717" y="-18.0000002384"/>
      <point x="1042.80000043" y="151.800001383"/>
      <point x="1042.80000043" y="428.000000954" type="curve"/>
      <point x="1041.90000045" y="560.000000715"/>
      <point x="1006.20000076" y="676.800000429"/>
      <point x="948.900000453" y="775.600001335" type="curve"/>
      <point x="877.800000668" y="894.300001264"/>
      <point x="781.400000334" y="1004.30000198"/>
      <point x="673.999998569" y="1125.1000036" type="curve"/>
      <point x="861.900000215" y="1200.10000408" type="line"/>
      <point x="802.600001097" y="1361.30000198" type="line"/>
      <point x="558.500000119" y="1262.50000179" type="line"/>
      <point x="449.599998951" y="1388.30000269" type="line"/>
      <point x="175.700002551" y="1388.30000269" type="line"/>
      <point x="365.800003767" y="1180.90000284" type="line"/>
      <point x="200.400002003" y="1114.50000226" type="line"/>
      <point x="257.600001097" y="953.600004196" type="line"/>
      <point x="484.900002122" y="1044.7000047" type="line"/>
      <point x="536.700006843" y="991.200000286"/>
      <point x="624.100006938" y="887.799999475"/>
      <point x="662.800007105" y="834.69999826" type="curve"/>
      <point x="625.600006342" y="849.299999356"/>
      <point x="572.900004983" y="865.800000906"/>
      <point x="521.50000155" y="865.800000906" type="curve" smooth="yes"/>
      <point x="254.200001717" y="865.800000906"/>
      <point x="76.9000018835" y="693.700000644"/>
      <point x="76.9000018835" y="434.500000358" type="curve" smooth="yes"/>
      <point x="76.9000018835" y="171.300001025"/>
      <point x="269.500000596" y="-18.0000002384"/>
    </contour>
    <contour>
      <point x="568.400001049" y="166.599997044" type="curve" smooth="yes"/>
      <point x="395.999999285" y="166.599997044"/>
      <point x="297.999999046" y="281.999999285"/>
      <point x="297.999999046" y="435.200000286" type="curve" smooth="yes"/>
      <point x="297.999999046" y="593.100000978"/>
      <point x="392.499999881" y="699.600002766"/>
      <point x="562.400001049" y="699.600002766" type="curve" smooth="yes"/>
      <point x="733.900002599" y="699.600002766"/>
      <point x="831.500003219" y="584.200000525"/>
      <point x="831.500003219" y="430.0" type="curve" smooth="yes"/>
      <point x="831.500003219" y="272.899998784"/>
      <point x="736.500002503" y="166.599997044"/>
    </contour>
  </outline>
</glyph>
<glyph name="divide" format="1">
  <advance width="1253.39999318"/>
  <unicode hex="00F7"/>
  <outline>
    <contour>
      <point x="508.699997544" y="18.3000000715" type="line"/>
      <point x="753.399993896" y="18.3000000715" type="line"/>
      <point x="753.399993896" y="270.39999795" type="line"/>
      <point x="508.699997544" y="270.39999795" type="line"/>
    </contour>
    <contour>
      <point x="144.699997783" y="449.300001264" type="line"/>
      <point x="1119.19999456" y="449.300001264" type="line"/>
      <point x="1119.19999456" y="626.999999285" type="line"/>
      <point x="144.699997783" y="626.999999285" type="line"/>
    </contour>
    <contour>
      <point x="508.699997544" y="806.500002265" type="line"/>
      <point x="765.39999485" y="806.500002265" type="line"/>
      <point x="765.39999485" y="1049.30000055" type="line"/>
      <point x="508.699997544" y="1049.30000055" type="line"/>
    </contour>
  </outline>
</glyph>
<glyph name="oslash" format="1">
  <advance width="1150.0"/>
  <unicode hex="00F8"/>
  <outline>
    <contour>
      <point x="275.899999976" y="-141.0" type="line"/>
      <point x="956.899999976" y="1108.0" type="line"/>
      <point x="883.100000262" y="1150.59999967" type="line"/>
      <point x="208.100000262" y="-97.4000003338" type="line"/>
    </contour>
    <component base="o"/>
  </outline>
</glyph>
<glyph name="Hbar" format="1">
  <advance width="1336.80000615"/>
  <unicode hex="0126"/>
  <outline>
    <contour>
      <point x="125.1000036" y="0.0" type="line"/>
      <point x="356.399997473" y="102.700024486" type="line"/>
      <point x="347.599995375" y="638.2000103" type="line"/>
      <point x="883.099981189" y="644.900011897" type="line"/>
      <point x="891.899983287" y="109.400026083" type="line"/>
      <point x="1124.09997714" y="137.800032854" type="line"/>
      <point x="1132.89997923" y="1099.00000739" type="line"/>
      <point x="1200.39997745" y="1070.60000062" type="line"/>
      <point x="1285.89999783" y="1193.89999735" type="line"/>
      <point x="1218.39999962" y="1222.30000412" type="line"/>
      <point x="1227.20000172" y="1339.30000103" type="line"/>
      <point x="995.000007868" y="1310.89999425" type="line"/>
      <point x="1003.70000994" y="1193.89999735" type="line"/>
      <point x="468.200024128" y="1187.19999576" type="line"/>
      <point x="459.500022054" y="1304.19999266" type="line"/>
      <point x="228.200028181" y="1201.49996817" type="line"/>
      <point x="219.400026083" y="1084.49997127" type="line"/>
      <point x="151.900027871" y="1150.29998696" type="line"/>
      <point x="66.4000074863" y="1026.99999022" type="line"/>
      <point x="133.900005698" y="961.199974537" type="line"/>
    </contour>
    <contour>
      <point x="365.199999571" y="785.299999356" type="line"/>
      <point x="450.700019956" y="1037.29999268" type="line"/>
      <point x="986.20000577" y="1063.89999902" type="line"/>
      <point x="900.699985385" y="811.900005698" type="line"/>
    </contour>
  </outline>
</glyph>
<glyph name="hbar" format="1">
  <advance width="1057.40000367"/>
  <unicode hex="0127"/>
  <outline>
    <contour>
      <point x="107.600004435" y="0.0" type="line"/>
      <point x="337.300000548" y="0.0" type="line"/>
      <point x="337.300000548" y="685.199999809" type="line"/>
      <point x="376.299999833" y="771.800000191"/>
      <point x="477.400001049" y="852.000001907"/>
      <point x="597.900002837" y="852.000001907" type="curve" smooth="yes"/>
      <point x="727.500004888" y="852.000001907"/>
      <point x="755.000005007" y="774.500000596"/>
      <point x="755.000005007" y="597.69999826" type="curve" smooth="yes"/>
      <point x="755.000005007" y="0.0" type="line"/>
      <point x="984.700001121" y="0.0" type="line"/>
      <point x="984.700001121" y="613.199999571" type="line" smooth="yes"/>
      <point x="984.700001121" y="912.699997783"/>
      <point x="846.000003338" y="1032.19999957"/>
      <point x="652.000002623" y="1032.19999957" type="curve" smooth="yes"/>
      <point x="523.100001454" y="1032.19999957"/>
      <point x="416.500000834" y="988.499998927"/>
      <point x="337.300000548" y="908.999997854" type="curve"/>
      <point x="337.300000548" y="1116.00000191" type="line"/>
      <point x="595.700000167" y="1116.00000191" type="line"/>
      <point x="595.700000167" y="1251.00000048" type="line"/>
      <point x="337.300000548" y="1251.00000048" type="line"/>
      <point x="337.300000548" y="1384.79999948" type="line"/>
      <point x="107.600004435" y="1366.79999948" type="line"/>
      <point x="107.600004435" y="1251.00000048" type="line"/>
      <point x="18.5000046492" y="1251.00000048" type="line"/>
      <point x="18.5000046492" y="1116.00000191" type="line"/>
      <point x="107.600004435" y="1116.00000191" type="line"/>
    </contour>
  </outline>
</glyph>
<glyph name="dotlessi" format="1">
  <advance width="505.199996233"/>
  <unicode hex="0131"/>
  <outline>
    <contour>
      <point x="137.900000215" y="0.0" type="line"/>
      <point x="376.699996114" y="0.0" type="line"/>
      <point x="376.699996114" y="1013.19999933" type="line"/>
      <point x="137.900000215" y="1013.19999933" type="line"/>
    </contour>
  </outline>
</glyph>
<glyph name="Eng" format="1">
  <advance width="1254.10000193"/>
  <unicode hex="014A"/>
  <outline>
    <contour>
      <point x="743.400001287" y="-303.799999714" type="curve" smooth="yes"/>
      <point x="1049.09999216" y="-303.799999714"/>
      <point x="1164.69998777" y="-162.400003433"/>
      <point x="1147.79998374" y="101.09999001" type="curve" smooth="yes"/>
      <point x="1145.69998324" y="766.49997437" type="line" smooth="yes"/>
      <point x="1164.3999877" y="1038.19996691"/>
      <point x="1032.69999087" y="1205.49996245"/>
      <point x="775.49999845" y="1205.49996245" type="curve" smooth="yes"/>
      <point x="679.900009513" y="1205.49996245"/>
      <point x="525.900014043" y="1153.79996586"/>
      <point x="442.20001626" y="1092.19997549" type="curve"/>
      <point x="422.400016785" y="1302.29999053" type="line"/>
      <point x="422.400016785" y="1328.39999676"/>
      <point x="184.700021148" y="1336.69999874"/>
      <point x="161.200015545" y="1336.69999874" type="curve"/>
      <point x="134.500009179" y="1336.69999874"/>
      <point x="118.90000546" y="113.500027061"/>
      <point x="109.700003266" y="100.900024056" type="curve"/>
      <point x="368.8999964" y="0.0" type="line"/>
      <point x="362.599994898" y="866.69997704" type="line"/>
      <point x="433.699993014" y="989.099973798"/>
      <point x="570.999989271" y="1176.90000522"/>
      <point x="666.399986744" y="1176.90000522" type="curve" smooth="yes"/>
      <point x="798.699983239" y="1176.90000522"/>
      <point x="858.099983335" y="1106.70000708"/>
      <point x="858.099983335" y="915.000012159" type="curve" smooth="yes"/>
      <point x="859.299983621" y="240.100024104" type="line" smooth="yes"/>
      <point x="881.199988842" y="113.500033498"/>
      <point x="872.599993229" y="68.5000351667"/>
      <point x="746.500001073" y="68.5000351667" type="curve" smooth="yes"/>
      <point x="763.600006342" y="68.5000351667"/>
      <point x="721.100010514" y="54.6000316143"/>
      <point x="685.100011468" y="27.2000243664" type="curve"/>
      <point x="703.100010991" y="-255.399989128" type="line"/>
      <point x="734.600010157" y="-286.299995542"/>
      <point x="769.800009012" y="-303.799999714"/>
    </contour>
  </outline>
</glyph>
<glyph name="eng" format="1">
  <advance width="1050.60000229"/>
  <unicode hex="014B"/>
  <outline>
    <contour>
      <point x="584.100000262" y="-322.499997735" type="line"/>
      <point x="647.200000286" y="-322.499997735" type="line" smooth="yes"/>
      <point x="955.999998331" y="-322.499997735"/>
      <point x="1012.79999757" y="-176.499997973"/>
      <point x="1013.69999754" y="108.100001693" type="curve"/>
      <point x="1013.69999754" y="635.399998903" type="line" smooth="yes"/>
      <point x="1013.69999754" y="889.199999571"/>
      <point x="902.899998069" y="1037.39999914"/>
      <point x="668.799998283" y="1037.39999914" type="curve" smooth="yes"/>
      <point x="527.499998212" y="1037.39999914"/>
      <point x="426.899998069" y="976.299999356"/>
      <point x="348.299998403" y="894.19999814" type="curve"/>
      <point x="325.199998617" y="1012.99999928" type="line"/>
      <point x="127.600001097" y="1012.99999928" type="line"/>
      <point x="127.600001097" y="0.0" type="line"/>
      <point x="369.399997711" y="0.0" type="line"/>
      <point x="369.399997711" y="504.300001979" type="line" smooth="yes"/>
      <point x="369.399997711" y="584.500000596"/>
      <point x="372.399997711" y="653.799999475"/>
      <point x="384.099997401" y="708.499998927" type="curve"/>
      <point x="419.099997163" y="791.000000477"/>
      <point x="499.999996901" y="851.500001788"/>
      <point x="609.199999571" y="851.500001788" type="curve" smooth="yes"/>
      <point x="740.000000715" y="851.500001788"/>
      <point x="771.000000954" y="765.500001073"/>
      <point x="771.90000093" y="613.800000429" type="curve"/>
      <point x="771.90000093" y="60.8000016212" type="line" smooth="yes"/>
      <point x="771.90000093" y="-107.499999642"/>
      <point x="756.700000882" y="-138.799999475"/>
      <point x="617.0" y="-138.799999475" type="curve" smooth="yes"/>
      <point x="560.700000882" y="-138.799999475" type="line"/>
    </contour>
  </outline>
</glyph>
<glyph name="OE" format="1">
  <advance width="1912.19999766"/>
  <unicode hex="0152"/>
  <outline>
    <contour>
      <point x="734.500001788" y="-17.7000001669" type="curve" smooth="yes"/>
      <point x="791.599987984" y="-17.7000001669"/>
      <point x="873.499980807" y="44.2000060081"/>
      <point x="941.899978995" y="132.200015545" type="curve"/>
      <point x="943.299979329" y="171.90002501"/>
      <point x="967.899985194" y="143.900033355"/>
      <point x="1003.89999378" y="143.900033355" type="curve"/>
      <point x="1018.39999723" y="143.900033355"/>
      <point x="1802.09997976" y="139.000032187"/>
      <point x="1807.59998107" y="132.700030684" type="curve"/>
      <point x="1823.79998064" y="324.6000278" type="line"/>
      <point x="1310.40000796" y="324.6000278" type="line"/>
      <point x="1309.10000765" y="664.100016236" type="line"/>
      <point x="1770.3999846" y="664.100016236" type="line"/>
      <point x="1770.3999846" y="793.199998856" type="line"/>
      <point x="1305.30000675" y="793.199998856" type="line"/>
      <point x="1305.30000675" y="1084.89998853" type="line"/>
      <point x="1793.79998398" y="1084.89998853" type="line"/>
      <point x="1809.99998355" y="1214.09997046" type="line"/>
      <point x="1090.00001431" y="1214.09997046" type="line"/>
      <point x="1088.90001404" y="1149.89996946" type="line"/>
      <point x="1012.40001607" y="1198.49996817"/>
      <point x="868.900005937" y="1226.39996743"/>
      <point x="759.100008845" y="1226.39996743" type="curve" smooth="yes"/>
      <point x="423.400017738" y="1226.39996743"/>
      <point x="170.500024438" y="973.699976325"/>
      <point x="167.800024509" y="616.39998579" type="curve"/>
      <point x="166.700024247" y="250.799994469"/>
      <point x="394.400013447" y="-17.7000001669"/>
    </contour>
    <contour>
      <point x="733.100001931" y="175.399997234" type="curve" smooth="yes"/>
      <point x="496.600010872" y="176.299997211"/>
      <point x="392.400017738" y="387.199993372"/>
      <point x="395.500018477" y="619.299987435" type="curve"/>
      <point x="397.30001843" y="849.699981332"/>
      <point x="524.200015068" y="1165.10000122"/>
      <point x="759.100008845" y="1165.10000122" type="curve" smooth="yes"/>
      <point x="878.600003719" y="1170.40000248"/>
      <point x="960.399998665" y="1130.7000047"/>
      <point x="1006.39999437" y="1074.0000062" type="curve"/>
      <point x="974.29998672" y="1074.0000062"/>
      <point x="954.299981952" y="368.200018883"/>
      <point x="953.199981689" y="332.400010347" type="curve"/>
      <point x="898.299983144" y="247.200002909"/>
      <point x="815.499988675" y="175.999997377"/>
    </contour>
    <contour>
      <point x="956.099998832" y="134.900032163" type="move"/>
    </contour>
  </outline>
</glyph>
<glyph name="uni0237" format="1">
  <advance width="544.199995756"/>
  <unicode hex="0237"/>
  <outline>
    <contour>
      <point x="-10.0000014305" y="-385.900001645" type="line"/>
      <point x="49.0999983549" y="-385.900001645" type="line" smooth="yes"/>
      <point x="355.899995685" y="-385.900001645"/>
      <point x="416.099995255" y="-255.700003743"/>
      <point x="416.099995255" y="18.1999948025" type="curve" smooth="yes"/>
      <point x="416.099995255" y="1015.79999971" type="line"/>
      <point x="175.099998116" y="1015.79999971" type="line"/>
      <point x="175.099998116" y="-16.2000029087" type="line" smooth="yes"/>
      <point x="175.099998116" y="-162.400003195"/>
      <point x="167.199999332" y="-202.600003719"/>
      <point x="21.8999983072" y="-202.600003719" type="curve" smooth="yes"/>
      <point x="-39.2000014782" y="-202.600003719" type="line"/>
    </contour>
  </outline>
</glyph>
<glyph name="uni02BC" format="1">
  <advance width="355.700005174"/>
  <unicode hex="02BC"/>
  <outline>
    <contour>
      <point x="96.3000012636" y="897.900004983" type="line"/>
      <point x="234.399999619" y="897.900004983" type="line"/>
      <point x="297.900002599" y="1369.40000296" type="line"/>
      <point x="106.200005054" y="1369.40000296" type="line"/>
    </contour>
  </outline>
</glyph>
<glyph name="circumflex" format="1">
  <advance width="688.400002003"/>
  <unicode hex="02C6"/>
  <outline>
    <contour>
      <point x="42.7000027895" y="1060.40000367" type="line"/>
      <point x="212.900000215" y="1060.40000367" type="line"/>
      <point x="355.800000429" y="1263.40000582" type="line"/>
      <point x="511.799999952" y="1060.40000367" type="line"/>
      <point x="686.399997234" y="1060.40000367" type="line"/>
      <point x="461.499999881" y="1425.90000308" type="line"/>
      <point x="268.400000572" y="1425.90000308" type="line"/>
    </contour>
  </outline>
</glyph>
<glyph name="caron" format="1">
  <advance width="687.500002027"/>
  <unicode hex="02C7"/>
  <outline>
    <contour>
      <point x="271.200000048" y="1088.30000293" type="line"/>
      <point x="458.899999499" y="1088.30000293" type="line"/>
      <point x="696.299996972" y="1425.90000308" type="line"/>
      <point x="504.500000119" y="1425.90000308" type="line"/>
      <point x="354.400000095" y="1243.60000038" type="line"/>
      <point x="223.599999905" y="1425.90000308" type="line"/>
      <point x="35.5000029802" y="1425.90000308" type="line"/>
    </contour>
  </outline>
</glyph>
<glyph name="breve" format="1">
  <advance width="633.20000267"/>
  <unicode hex="02D8"/>
  <outline>
    <contour>
      <point x="320.700001121" y="1115.30000317" type="curve" smooth="yes"/>
      <point x="466.699999452" y="1115.30000317"/>
      <point x="583.699999452" y="1190.30000269"/>
      <point x="583.699999452" y="1354.80000234" type="curve"/>
      <point x="425.800002098" y="1354.80000234" type="line"/>
      <point x="425.800002098" y="1289.50000131"/>
      <point x="393.300000787" y="1262.70000064"/>
      <point x="320.700001121" y="1262.70000064" type="curve" smooth="yes"/>
      <point x="248.100001454" y="1262.70000064"/>
      <point x="217.100000262" y="1289.50000131"/>
      <point x="217.100000262" y="1354.80000234" type="curve"/>
      <point x="59.9000028372" y="1354.80000234" type="line"/>
      <point x="59.9000028372" y="1191.10000265"/>
      <point x="175.700002789" y="1115.30000317"/>
    </contour>
  </outline>
</glyph>
<glyph name="ring" format="1">
  <advance width="580.099999785"/>
  <unicode hex="02DA"/>
  <outline>
    <contour>
      <point x="295.899999738" y="1152.10000288" type="curve" smooth="yes"/>
      <point x="239.499999881" y="1152.10000288"/>
      <point x="210.099999547" y="1195.00000286"/>
      <point x="210.099999547" y="1246.90000284" type="curve" smooth="yes"/>
      <point x="210.099999547" y="1295.20000291"/>
      <point x="243.099999785" y="1341.70000279"/>
      <point x="295.899999738" y="1341.70000279" type="curve" smooth="yes"/>
      <point x="350.499999642" y="1341.70000279"/>
      <point x="382.599999905" y="1296.10000288"/>
      <point x="382.599999905" y="1246.90000284" type="curve" smooth="yes"/>
      <point x="382.599999905" y="1195.90000284"/>
      <point x="350.499999642" y="1152.10000288"/>
    </contour>
    <contour>
      <point x="295.899999738" y="1055.30000389" type="curve" smooth="yes"/>
      <point x="420.79999876" y="1055.30000389"/>
      <point x="497.199998617" y="1145.50000322"/>
      <point x="497.199998617" y="1247.00000286" type="curve" smooth="yes"/>
      <point x="497.199998617" y="1347.60000253"/>
      <point x="422.599998713" y="1437.80000186"/>
      <point x="295.899999738" y="1437.80000186" type="curve" smooth="yes"/>
      <point x="170.100000739" y="1437.80000186"/>
      <point x="94.6000008583" y="1348.5000025"/>
      <point x="94.6000008583" y="1247.00000286" type="curve" smooth="yes"/>
      <point x="94.6000008583" y="1145.50000322"/>
      <point x="171.000000715" y="1055.30000389"/>
    </contour>
  </outline>
</glyph>
<glyph name="ogonek" format="1">
  <advance width="509.600001335"/>
  <unicode hex="02DB"/>
  <outline>
    <contour>
      <point x="289.399999857" y="-344.200001001" type="curve" smooth="yes"/>
      <point x="346.599999428" y="-344.200001001"/>
      <point x="407.299999356" y="-329.400001049"/>
      <point x="458.799998522" y="-309.400001287" type="curve"/>
      <point x="458.799998522" y="-309.400001287"/>
      <point x="452.999998808" y="-174.20000267"/>
      <point x="452.199998856" y="-174.20000267" type="curve" smooth="yes"/>
      <point x="439.199998617" y="-179.600002766"/>
      <point x="382.299999118" y="-205.000002623"/>
      <point x="330.799999237" y="-205.000002623" type="curve" smooth="yes"/>
      <point x="291.109498834" y="-205.000002623"/>
      <point x="265.662298966" y="-171.058402875"/>
      <point x="265.662298966" y="-136.939602847" type="curve" smooth="yes"/>
      <point x="265.662298966" y="-79.5500022769"/>
      <point x="304.752800656" y="-8.64521063067"/>
      <point x="376.200000048" y="45.9999988079" type="curve"/>
      <point x="273.700001121" y="60.3999984264" type="line"/>
      <point x="199.038100248" y="19.8244085276"/>
      <point x="96.9202004578" y="-60.1878026674"/>
      <point x="96.9202004578" y="-180.622502056" type="curve" smooth="yes"/>
      <point x="96.9202004578" y="-290.105600979"/>
      <point x="183.528699411" y="-344.200001001"/>
    </contour>
  </outline>
</glyph>
<glyph name="tilde" format="1">
  <advance width="710.200004816"/>
  <unicode hex="02DC"/>
  <outline>
    <contour>
      <point x="166.600001335" y="1117.00000262" type="line"/>
      <point x="180.48840107" y="1182.84800259"/>
      <point x="204.364801041" y="1205.43800273"/>
      <point x="235.637201106" y="1205.43800273" type="curve" smooth="yes"/>
      <point x="297.672801353" y="1205.43800273"/>
      <point x="391.615602054" y="1117.00000262"/>
      <point x="495.564101803" y="1117.00000262" type="curve"/>
      <point x="623.066599777" y="1117.00000262"/>
      <point x="667.100000262" y="1241.87199997"/>
      <point x="667.100000262" y="1348.60000086" type="curve"/>
      <point x="547.400001764" y="1348.60000086" type="line"/>
      <point x="535.206501957" y="1291.98300071"/>
      <point x="516.960901898" y="1273.70500064"/>
      <point x="491.379401759" y="1273.70500064" type="curve" smooth="yes"/>
      <point x="439.272101495" y="1273.70500064"/>
      <point x="356.860900921" y="1348.73500089"/>
      <point x="233.064801446" y="1348.73500089" type="curve" smooth="yes"/>
      <point x="93.5200034618" y="1348.73500089"/>
      <point x="47.3000029325" y="1229.75700328"/>
      <point x="47.3000029325" y="1117.00000262" type="curve"/>
    </contour>
  </outline>
</glyph>
<glyph name="hungarumlaut" format="1">
  <advance width="845.299994826"/>
  <unicode hex="02DD"/>
  <outline>
    <contour>
      <point x="120.799999475" y="1062.60000396" type="line"/>
      <point x="254.699997306" y="1062.60000396" type="line"/>
      <point x="554.599993706" y="1396.80000257" type="line"/>
      <point x="339.799996376" y="1396.80000257" type="line"/>
    </contour>
    <contour>
      <point x="387.299997687" y="1062.60000396" type="line"/>
      <point x="519.699995637" y="1062.60000396" type="line"/>
      <point x="833.299992919" y="1396.80000257" type="line"/>
      <point x="614.799995422" y="1396.80000257" type="line"/>
    </contour>
  </outline>
</glyph>
<glyph name="uni030F" format="1">
  <advance width="650"/>
  <unicode hex="030F"/>
  <outline>
    <contour>
      <point x="544" y="1212" type="line"/>
      <point x="492" y="1212" type="line"/>
      <point x="328" y="1494" type="line"/>
      <point x="442" y="1494" type="line"/>
    </contour>
    <contour>
      <point x="367" y="1212" type="line"/>
      <point x="312" y="1212" type="line"/>
      <point x="101" y="1494" type="line"/>
      <point x="225" y="1494" type="line"/>
    </contour>
  </outline>
</glyph>
<glyph name="uni0311" format="1">
  <advance width="629.000000954"/>
  <unicode hex="0311"/>
  <outline>
    <contour>
      <point x="57.1000019312" y="1132.00000238" type="curve"/>
      <point x="213.999999285" y="1132.00000238" type="line"/>
      <point x="213.999999285" y="1194.80000353"/>
      <point x="263.199999571" y="1224.10000408"/>
      <point x="316.900000215" y="1224.10000408" type="curve" smooth="yes"/>
      <point x="371.300000787" y="1224.10000408"/>
      <point x="422.700001121" y="1195.60000348"/>
      <point x="422.700001121" y="1132.00000238" type="curve"/>
      <point x="580.699998498" y="1132.00000238" type="line"/>
      <point x="580.699998498" y="1283.9000026"/>
      <point x="448.799999237" y="1356.10000288"/>
      <point x="320.200000048" y="1356.10000288" type="curve" smooth="yes"/>
      <point x="190.000000954" y="1356.10000288"/>
      <point x="57.1000019312" y="1283.10000265"/>
    </contour>
  </outline>
</glyph>
<glyph name="uni031B" format="1">
  <advance width="508.099998116"/>
  <unicode hex="031B"/>
  <outline>
    <contour>
      <point x="191.200000048" y="481.199999332" type="line"/>
      <point x="207.199999809" y="440.699999928"/>
      <point x="219.499999881" y="395.099999785"/>
      <point x="219.499999881" y="355.999999523" type="curve" smooth="yes"/>
      <point x="219.499999881" y="302.899999499"/>
      <point x="195.100000024" y="262.599999189"/>
      <point x="119.800000191" y="262.599999189" type="curve" smooth="yes"/>
      <point x="119.200000048" y="262.599999189"/>
      <point x="111.300000072" y="262.599999189"/>
      <point x="110.499999881" y="262.699999213" type="curve"/>
      <point x="110.499999881" y="163.199999571" type="line"/>
      <point x="128.599999905" y="161.099999547"/>
      <point x="145.699999928" y="160.099999547"/>
      <point x="162.599999905" y="160.099999547" type="curve" smooth="yes"/>
      <point x="296.999999762" y="160.099999547"/>
      <point x="348.899999261" y="220.400000095"/>
      <point x="348.899999261" y="309.399999857" type="curve" smooth="yes"/>
      <point x="348.899999261" y="360.100000262"/>
      <point x="331.399999142" y="420.600000381"/>
      <point x="304.299999595" y="481.199999332" type="curve"/>
    </contour>
  </outline>
</glyph>
<glyph name="Delta" format="1">
  <advance width="1151.50000989"/>
  <unicode hex="0394"/>
  <outline>
    <contour>
      <point x="2.60000443459" y="0.0" type="line"/>
      <point x="1100.59998918" y="135.200032234" type="line"/>
      <point x="689.600003481" y="1372.69999945" type="line"/>
      <point x="543.900021195" y="1237.49996722" type="line"/>
    </contour>
    <contour>
      <point x="272.700001836" y="179.399998188" type="line"/>
      <point x="626.800014496" y="1028.99997568" type="line"/>
      <point x="860.299997211" y="290.900024772" type="line"/>
    </contour>
  </outline>
</glyph>
<glyph name="Lambda" format="1">
  <advance width="1151.50000989"/>
  <unicode hex="039B"/>
  <outline>
    <contour>
      <point x="1.80000448227" y="0.0" type="line"/>
      <point x="220.600012064" y="135.500032306" type="line"/>
      <point x="592.300006509" y="1175.00000477" type="line"/>
      <point x="1002.00000906" y="0.0" type="line"/>
      <point x="1150.6000011" y="0.0" type="line"/>
      <point x="662.40000248" y="1353.99999619" type="line"/>
      <point x="461.199996471" y="1232.99996734" type="line"/>
    </contour>
  </outline>
</glyph>
<glyph name="Pi" format="1">
  <advance width="1296.60000205"/>
  <unicode hex="03A0"/>
  <outline>
    <contour>
      <point x="126.900000453" y="0.0" type="line"/>
      <point x="286.199996233" y="135.500032306" type="line"/>
      <point x="393.800021887" y="1229.00000334" type="line"/>
      <point x="1022.90000522" y="1093.49997103" type="line"/>
      <point x="1008.00000167" y="0.0" type="line"/>
      <point x="1167.29999745" y="122.800029278" type="line"/>
      <point x="1089.69997895" y="1355.79999661" type="line"/>
      <point x="142.000004053" y="1232.99996734" type="line"/>
    </contour>
  </outline>
</glyph>
<glyph name="Sigma" format="1">
  <advance width="1020.40000272"/>
  <unicode hex="03A3"/>
  <outline>
    <contour>
      <point x="129.400000334" y="0.0" type="line"/>
      <point x="879.099980474" y="134.900032163" type="line"/>
      <point x="965.899999499" y="332.900026917" type="line"/>
      <point x="468.700012565" y="324.300024867" type="line"/>
      <point x="397.599995613" y="661.800015926" type="line"/>
      <point x="851.199983597" y="609.500003457" type="line"/>
      <point x="915.399998903" y="798.49999845" type="line"/>
      <point x="461.80001092" y="789.599996328" type="line"/>
      <point x="397.599995613" y="1074.89998877" type="line"/>
      <point x="875.499982953" y="1018.3999753" type="line"/>
      <point x="956.199999571" y="1216.39997005" type="line"/>
      <point x="208.500019193" y="1207.799968" type="line"/>
    </contour>
  </outline>
</glyph>
